<svg width="40" height="40" viewBox="0 0 40 40" fill="none" xmlns="http://www.w3.org/2000/svg">
<circle cx="20" cy="20" r="20" fill="white"/>
<path d="M20 10C14.49 10 10 14.49 10 20C10 25.51 14.49 30 20 30C25.51 30 30 25.51 30 20C30 14.49 25.51 10 20 10ZM24 20.75H20.75V24C20.75 24.41 20.41 24.75 20 24.75C19.59 24.75 19.25 24.41 19.25 24V20.75H16C15.59 20.75 15.25 20.41 15.25 20C15.25 19.59 15.59 19.25 16 19.25H19.25V16C19.25 15.59 19.59 15.25 20 15.25C20.41 15.25 20.75 15.59 20.75 16V19.25H24C24.41 19.25 24.75 19.59 24.75 20C24.75 20.41 24.41 20.75 24 20.75Z" fill="#5A5257"/>
</svg>
