<svg width="25" height="24" viewBox="0 0 25 24" fill="none" xmlns="http://www.w3.org/2000/svg">
<path d="M2.75 12H11.2115V13.8077C11.2115 14.0838 11.4354 14.3077 11.7115 14.3077H13.7885C14.0646 14.3077 14.2885 14.0838 14.2885 13.8077V12H22.75V18.0385C22.75 19.7378 21.3724 21.1154 19.6731 21.1154H5.82692C4.12759 21.1154 2.75 19.7378 2.75 18.0385V12Z" fill="currentColor"/>
<path d="M2.75 8.92311C2.75 7.22378 4.12759 5.84619 5.82692 5.84619H19.6731C21.3724 5.84619 22.75 7.22378 22.75 8.92311V10.4616H2.75V8.92311Z" fill="currentColor"/>
<rect x="8.51855" y="4.30774" width="1.15385" height="1.53846" fill="currentColor"/>
<rect x="15.8271" y="4.30774" width="1.15385" height="1.53846" fill="currentColor"/>
<path d="M8.51855 4.30774L8.51855 3.48396C8.51855 3.28376 8.63757 3.10307 8.82299 3.02759C9.25074 2.85347 10.0434 2.54327 10.6339 2.38466C12.0135 2.01418 13.4852 2.01418 14.8647 2.38466C15.4553 2.54327 16.2479 2.85347 16.6757 3.02759C16.8611 3.10307 16.9801 3.28376 16.9801 3.48396L16.9801 4.30774L15.8262 4.30774L15.8262 4.20183C15.8262 3.99193 15.6954 3.80354 15.4969 3.73536C15.2777 3.66009 15.0602 3.591 14.8647 3.53851C13.4852 3.16802 12.0135 3.16802 10.6339 3.53851C10.4385 3.591 10.2209 3.66009 10.0018 3.73536C9.80323 3.80354 9.6724 3.99193 9.6724 4.20183L9.6724 4.30774L8.51855 4.30774Z" fill="currentColor"/>
</svg>
