<svg width="16" height="16" viewBox="0 0 16 16" fill="none" xmlns="http://www.w3.org/2000/svg">
<path d="M14.6665 3.43398V5.90065C14.6665 7.40065 14.0665 8.00065 12.5665 8.00065H10.7665C9.2665 8.00065 8.6665 7.40065 8.6665 5.90065V3.43398C8.6665 1.93398 9.2665 1.33398 10.7665 1.33398H12.5665C14.0665 1.33398 14.6665 1.93398 14.6665 3.43398Z" fill="#EB2BAC"/>
<path d="M7.3335 10.1V12.5667C7.3335 14.0667 6.7335 14.6667 5.2335 14.6667H3.4335C1.9335 14.6667 1.3335 14.0667 1.3335 12.5667V10.1C1.3335 8.6 1.9335 8 3.4335 8H5.2335C6.7335 8 7.3335 8.6 7.3335 10.1Z" fill="#EB2BAC"/>
<path d="M9.85348 14.6657C9.67348 14.6657 9.50681 14.5657 9.42015 14.4124C9.33348 14.2524 9.33348 14.0657 9.42681 13.9057L10.0735 12.8257C10.2135 12.5857 10.5201 12.5124 10.7601 12.6524C11.0001 12.7924 11.0735 13.099 10.9335 13.339L10.8135 13.539C12.4601 13.1124 13.6735 11.619 13.6735 9.8457C13.6735 9.57237 13.9001 9.3457 14.1735 9.3457C14.4468 9.3457 14.6668 9.57237 14.6668 9.85237C14.6668 12.5057 12.5068 14.6657 9.85348 14.6657Z" fill="#EB2BAC"/>
<path d="M1.8335 6.64732C1.56016 6.64732 1.3335 6.42732 1.3335 6.14732C1.3335 3.49398 3.4935 1.33398 6.14683 1.33398C6.3335 1.33398 6.4935 1.43398 6.58683 1.58732C6.6735 1.74732 6.6735 1.93398 6.58016 2.09398L5.9335 3.16732C5.78683 3.40732 5.48016 3.48732 5.24683 3.34065C5.00683 3.20065 4.9335 2.89398 5.0735 2.65398L5.1935 2.45398C3.5535 2.88065 2.3335 4.37398 2.3335 6.14732C2.3335 6.42732 2.10683 6.64732 1.8335 6.64732Z" fill="#EB2BAC"/>
</svg>
