<svg width="16" height="16" viewBox="0 0 16 16" fill="none" xmlns="http://www.w3.org/2000/svg">
<path d="M10.6663 8.60004V11.4C10.6663 13.7334 9.73301 14.6667 7.39967 14.6667H4.59967C2.26634 14.6667 1.33301 13.7334 1.33301 11.4V8.60004C1.33301 6.26671 2.26634 5.33337 4.59967 5.33337H7.39967C9.73301 5.33337 10.6663 6.26671 10.6663 8.60004Z" fill="#1A1016"/>
<path d="M11.3998 1.33337H8.59984C6.54446 1.33337 5.5805 2.06277 5.37967 3.82605C5.33766 4.19494 5.64317 4.50004 6.01445 4.50004H7.39984C10.1998 4.50004 11.4998 5.80004 11.4998 8.60004V9.98544C11.4998 10.3567 11.8049 10.6622 12.1738 10.6202C13.9371 10.4194 14.6665 9.45543 14.6665 7.40004V4.60004C14.6665 2.26671 13.7332 1.33337 11.3998 1.33337Z" fill="#1A1016"/>
</svg>
