<svg width="24" height="25" viewBox="0 0 24 25" fill="none" xmlns="http://www.w3.org/2000/svg">
<path d="M19.3707 5.39L13.5107 2.78C12.6507 2.4 11.3507 2.4 10.4907 2.78L4.63066 5.39C3.15066 6.05 2.93066 6.95 2.93066 7.43C2.93066 7.91 3.15066 8.81 4.63066 9.47L10.4907 12.08C10.9207 12.27 11.4607 12.37 12.0007 12.37C12.5407 12.37 13.0807 12.27 13.5107 12.08L19.3707 9.47C20.8507 8.81 21.0707 7.91 21.0707 7.43C21.0707 6.95 20.8607 6.05 19.3707 5.39Z" fill="white"/>
<path d="M12.0003 17.54C11.6203 17.54 11.2403 17.46 10.8903 17.31L4.15031 14.31C3.12031 13.85 2.32031 12.62 2.32031 11.49C2.32031 11.08 2.65031 10.75 3.06031 10.75C3.47031 10.75 3.80031 11.08 3.80031 11.49C3.80031 12.03 4.25031 12.73 4.75031 12.95L11.4903 15.95C11.8103 16.09 12.1803 16.09 12.5003 15.95L19.2403 12.95C19.7403 12.73 20.1903 12.04 20.1903 11.49C20.1903 11.08 20.5203 10.75 20.9303 10.75C21.3403 10.75 21.6703 11.08 21.6703 11.49C21.6703 12.61 20.8703 13.85 19.8403 14.31L13.1003 17.31C12.7603 17.46 12.3803 17.54 12.0003 17.54Z" fill="white"/>
<path d="M12.0003 22.5C11.6203 22.5 11.2403 22.42 10.8903 22.27L4.15031 19.27C3.04031 18.78 2.32031 17.67 2.32031 16.45C2.32031 16.04 2.65031 15.71 3.06031 15.71C3.47031 15.71 3.80031 16.04 3.80031 16.45C3.80031 17.08 4.17031 17.65 4.75031 17.91L11.4903 20.91C11.8103 21.05 12.1803 21.05 12.5003 20.91L19.2403 17.91C19.8103 17.66 20.1903 17.08 20.1903 16.45C20.1903 16.04 20.5203 15.71 20.9303 15.71C21.3403 15.71 21.6703 16.04 21.6703 16.45C21.6703 17.67 20.9503 18.77 19.8403 19.27L13.1003 22.27C12.7603 22.42 12.3803 22.5 12.0003 22.5Z" fill="white"/>
</svg>
