<svg width="30" height="31" viewBox="0 0 30 31" fill="none" xmlns="http://www.w3.org/2000/svg">
<path d="M12.5962 15.0569C12.4506 15.0556 12.3313 15.1724 12.3304 15.318C12.3291 15.5252 12.3284 15.7897 12.3326 15.8575C12.3496 16.1385 12.3878 16.3312 12.5614 16.5159C12.7594 16.7308 13.2886 16.7708 13.5264 16.7651C13.533 16.765 13.5402 16.7647 13.5442 16.7595C13.5462 16.7569 13.5473 16.7536 13.5473 16.7503C13.5473 16.747 13.5462 16.7438 13.5442 16.7411C13.5402 16.7359 13.5332 16.7345 13.5272 16.7318C13.3398 16.646 13.0734 16.3806 12.9509 16.2008C12.8895 16.1124 12.8569 16.0072 12.8575 15.8996V15.3208C12.8575 15.176 12.7409 15.0583 12.5962 15.0569Z" fill="white"/>
<path d="M17.8666 11.5779C17.8666 12.1464 18.3274 12.6073 18.896 12.6073L28.3291 12.6073C28.343 12.5749 28.3501 12.5399 28.3501 12.5046V10.5666L18.8979 10.5485C18.3286 10.5474 17.8666 11.0086 17.8666 11.5779Z" fill="white"/>
<path d="M27.4288 9.52771C27.428 9.49708 27.4202 9.46704 27.406 9.4399C27.3918 9.41275 27.3716 9.38922 27.3469 9.3711C27.3222 9.35298 27.2936 9.34076 27.2635 9.33537C27.2333 9.32998 27.2023 9.33156 27.1729 9.34L26.4341 9.57288C26.3876 9.5879 26.347 9.61726 26.3181 9.65674C26.2893 9.69622 26.2737 9.74381 26.2735 9.79271C26.2735 9.84371 26.3148 9.88506 26.3658 9.88506L27.0715 9.88505C27.2689 9.88505 27.4288 9.72506 27.4288 9.52771Z" fill="white"/>
<path d="M7.92827 18.4815C7.78449 18.4813 7.64389 18.5238 7.52424 18.6035C7.4046 18.6832 7.31129 18.7967 7.25613 18.9294C7.20097 19.0622 7.18644 19.2084 7.21437 19.3494C7.24229 19.4905 7.31143 19.62 7.41303 19.7218C7.51462 19.8235 7.64411 19.8928 7.78512 19.921C7.92612 19.9491 8.07229 19.9347 8.20515 19.8798C8.338 19.8248 8.45156 19.7316 8.53146 19.6121C8.61136 19.4926 8.65401 19.352 8.65401 19.2082C8.65375 19.0158 8.57723 18.8312 8.44122 18.695C8.3052 18.5588 8.12076 18.482 7.92827 18.4815Z" fill="white"/>
<path d="M25.1984 13.0752C25.1984 13.2226 25.3179 13.3422 25.4654 13.3422L28.011 13.3422L28.2419 12.8082L25.4654 12.8082C25.3179 12.8082 25.1984 12.9277 25.1984 13.0752Z" fill="white"/>
<path d="M9.45682 22.3952L10.9515 15.0887C10.5389 15.1027 9.16573 15.1429 9.01616 15.0284C8.6809 14.7715 8.73911 14.2816 8.77224 14.1069H7.98928C7.92103 14.3077 7.56368 15.3406 7.38701 15.9328C7.27559 16.3153 6.95538 16.4879 6.68938 16.5672C6.25574 17.4777 4.8956 20.3244 4.42985 21.2128C4.21638 21.6253 4.10909 22.0844 4.11767 22.5488H9.26811C9.31238 22.5486 9.35525 22.5333 9.38958 22.5053C9.42392 22.4774 9.44765 22.4385 9.45682 22.3952ZM8.43497 21.8422H6.02587C5.95715 21.8421 5.88951 21.8251 5.82903 21.7924C5.76856 21.7598 5.71714 21.7126 5.67941 21.6552C5.64168 21.5977 5.61883 21.5318 5.6129 21.4634C5.60696 21.3949 5.61815 21.326 5.64544 21.263L7.3318 17.3482C7.38114 17.2285 7.46196 17.1245 7.56568 17.047C7.88087 16.8162 8.07561 16.3625 8.16294 16.1125C8.19153 16.036 8.24279 15.97 8.30987 15.9234C8.37695 15.8767 8.45666 15.8517 8.53836 15.8515H9.51806C9.57733 15.8518 9.6358 15.8653 9.68926 15.8909C9.74273 15.9165 9.78987 15.9536 9.82729 15.9995C9.86472 16.0455 9.8915 16.0992 9.90572 16.1567C9.91994 16.2143 9.92124 16.2742 9.90953 16.3324L8.8415 21.5109C8.82212 21.6044 8.77112 21.6884 8.69708 21.7487C8.62304 21.8091 8.53048 21.8421 8.43497 21.8422Z" fill="white"/>
<path d="M12.2329 11.2731C12.1882 11.2731 12.1487 11.3021 12.1353 11.3447L11.3327 13.892H11.5455L12.3306 11.4064C12.3514 11.3404 12.3021 11.2731 12.2329 11.2731Z" fill="white"/>
<path d="M11.6306 11.2731C11.5859 11.2731 11.5464 11.3021 11.533 11.3447L10.7304 13.892H10.9432L11.7283 11.4064C11.7491 11.3404 11.6999 11.2731 11.6306 11.2731Z" fill="white"/>
<path d="M13.0903 11.7871V9.98727L8.85235 9.88689L8.68151 9.8877C7.84811 9.89163 7.06183 10.2748 6.54521 10.9288C6.22103 11.3391 6.03277 11.8359 5.92804 12.3483C5.81395 12.9065 5.60657 13.5896 5.24573 13.892H6.51452L7.31707 11.3447C7.3305 11.3021 7.37003 11.2731 7.41473 11.2731C7.48394 11.2731 7.53321 11.3404 7.51237 11.4064L6.72732 13.892H7.11679L7.91934 11.3447C7.93277 11.3021 7.97231 11.2731 8.017 11.2731C8.08621 11.2731 8.13548 11.3404 8.11464 11.4064L7.3296 13.892H7.71907L8.51665 11.3605C8.53304 11.3085 8.58126 11.2731 8.63579 11.2731C8.72108 11.2731 8.78128 11.3567 8.75428 11.4376L7.93488 13.892H8.32134L9.12389 11.3447C9.13732 11.3021 9.17685 11.2731 9.22155 11.2731C9.29076 11.2731 9.34003 11.3404 9.31919 11.4064L8.53414 13.892H8.92361L9.72616 11.3447C9.73959 11.3021 9.77913 11.2731 9.82382 11.2731C9.89303 11.2731 9.94231 11.3404 9.92146 11.4064L9.13642 13.892H9.52589L10.3284 11.3447C10.3419 11.3021 10.3814 11.2731 10.4261 11.2731C10.4953 11.2731 10.5446 11.3404 10.5237 11.4064L9.73869 13.892H10.1282L10.9307 11.3447C10.9441 11.3021 10.9837 11.2731 11.0284 11.2731C11.0976 11.2731 11.1469 11.3404 11.126 11.4064L10.341 13.892H10.7304L11.533 11.3447C11.5464 11.3021 11.5859 11.2731 11.6306 11.2731C11.6999 11.2731 11.7491 11.3404 11.7283 11.4064L10.9432 13.892H11.3327L12.1353 11.3447C12.1487 11.3021 12.1882 11.2731 12.2329 11.2731C12.3021 11.2731 12.3514 11.3404 12.3306 11.4064L11.5455 13.892H16.6543H25.0967C25.0967 13.2933 24.6113 12.8079 24.0126 12.8079H14.1122C13.8414 12.8077 13.5818 12.7 13.3903 12.5087C13.1987 12.3173 13.0909 12.0578 13.0903 11.7871Z" fill="white"/>
<path d="M11.0284 11.2731C10.9837 11.2731 10.9441 11.3021 10.9307 11.3447L10.1282 13.892H10.341L11.126 11.4064C11.1469 11.3404 11.0976 11.2731 11.0284 11.2731Z" fill="white"/>
<path d="M10.4261 11.2731C10.3814 11.2731 10.3419 11.3021 10.3284 11.3447L9.52589 13.892H9.73869L10.5237 11.4064C10.5446 11.3404 10.4953 11.2731 10.4261 11.2731Z" fill="white"/>
<path d="M9.82382 11.2731C9.77913 11.2731 9.73959 11.3021 9.72616 11.3447L8.92361 13.892H9.13642L9.92146 11.4064C9.94231 11.3404 9.89303 11.2731 9.82382 11.2731Z" fill="white"/>
<path d="M9.22155 11.2731C9.17685 11.2731 9.13732 11.3021 9.12389 11.3447L8.32134 13.892H8.53414L9.31919 11.4064C9.34003 11.3404 9.29076 11.2731 9.22155 11.2731Z" fill="white"/>
<path d="M8.63579 11.2731C8.58126 11.2731 8.53304 11.3085 8.51665 11.3605L7.71907 13.892H7.93488L8.75428 11.4376C8.78128 11.3567 8.72108 11.2731 8.63579 11.2731Z" fill="white"/>
<path d="M8.017 11.2731C7.97231 11.2731 7.93277 11.3021 7.91934 11.3447L7.11679 13.892H7.3296L8.11464 11.4064C8.13548 11.3404 8.08621 11.2731 8.017 11.2731Z" fill="white"/>
<path d="M7.41473 11.2731C7.37003 11.2731 7.3305 11.3021 7.31707 11.3447L6.51452 13.892H6.72732L7.51237 11.4064C7.53321 11.3404 7.48394 11.2731 7.41473 11.2731Z" fill="white"/>
<path d="M9.51835 15.952H8.53865C8.47669 15.9524 8.41636 15.9719 8.36588 16.0078C8.3154 16.0438 8.27723 16.0944 8.25658 16.1528C8.16524 16.4138 7.96147 16.8886 7.6242 17.1345C7.53549 17.2007 7.46616 17.2894 7.42344 17.3915L5.73707 21.3063C5.71538 21.3545 5.70639 21.4075 5.71096 21.4602C5.71552 21.5129 5.7335 21.5636 5.76317 21.6074C5.79173 21.6508 5.83061 21.6865 5.87633 21.7112C5.92205 21.7359 5.97319 21.7488 6.02516 21.7489L8.43425 21.7489C8.50657 21.7487 8.57661 21.7236 8.63269 21.6779C8.68877 21.6323 8.72749 21.5688 8.74242 21.498L9.81145 16.3134C9.82035 16.2698 9.81948 16.2248 9.8089 16.1816C9.79833 16.1384 9.7783 16.098 9.75028 16.0635C9.72225 16.0289 9.68692 16.001 9.64681 15.9817C9.60671 15.9625 9.56284 15.9523 9.51835 15.952ZM7.92834 20.0345C7.76467 20.0347 7.60462 19.9863 7.46844 19.8955C7.33227 19.8047 7.2261 19.6755 7.16337 19.5243C7.10064 19.3732 7.08418 19.2068 7.11606 19.0462C7.14794 18.8857 7.22674 18.7382 7.34248 18.6225C7.45821 18.5067 7.60568 18.4279 7.76622 18.3961C7.92676 18.3642 8.09315 18.3806 8.24433 18.4434C8.39551 18.5061 8.52468 18.6123 8.61549 18.7484C8.70629 18.8846 8.75466 19.0447 8.75446 19.2083C8.7542 19.4274 8.66707 19.6373 8.51221 19.7922C8.35734 19.9471 8.14736 20.0342 7.92834 20.0345Z" fill="white"/>
<path d="M25.0425 9.98827H24.4402L19.4212 9.98827H18.819L13.2881 9.98827V11.7871C13.2882 11.8951 13.3096 12.002 13.3512 12.1017C13.3927 12.2014 13.4534 12.2919 13.53 12.3681C13.6065 12.4443 13.6974 12.5046 13.7973 12.5456C13.8972 12.5866 14.0042 12.6076 14.1122 12.6072H16.6865C17.2827 12.6072 17.766 12.1238 17.766 11.5277C17.766 10.9306 18.2506 10.447 18.8476 10.4481L28.3499 10.4671C28.3499 10.2026 28.1356 9.98827 27.8711 9.98827L25.0425 9.98827Z" fill="white"/>
<path d="M9.07669 14.9483C9.12111 14.9812 10.415 14.9856 11.705 14.9817C13.0097 14.9778 14.3105 14.9653 14.3105 14.9653C14.5353 14.9653 14.712 15.139 14.8625 15.3096C14.9859 15.4543 15.0513 15.6396 15.0462 15.8296L15.0161 16.8866C15.014 16.9542 14.9858 17.0184 14.9373 17.0656C14.8888 17.1128 14.8238 17.1393 14.7561 17.1396L11.7929 17.1215C11.8163 17.1859 11.8285 17.2538 11.8291 17.3222C11.8294 17.4079 11.8109 17.4925 11.7749 17.5702L15.0412 17.5642C15.2952 17.5642 15.4708 17.3293 15.4708 17.0763V15.8045C15.4707 15.6119 15.5362 15.4249 15.6565 15.2745C15.7793 15.1124 15.9584 15.0021 16.1584 14.9653C16.3913 14.9232 16.6543 14.7917 16.6543 14.5448V14.0931H8.87794C8.85385 14.2055 8.76552 14.7094 9.07669 14.9483ZM14.9428 14.9734C14.9537 14.9182 14.9794 14.8671 15.0171 14.8254C15.0548 14.7837 15.1031 14.7531 15.1569 14.7367C15.2107 14.7203 15.2679 14.7189 15.3224 14.7326C15.3769 14.7462 15.4267 14.7744 15.4665 14.8141C15.5062 14.8539 15.5344 14.9037 15.548 14.9582C15.5617 15.0127 15.5602 15.0699 15.5439 15.1237C15.5275 15.1775 15.4969 15.2258 15.4552 15.2635C15.4135 15.3012 15.3624 15.3269 15.3072 15.3378C15.2572 15.3476 15.2056 15.345 15.1569 15.3302C15.1082 15.3154 15.0638 15.2888 15.0278 15.2528C14.9918 15.2168 14.9652 15.1724 14.9504 15.1237C14.9356 15.075 14.933 15.0233 14.9428 14.9734Z" fill="white"/>
<path d="M25.1984 13.9926L27.1296 13.9926C27.4934 13.9926 27.8224 13.7764 27.9668 13.4425L25.7485 13.4425C25.4447 13.4425 25.1984 13.6888 25.1984 13.9926Z" fill="white"/>
<path d="M15.2464 15.243C15.2879 15.243 15.3284 15.2307 15.3629 15.2077C15.3974 15.1846 15.4243 15.1518 15.4402 15.1135C15.4561 15.0752 15.4602 15.033 15.4521 14.9923C15.444 14.9516 15.424 14.9142 15.3947 14.8849C15.3654 14.8555 15.328 14.8356 15.2873 14.8275C15.2466 14.8194 15.2044 14.8235 15.1661 14.8394C15.1277 14.8553 15.095 14.8822 15.0719 14.9167C15.0489 14.9512 15.0366 14.9917 15.0366 15.0332C15.0366 15.0889 15.0587 15.1422 15.098 15.1816C15.1374 15.2209 15.1907 15.243 15.2464 15.243Z" fill="white"/>
<path d="M8.84553 9.69127C8.84536 9.64692 8.83134 9.60373 8.80542 9.56773C8.77951 9.53174 8.74299 9.50474 8.70098 9.49051L8.02041 9.25964C7.99237 9.25026 7.96251 9.24768 7.93327 9.2521C7.90404 9.25652 7.87627 9.26782 7.85226 9.28507C7.82824 9.30232 7.80867 9.32503 7.79515 9.35132C7.78163 9.37761 7.77455 9.40674 7.77448 9.43631C7.77448 9.63367 7.93447 9.79366 8.13183 9.79366L8.74314 9.79366C8.79969 9.79366 8.84553 9.74782 8.84553 9.69127Z" fill="white"/>
<path d="M5.29146 23.9232C5.29171 23.9354 5.29666 23.947 5.30527 23.9556C5.31387 23.9642 5.32547 23.9691 5.33763 23.9694H9.85469C9.86852 23.9695 9.8822 23.9664 9.89471 23.9605C9.90722 23.9546 9.91824 23.946 9.92696 23.9353L10.1468 23.6682H5.29146V23.9232Z" fill="white"/>
<path d="M5.80513 14.7634C6.65069 14.746 6.80175 15.7051 6.82792 16.1083C6.83542 16.2238 6.80737 16.3372 6.75773 16.4418C6.88422 16.4022 6.99938 16.3329 7.09353 16.2396C7.18767 16.1464 7.25806 16.0319 7.29877 15.9057C7.4664 15.3266 7.8087 14.3318 7.89101 14.0929H5H4.56735C4.55675 14.0929 4.54618 14.0941 4.53584 14.0964C4.5255 14.0988 4.51493 14.0999 4.50433 14.0999H3.59077C3.55322 14.1001 3.51609 14.1078 3.48159 14.1226C3.4471 14.1375 3.41595 14.1591 3.39001 14.1863L3.16115 14.4292C3.14499 14.4463 3.13369 14.4674 3.12839 14.4903C3.1231 14.5133 3.12401 14.5372 3.13104 14.5597L3.18624 14.7383C3.18838 14.7455 3.19274 14.7518 3.1987 14.7563C3.20466 14.7608 3.2119 14.7633 3.21937 14.7634C3.42214 14.7664 4.81439 14.7825 5.80513 14.7634Z" fill="white"/>
<path d="M4.96988 12.6394C5.20316 12.6865 5.79018 12.5043 5.83801 12.2712C5.85508 12.1879 5.87067 12.1044 5.88475 12.0206C5.91549 11.8376 5.73008 11.7166 5.63941 11.8785C5.60476 11.9387 5.56109 11.9932 5.50992 12.0401C5.46496 12.08 5.41255 12.1107 5.35571 12.1304C5.29886 12.15 5.2387 12.1582 5.17867 12.1545C4.59748 12.1234 4.42282 11.9648 4.37564 11.8705C4.3746 11.8679 4.3728 11.8656 4.37047 11.864C4.36814 11.8625 4.3654 11.8616 4.36259 11.8616C4.35978 11.8616 4.35704 11.8625 4.35471 11.864C4.35012 11.8672 4.34928 11.8731 4.34878 11.8786C4.33016 12.083 4.32316 12.5146 4.96988 12.6394Z" fill="white"/>
<path d="M11.1794 17.1063C11.1375 17.1061 11.0965 17.1183 11.0615 17.1415C11.0265 17.1646 10.9992 17.1976 10.9831 17.2363C10.9669 17.275 10.9625 17.3176 10.9706 17.3588C10.9786 17.3999 10.9987 17.4378 11.0283 17.4675C11.0579 17.4972 11.0956 17.5175 11.1368 17.5257C11.1779 17.534 11.2205 17.5298 11.2593 17.5138C11.298 17.4978 11.3312 17.4707 11.3545 17.4358C11.3778 17.401 11.3902 17.36 11.3902 17.3181C11.39 17.2622 11.3677 17.2086 11.3283 17.169C11.2888 17.1293 11.2354 17.1068 11.1794 17.1063Z" fill="white"/>
<path d="M11.4124 16.8155C11.3833 16.8046 11.3645 16.775 11.3707 16.7446L11.6327 15.0863H11.0545L9.53777 22.4953C9.52894 22.5388 9.50531 22.5779 9.4709 22.6059C9.43649 22.6339 9.39343 22.6491 9.34906 22.6489L4.12935 22.6489C4.12935 22.685 4.12935 22.7061 4.12935 22.7061C4.12935 23.0363 4.41242 23.3435 4.58708 23.4991C4.63769 23.5432 4.70261 23.5675 4.76977 23.5673H5.29146L10.3528 23.5673C10.4079 23.547 10.4561 23.5113 10.4916 23.4646C10.5272 23.4178 10.5487 23.3619 10.5536 23.3034C10.5571 23.2573 10.548 23.2112 10.5275 23.1698C10.3478 22.7864 10.4452 22.2564 10.4452 22.2564L11.2151 17.9261C11.2222 17.8943 11.2502 17.8721 11.2826 17.8686C11.3618 17.8598 11.4384 17.8336 11.5068 17.7917C11.591 17.7401 11.6595 17.6664 11.705 17.5787C11.7413 17.5092 11.762 17.4326 11.7656 17.3542C11.7693 17.2758 11.7557 17.1976 11.726 17.125C11.6951 17.0456 11.6457 16.9746 11.582 16.9179C11.5321 16.8735 11.4746 16.8388 11.4124 16.8155ZM11.179 17.6299C11.1172 17.6301 11.0567 17.612 11.0053 17.5778C10.9538 17.5436 10.9136 17.4949 10.8898 17.4379C10.8661 17.3809 10.8597 17.3181 10.8717 17.2575C10.8836 17.1968 10.9132 17.1411 10.9569 17.0974C11.0005 17.0536 11.0561 17.0238 11.1167 17.0117C11.1773 16.9995 11.2401 17.0056 11.2972 17.0292C11.3543 17.0528 11.4031 17.0929 11.4375 17.1442C11.4718 17.1956 11.4901 17.256 11.4901 17.3178C11.4899 17.4003 11.457 17.4794 11.3988 17.5379C11.3405 17.5963 11.2615 17.6294 11.179 17.6299Z" fill="white"/>
<path d="M7.38701 15.9328C7.56368 15.3406 7.92103 14.3077 7.98928 14.1069L7.89101 14.0929C7.8087 14.3318 7.4664 15.3266 7.29877 15.9057C7.25806 16.0319 7.18767 16.1464 7.09353 16.2396C6.99938 16.3329 6.88422 16.4022 6.75773 16.4418L6.68938 16.5672C6.95538 16.4879 7.27559 16.3153 7.38701 15.9328Z" fill="white"/>
<path fill-rule="evenodd" clip-rule="evenodd" d="M8.43497 21.8422H6.02587C5.95715 21.8421 5.88951 21.8251 5.82903 21.7924C5.76856 21.7598 5.71714 21.7126 5.67941 21.6552C5.64168 21.5977 5.61883 21.5318 5.6129 21.4634C5.60696 21.3949 5.61815 21.326 5.64544 21.263L7.3318 17.3482C7.38114 17.2285 7.46196 17.1245 7.56568 17.047C7.88087 16.8162 8.07561 16.3625 8.16294 16.1125C8.19153 16.036 8.24279 15.97 8.30987 15.9234C8.37695 15.8767 8.45666 15.8517 8.53836 15.8515H9.51806C9.57733 15.8518 9.6358 15.8653 9.68926 15.8909C9.74273 15.9165 9.78987 15.9536 9.82729 15.9995C9.86472 16.0455 9.8915 16.0992 9.90572 16.1567C9.91994 16.2143 9.92124 16.2742 9.90953 16.3324L8.8415 21.5109C8.82212 21.6044 8.77112 21.6884 8.69708 21.7487C8.62304 21.8091 8.53048 21.8421 8.43497 21.8422ZM8.53865 15.952H9.51835C9.56284 15.9523 9.60671 15.9625 9.64681 15.9817C9.68692 16.001 9.72225 16.0289 9.75028 16.0635C9.7783 16.098 9.79833 16.1384 9.8089 16.1816C9.81948 16.2248 9.82035 16.2698 9.81145 16.3134L8.74242 21.498C8.72749 21.5688 8.68877 21.6323 8.63269 21.6779C8.57661 21.7236 8.50657 21.7487 8.43425 21.7489L6.02516 21.7489C5.97319 21.7488 5.92205 21.7359 5.87633 21.7112C5.83061 21.6865 5.79173 21.6508 5.76317 21.6074C5.7335 21.5636 5.71552 21.5129 5.71096 21.4602C5.70639 21.4075 5.71538 21.3545 5.73707 21.3063L7.42344 17.3915C7.46616 17.2894 7.53549 17.2007 7.6242 17.1345C7.96147 16.8886 8.16524 16.4138 8.25658 16.1528C8.27723 16.0944 8.3154 16.0438 8.36588 16.0078C8.41636 15.9719 8.47669 15.9524 8.53865 15.952Z" fill="white"/>
<path d="M9.01616 15.0284C9.16573 15.1429 10.5389 15.1027 10.9515 15.0887L11.0545 15.0863H11.6327L11.705 14.9817C10.415 14.9856 9.12111 14.9812 9.07669 14.9483C8.76552 14.7094 8.85385 14.2055 8.87794 14.0931L8.77224 14.1069C8.73911 14.2816 8.6809 14.7715 9.01616 15.0284Z" fill="white"/>
<path d="M10.9515 15.0887L9.45682 22.3952C9.44765 22.4385 9.42392 22.4774 9.38958 22.5053C9.35525 22.5333 9.31238 22.5486 9.26811 22.5488H4.11767L4.12935 22.6489L9.34906 22.6489C9.39343 22.6491 9.43649 22.6339 9.4709 22.6059C9.50531 22.5779 9.52894 22.5388 9.53777 22.4953L11.0545 15.0863L10.9515 15.0887Z" fill="white"/>
<path fill-rule="evenodd" clip-rule="evenodd" d="M11.179 17.6299C11.1172 17.6301 11.0567 17.612 11.0053 17.5778C10.9538 17.5436 10.9136 17.4949 10.8898 17.4379C10.8661 17.3809 10.8597 17.3181 10.8717 17.2575C10.8836 17.1968 10.9132 17.1411 10.9569 17.0974C11.0005 17.0536 11.0561 17.0238 11.1167 17.0117C11.1773 16.9995 11.2401 17.0056 11.2972 17.0292C11.3543 17.0528 11.4031 17.0929 11.4375 17.1442C11.4718 17.1956 11.4901 17.256 11.4901 17.3178C11.4899 17.4003 11.457 17.4794 11.3988 17.5379C11.3405 17.5963 11.2615 17.6294 11.179 17.6299ZM11.0615 17.1415C11.0965 17.1183 11.1375 17.1061 11.1794 17.1063C11.2354 17.1068 11.2888 17.1293 11.3283 17.169C11.3677 17.2086 11.39 17.2622 11.3902 17.3181C11.3902 17.36 11.3778 17.401 11.3545 17.4358C11.3312 17.4707 11.298 17.4978 11.2593 17.5138C11.2205 17.5298 11.1779 17.534 11.1368 17.5257C11.0956 17.5175 11.0579 17.4972 11.0283 17.4675C10.9987 17.4378 10.9786 17.3999 10.9706 17.3588C10.9625 17.3176 10.9669 17.275 10.9831 17.2363C10.9992 17.1976 11.0265 17.1646 11.0615 17.1415Z" fill="white"/>
<path fill-rule="evenodd" clip-rule="evenodd" d="M14.9428 14.9734C14.9537 14.9182 14.9794 14.8671 15.0171 14.8254C15.0548 14.7837 15.1031 14.7531 15.1569 14.7367C15.2107 14.7203 15.2679 14.7189 15.3224 14.7326C15.3769 14.7462 15.4267 14.7744 15.4665 14.8141C15.5062 14.8539 15.5344 14.9037 15.548 14.9582C15.5617 15.0127 15.5602 15.0699 15.5439 15.1237C15.5275 15.1775 15.4969 15.2258 15.4552 15.2635C15.4135 15.3012 15.3624 15.3269 15.3072 15.3378C15.2572 15.3476 15.2056 15.345 15.1569 15.3302C15.1082 15.3154 15.0638 15.2888 15.0278 15.2528C14.9918 15.2168 14.9652 15.1724 14.9504 15.1237C14.9356 15.075 14.933 15.0233 14.9428 14.9734ZM15.3629 15.2077C15.3284 15.2307 15.2879 15.243 15.2464 15.243C15.1907 15.243 15.1374 15.2209 15.098 15.1816C15.0587 15.1422 15.0366 15.0889 15.0366 15.0332C15.0366 14.9917 15.0489 14.9512 15.0719 14.9167C15.095 14.8822 15.1277 14.8553 15.1661 14.8394C15.2044 14.8235 15.2466 14.8194 15.2873 14.8275C15.328 14.8356 15.3654 14.8555 15.3947 14.8849C15.424 14.9142 15.444 14.9516 15.4521 14.9923C15.4602 15.033 15.4561 15.0752 15.4402 15.1135C15.4243 15.1518 15.3974 15.1846 15.3629 15.2077Z" fill="white"/>
<path fill-rule="evenodd" clip-rule="evenodd" d="M7.92834 20.0345C7.76467 20.0347 7.60462 19.9863 7.46844 19.8955C7.33227 19.8047 7.2261 19.6755 7.16337 19.5243C7.10064 19.3732 7.08418 19.2068 7.11606 19.0462C7.14794 18.8857 7.22674 18.7382 7.34248 18.6225C7.45821 18.5067 7.60568 18.4279 7.76622 18.3961C7.92676 18.3642 8.09315 18.3806 8.24433 18.4434C8.39551 18.5061 8.52468 18.6123 8.61549 18.7484C8.70629 18.8846 8.75466 19.0447 8.75446 19.2083C8.7542 19.4274 8.66707 19.6373 8.51221 19.7922C8.35734 19.9471 8.14736 20.0342 7.92834 20.0345ZM7.52424 18.6035C7.64389 18.5238 7.78449 18.4813 7.92827 18.4815C8.12076 18.482 8.3052 18.5588 8.44122 18.695C8.57723 18.8312 8.65375 19.0158 8.65401 19.2082C8.65401 19.352 8.61136 19.4926 8.53146 19.6121C8.45156 19.7316 8.338 19.8248 8.20515 19.8798C8.07229 19.9347 7.92612 19.9491 7.78512 19.921C7.64411 19.8928 7.51462 19.8235 7.41303 19.7218C7.31143 19.62 7.24229 19.4905 7.21437 19.3494C7.18644 19.2084 7.20097 19.0622 7.25613 18.9294C7.31129 18.7967 7.4046 18.6832 7.52424 18.6035Z" fill="white"/>
<path d="M5.29146 23.6682H10.1468L10.3528 23.5673L5.29146 23.5673V23.6682Z" fill="white"/>
<path d="M17.8666 11.5779C17.8666 11.0086 18.3286 10.5474 18.8979 10.5485L28.3501 10.5666L28.3499 10.4671L18.8476 10.4481C18.2506 10.447 17.766 10.9306 17.766 11.5277C17.766 12.1238 17.2827 12.6072 16.6865 12.6072H14.1122C14.0042 12.6076 13.8972 12.5866 13.7973 12.5456C13.6974 12.5046 13.6065 12.4443 13.53 12.3681C13.4534 12.2919 13.3927 12.2014 13.3512 12.1017C13.3096 12.002 13.2882 11.8951 13.2881 11.7871V9.98827L13.0903 9.98727V11.7871C13.0909 12.0578 13.1987 12.3173 13.3903 12.5087C13.5818 12.7 13.8414 12.8077 14.1122 12.8079H24.0126C24.6113 12.8079 25.0967 13.2933 25.0967 13.892L25.1984 13.9926C25.1984 13.6888 25.4447 13.4425 25.7485 13.4425L27.9668 13.4425L28.011 13.3422L25.4654 13.3422C25.3179 13.3422 25.1984 13.2226 25.1984 13.0752C25.1984 12.9277 25.3179 12.8082 25.4654 12.8082L28.2419 12.8082L28.3291 12.6073L18.896 12.6073C18.3274 12.6073 17.8666 12.1464 17.8666 11.5779Z" fill="white"/>
<path d="M11.8291 17.3222C11.8285 17.2538 11.8163 17.1859 11.7929 17.1215L11.726 17.125C11.7557 17.1976 11.7693 17.2758 11.7656 17.3542C11.762 17.4326 11.7413 17.5092 11.705 17.5787L11.7749 17.5702C11.8109 17.4925 11.8294 17.4079 11.8291 17.3222Z" fill="white"/>
<path d="M7.98928 14.1069H8.77224L8.87794 14.0931H16.6543V13.892H11.5455H11.3327H10.9432H10.7304H10.341H10.1282H9.73869H9.52589H9.13642H8.92361H8.53414H8.32134H7.93488H7.71907H7.3296H7.11679H6.72732H6.51452H5.24573L5 14.0929H7.89101L7.98928 14.1069Z" fill="white"/>
<path d="M5.30527 23.9556C5.29666 23.947 5.29171 23.9354 5.29146 23.9232V23.6682V23.5673H4.76977C4.70261 23.5675 4.63769 23.5432 4.58708 23.4991C4.75674 23.8984 5.15814 23.979 5.33763 23.9694C5.32547 23.9691 5.31387 23.9642 5.30527 23.9556Z" fill="white"/>
</svg>
