<svg width="31" height="30" viewBox="0 0 31 30" fill="none" xmlns="http://www.w3.org/2000/svg">
<path d="M15.5004 17.9754C17.1434 17.9754 18.4754 16.6434 18.4754 15.0004C18.4754 13.3573 17.1434 12.0254 15.5004 12.0254C13.8573 12.0254 12.5254 13.3573 12.5254 15.0004C12.5254 16.6434 13.8573 17.9754 15.5004 17.9754Z" fill="#EB2BAC"/>
<path d="M25.4999 23.4374C25.2999 23.4374 25.1124 23.3749 24.9374 23.2499C24.5249 22.9374 24.4374 22.3499 24.7499 21.9374C26.2624 19.9249 27.0624 17.5249 27.0624 14.9999C27.0624 12.4749 26.2624 10.0749 24.7499 8.06235C24.4374 7.64985 24.5249 7.06235 24.9374 6.74985C25.3499 6.43735 25.9374 6.52485 26.2499 6.93735C28.0124 9.27485 28.9374 12.0624 28.9374 14.9999C28.9374 17.9374 28.0124 20.7249 26.2499 23.0624C26.0624 23.3124 25.7874 23.4374 25.4999 23.4374Z" fill="#EB2BAC"/>
<path d="M5.5 23.4374C5.2125 23.4374 4.9375 23.3124 4.75 23.0624C2.9875 20.7249 2.0625 17.9374 2.0625 14.9999C2.0625 12.0624 2.9875 9.27485 4.75 6.93735C5.0625 6.52485 5.65 6.43735 6.0625 6.74985C6.475 7.06235 6.5625 7.64985 6.25 8.06235C4.7375 10.0749 3.9375 12.4749 3.9375 14.9999C3.9375 17.5249 4.7375 19.9249 6.25 21.9374C6.5625 22.3499 6.475 22.9374 6.0625 23.2499C5.9 23.3749 5.7 23.4374 5.5 23.4374Z" fill="#EB2BAC"/>
<path d="M21.5003 20.4378C21.3003 20.4378 21.1128 20.3753 20.9378 20.2503C20.5253 19.9378 20.4378 19.3503 20.7503 18.9378C21.6128 17.8003 22.0628 16.4378 22.0628 15.0003C22.0628 13.5628 21.6128 12.2003 20.7503 11.0628C20.4378 10.6503 20.5253 10.0628 20.9378 9.75034C21.3503 9.43784 21.9378 9.52534 22.2503 9.93784C23.3503 11.4128 23.9378 13.1628 23.9378 15.0003C23.9378 16.8378 23.3503 18.6003 22.2503 20.0628C22.0628 20.3128 21.7878 20.4378 21.5003 20.4378Z" fill="#EB2BAC"/>
<path d="M9.5 20.4378C9.2125 20.4378 8.9375 20.3128 8.75 20.0628C7.65 18.6003 7.0625 16.8378 7.0625 15.0003C7.0625 13.1628 7.65 11.4003 8.75 9.93784C9.0625 9.52534 9.65 9.43784 10.0625 9.75034C10.475 10.0628 10.5625 10.6503 10.25 11.0628C9.3875 12.2003 8.9375 13.5628 8.9375 15.0003C8.9375 16.4378 9.3875 17.8003 10.25 18.9378C10.5625 19.3503 10.475 19.9378 10.0625 20.2503C9.9 20.3753 9.7 20.4378 9.5 20.4378Z" fill="#EB2BAC"/>
</svg>
