<svg width="44" height="44" viewBox="0 0 44 44" fill="none" xmlns="http://www.w3.org/2000/svg">
<rect width="44" height="44" rx="10" fill="#F5B0DB"/>
<path d="M31.5599 20.7401L30.1999 19.1601C29.9399 18.8601 29.7299 18.3001 29.7299 17.9001V16.2001C29.7299 15.1401 28.8599 14.2701 27.7999 14.2701H26.0999C25.7099 14.2701 25.1399 14.0601 24.8399 13.8001L23.2599 12.4401C22.5699 11.8501 21.4399 11.8501 20.7399 12.4401L19.1699 13.8101C18.8699 14.0601 18.2999 14.2701 17.9099 14.2701H16.1799C15.1199 14.2701 14.2499 15.1401 14.2499 16.2001V17.9101C14.2499 18.3001 14.0399 18.8601 13.7899 19.1601L12.4399 20.7501C11.8599 21.4401 11.8599 22.5601 12.4399 23.2501L13.7899 24.8401C14.0399 25.1401 14.2499 25.7001 14.2499 26.0901V27.8001C14.2499 28.8601 15.1199 29.7301 16.1799 29.7301H17.9099C18.2999 29.7301 18.8699 29.9401 19.1699 30.2001L20.7499 31.5601C21.4399 32.1501 22.5699 32.1501 23.2699 31.5601L24.8499 30.2001C25.1499 29.9401 25.7099 29.7301 26.1099 29.7301H27.8099C28.8699 29.7301 29.7399 28.8601 29.7399 27.8001V26.1001C29.7399 25.7101 29.9499 25.1401 30.2099 24.8401L31.5699 23.2601C32.1499 22.5701 32.1499 21.4301 31.5599 20.7401ZM26.1599 20.1101L21.3299 24.9401C21.1899 25.0801 20.9999 25.1601 20.7999 25.1601C20.5999 25.1601 20.4099 25.0801 20.2699 24.9401L17.8499 22.5201C17.5599 22.2301 17.5599 21.7501 17.8499 21.4601C18.1399 21.1701 18.6199 21.1701 18.9099 21.4601L20.7999 23.3501L25.0999 19.0501C25.3899 18.7601 25.8699 18.7601 26.1599 19.0501C26.4499 19.3401 26.4499 19.8201 26.1599 20.1101Z" fill="#5A5257"/>
</svg>
