<svg width="75" height="30" viewBox="0 0 75 30" fill="none" xmlns="http://www.w3.org/2000/svg">
<rect width="30" height="30" rx="15" fill="#EB2BAC"/>
<path d="M13.2924 17.5523V10H16.2247V14.1828C18.5706 13.904 20.053 11.2781 20.501 10H23.5554C23.1889 12.6724 20.7657 14.7251 19.5236 15.3447C21.6006 15.9838 24.1663 19.0628 24.1663 20.8056H20.9897C19.8168 17.8312 17.3243 16.9327 16.2247 16.8552V20.8056C9.32165 21.2704 5.65629 15.8095 5.83956 10H8.89402C9.07729 15.4609 12.0096 17.0876 13.2924 17.5523Z" fill="white"/>
<rect x="45" width="30" height="30" rx="15" fill="#EB2BAC"/>
<path fill-rule="evenodd" clip-rule="evenodd" d="M52.7554 14.3606C57.0056 12.5089 59.8397 11.2881 61.2578 10.6983C65.3066 9.01421 66.1479 8.72168 66.6963 8.71202C66.8169 8.70989 67.0865 8.73978 67.2612 8.88152C67.4087 9.0012 67.4493 9.16288 67.4687 9.27635C67.4881 9.38982 67.5123 9.64831 67.4931 9.85029C67.2737 12.1556 66.3243 17.7501 65.8413 20.3321C65.6369 21.4246 65.2345 21.7909 64.845 21.8268C63.9983 21.9047 63.3554 21.2673 62.5354 20.7297C61.2522 19.8886 60.5273 19.365 59.2818 18.5442C57.8423 17.5956 58.7755 17.0743 59.5958 16.2223C59.8105 15.9993 63.5408 12.6062 63.613 12.2984C63.6221 12.2599 63.6304 12.1164 63.5452 12.0407C63.4599 11.9649 63.3341 11.9908 63.2433 12.0114C63.1146 12.0406 61.0648 13.3955 57.0937 16.0761C56.5118 16.4756 55.9848 16.6703 55.5126 16.6601C54.9921 16.6489 53.9907 16.3658 53.2463 16.1238C52.3333 15.827 51.6076 15.6701 51.6708 15.1661C51.7037 14.9035 52.0653 14.635 52.7554 14.3606Z" fill="white"/>
</svg>
