<?xml version="1.0" encoding="utf-8"?>
<svg xmlns="http://www.w3.org/2000/svg">
<symbol id="add-circle" viewBox="0 0 24 24">
<path d="M12 2C6.49 2 2 6.49 2 12C2 17.51 6.49 22 12 22C17.51 22 22 17.51 22 12C22 6.49 17.51 2 12 2ZM16 12.75H12.75V16C12.75 16.41 12.41 16.75 12 16.75C11.59 16.75 11.25 16.41 11.25 16V12.75H8C7.59 12.75 7.25 12.41 7.25 12C7.25 11.59 7.59 11.25 8 11.25H11.25V8C11.25 7.59 11.59 7.25 12 7.25C12.41 7.25 12.75 7.59 12.75 8V11.25H16C16.41 11.25 16.75 11.59 16.75 12C16.75 12.41 16.41 12.75 16 12.75Z" fill="currentColor"/>

</symbol>
<symbol id="box" viewBox="0 0 25 24">
<path d="M2.75 12H11.2115V13.8077C11.2115 14.0838 11.4354 14.3077 11.7115 14.3077H13.7885C14.0646 14.3077 14.2885 14.0838 14.2885 13.8077V12H22.75V18.0385C22.75 19.7378 21.3724 21.1154 19.6731 21.1154H5.82692C4.12759 21.1154 2.75 19.7378 2.75 18.0385V12Z" fill="currentColor"/>
<path d="M2.75 8.92311C2.75 7.22378 4.12759 5.84619 5.82692 5.84619H19.6731C21.3724 5.84619 22.75 7.22378 22.75 8.92311V10.4616H2.75V8.92311Z" fill="currentColor"/>
<rect x="8.51855" y="4.30774" width="1.15385" height="1.53846" fill="currentColor"/>
<rect x="15.8271" y="4.30774" width="1.15385" height="1.53846" fill="currentColor"/>
<path d="M8.51855 4.30774L8.51855 3.48396C8.51855 3.28376 8.63757 3.10307 8.82299 3.02759C9.25074 2.85347 10.0434 2.54327 10.6339 2.38466C12.0135 2.01418 13.4852 2.01418 14.8647 2.38466C15.4553 2.54327 16.2479 2.85347 16.6757 3.02759C16.8611 3.10307 16.9801 3.28376 16.9801 3.48396L16.9801 4.30774L15.8262 4.30774L15.8262 4.20183C15.8262 3.99193 15.6954 3.80354 15.4969 3.73536C15.2777 3.66009 15.0602 3.591 14.8647 3.53851C13.4852 3.16802 12.0135 3.16802 10.6339 3.53851C10.4385 3.591 10.2209 3.66009 10.0018 3.73536C9.80323 3.80354 9.6724 3.99193 9.6724 4.20183L9.6724 4.30774L8.51855 4.30774Z" fill="currentColor"/>

</symbol>
<symbol id="calendar" viewBox="0 0 25 24">
<path d="M17.5002 3.56V2C17.5002 1.59 17.1602 1.25 16.7502 1.25C16.3402 1.25 16.0002 1.59 16.0002 2V3.5H9.50023V2C9.50023 1.59 9.16023 1.25 8.75023 1.25C8.34023 1.25 8.00023 1.59 8.00023 2V3.56C5.30023 3.81 3.99023 5.42 3.79023 7.81C3.77023 8.1 4.01023 8.34 4.29023 8.34H21.2102C21.5002 8.34 21.7402 8.09 21.7102 7.81C21.5102 5.42 20.2002 3.81 17.5002 3.56Z" fill="currentColor"/>
<path d="M20.75 9.84003H4.75C4.2 9.84003 3.75 10.29 3.75 10.84V17C3.75 20 5.25 22 8.75 22H16.75C20.25 22 21.75 20 21.75 17V10.84C21.75 10.29 21.3 9.84003 20.75 9.84003ZM9.96 18.21C9.91 18.25 9.86 18.3 9.81 18.33C9.75 18.37 9.69 18.4 9.63 18.42C9.57 18.45 9.51 18.47 9.45 18.48C9.38 18.49 9.32 18.5 9.25 18.5C9.12 18.5 8.99 18.47 8.87 18.42C8.74 18.37 8.64 18.3 8.54 18.21C8.36 18.02 8.25 17.76 8.25 17.5C8.25 17.24 8.36 16.98 8.54 16.79C8.64 16.7 8.74 16.63 8.87 16.58C9.05 16.5 9.25 16.48 9.45 16.52C9.51 16.53 9.57 16.55 9.63 16.58C9.69 16.6 9.75 16.63 9.81 16.67C9.86 16.71 9.91 16.75 9.96 16.79C10.14 16.98 10.25 17.24 10.25 17.5C10.25 17.76 10.14 18.02 9.96 18.21ZM9.96 14.71C9.77 14.89 9.51 15 9.25 15C8.99 15 8.73 14.89 8.54 14.71C8.36 14.52 8.25 14.26 8.25 14C8.25 13.74 8.36 13.48 8.54 13.29C8.82 13.01 9.26 12.92 9.63 13.08C9.76 13.13 9.87 13.2 9.96 13.29C10.14 13.48 10.25 13.74 10.25 14C10.25 14.26 10.14 14.52 9.96 14.71ZM13.46 18.21C13.27 18.39 13.01 18.5 12.75 18.5C12.49 18.5 12.23 18.39 12.04 18.21C11.86 18.02 11.75 17.76 11.75 17.5C11.75 17.24 11.86 16.98 12.04 16.79C12.41 16.42 13.09 16.42 13.46 16.79C13.64 16.98 13.75 17.24 13.75 17.5C13.75 17.76 13.64 18.02 13.46 18.21ZM13.46 14.71C13.41 14.75 13.36 14.79 13.31 14.83C13.25 14.87 13.19 14.9 13.13 14.92C13.07 14.95 13.01 14.97 12.95 14.98C12.88 14.99 12.82 15 12.75 15C12.49 15 12.23 14.89 12.04 14.71C11.86 14.52 11.75 14.26 11.75 14C11.75 13.74 11.86 13.48 12.04 13.29C12.13 13.2 12.24 13.13 12.37 13.08C12.74 12.92 13.18 13.01 13.46 13.29C13.64 13.48 13.75 13.74 13.75 14C13.75 14.26 13.64 14.52 13.46 14.71ZM16.96 18.21C16.77 18.39 16.51 18.5 16.25 18.5C15.99 18.5 15.73 18.39 15.54 18.21C15.36 18.02 15.25 17.76 15.25 17.5C15.25 17.24 15.36 16.98 15.54 16.79C15.91 16.42 16.59 16.42 16.96 16.79C17.14 16.98 17.25 17.24 17.25 17.5C17.25 17.76 17.14 18.02 16.96 18.21ZM16.96 14.71C16.91 14.75 16.86 14.79 16.81 14.83C16.75 14.87 16.69 14.9 16.63 14.92C16.57 14.95 16.51 14.97 16.45 14.98C16.38 14.99 16.31 15 16.25 15C15.99 15 15.73 14.89 15.54 14.71C15.36 14.52 15.25 14.26 15.25 14C15.25 13.74 15.36 13.48 15.54 13.29C15.64 13.2 15.74 13.13 15.87 13.08C16.05 13 16.25 12.98 16.45 13.02C16.51 13.03 16.57 13.05 16.63 13.08C16.69 13.1 16.75 13.13 16.81 13.17C16.86 13.21 16.91 13.25 16.96 13.29C17.14 13.48 17.25 13.74 17.25 14C17.25 14.26 17.14 14.52 16.96 14.71Z" fill="currentColor"/>

</symbol>
<symbol id="cup" viewBox="0 0 20 20">
<path d="M9.375 15.2083H7.5C6.58333 15.2083 5.83333 15.9583 5.83333 16.8749V17.0833H5C4.65833 17.0833 4.375 17.3666 4.375 17.7083C4.375 18.0499 4.65833 18.3333 5 18.3333H15C15.3417 18.3333 15.625 18.0499 15.625 17.7083C15.625 17.3666 15.3417 17.0833 15 17.0833H14.1667V16.8749C14.1667 15.9583 13.4167 15.2083 12.5 15.2083H10.625V13.2999C10.4167 13.3249 10.2083 13.3333 10 13.3333C9.79167 13.3333 9.58333 13.3249 9.375 13.2999V15.2083Z" fill="currentColor"/>
<path d="M15.4004 9.69996C15.9504 9.49163 16.4337 9.14996 16.8171 8.76663C17.5921 7.90829 18.1004 6.88329 18.1004 5.68329C18.1004 4.48329 17.1587 3.54163 15.9587 3.54163H15.4921C14.9504 2.43329 13.8171 1.66663 12.5004 1.66663H7.50039C6.18372 1.66663 5.05039 2.43329 4.50872 3.54163H4.04206C2.84206 3.54163 1.90039 4.48329 1.90039 5.68329C1.90039 6.88329 2.40872 7.90829 3.18372 8.76663C3.56706 9.14996 4.05039 9.49163 4.60039 9.69996C5.46706 11.8333 7.55039 13.3333 10.0004 13.3333C12.4504 13.3333 14.5337 11.8333 15.4004 9.69996ZM12.3671 7.04163L11.8504 7.67496C11.7671 7.76663 11.7087 7.94996 11.7171 8.07496L11.7671 8.89163C11.8004 9.39163 11.4421 9.64996 10.9754 9.46663L10.2171 9.16663C10.1004 9.12496 9.90039 9.12496 9.78372 9.16663L9.02539 9.46663C8.55872 9.64996 8.20039 9.39163 8.23372 8.89163L8.28372 8.07496C8.29206 7.94996 8.23372 7.76663 8.15039 7.67496L7.63372 7.04163C7.30872 6.65829 7.45039 6.23329 7.93372 6.10829L8.72539 5.90829C8.85039 5.87496 9.00039 5.75829 9.06706 5.64996L9.50872 4.96663C9.78372 4.54163 10.2171 4.54163 10.4921 4.96663L10.9337 5.64996C11.0004 5.75829 11.1504 5.87496 11.2754 5.90829L12.0671 6.10829C12.5504 6.23329 12.6921 6.65829 12.3671 7.04163Z" fill="currentColor"/>

</symbol>
<symbol id="flash" viewBox="0 0 25 24">
<path d="M10.0699 13.28H13.1599V20.48C13.1599 21.54 14.4799 22.04 15.1799 21.24L22.7499 12.64C23.4099 11.89 22.8799 10.72 21.8799 10.72H18.7899V3.51997C18.7899 2.45997 17.4699 1.95997 16.7699 2.75997L9.19994 11.36C8.54994 12.11 9.07994 13.28 10.0699 13.28Z" fill="currentColor"/>
<path d="M9.25 4.75H2.25C1.84 4.75 1.5 4.41 1.5 4C1.5 3.59 1.84 3.25 2.25 3.25H9.25C9.66 3.25 10 3.59 10 4C10 4.41 9.66 4.75 9.25 4.75Z" fill="currentColor"/>
<path d="M8.25 20.75H2.25C1.84 20.75 1.5 20.41 1.5 20C1.5 19.59 1.84 19.25 2.25 19.25H8.25C8.66 19.25 9 19.59 9 20C9 20.41 8.66 20.75 8.25 20.75Z" fill="currentColor"/>
<path d="M5.25 12.75H2.25C1.84 12.75 1.5 12.41 1.5 12C1.5 11.59 1.84 11.25 2.25 11.25H5.25C5.66 11.25 6 11.59 6 12C6 12.41 5.66 12.75 5.25 12.75Z" fill="currentColor"/>

</symbol>
<symbol id="magic-star" viewBox="0 0 25 24">
<path d="M18.0403 4.13998L17.9703 7.92998C17.9603 8.44998 18.2903 9.13998 18.7103 9.44998L21.1903 11.33C22.7803 12.53 22.5203 14 20.6203 14.6L17.3903 15.61C16.8503 15.78 16.2803 16.37 16.1403 16.92L15.3703 19.86C14.7603 22.18 13.2403 22.41 11.9803 20.37L10.2203 17.52C9.90027 17 9.14027 16.61 8.54027 16.64L5.20027 16.81C2.81027 16.93 2.13027 15.55 3.69027 13.73L5.67027 11.43C6.04027 11 6.21027 10.2 6.04027 9.65998L5.02027 6.41998C4.43027 4.51998 5.49027 3.46998 7.38027 4.08998L10.3303 5.05998C10.8303 5.21998 11.5803 5.10998 12.0003 4.79998L15.0803 2.57998C16.7503 1.38998 18.0803 2.08998 18.0403 4.13998Z" fill="currentColor"/>
<path d="M22.1903 20.47L19.1603 17.44C18.8703 17.15 18.3903 17.15 18.1003 17.44C17.8103 17.73 17.8103 18.21 18.1003 18.5L21.1303 21.53C21.2803 21.68 21.4703 21.75 21.6603 21.75C21.8503 21.75 22.0403 21.68 22.1903 21.53C22.4803 21.24 22.4803 20.76 22.1903 20.47Z" fill="currentColor"/>

</symbol>
<symbol id="next" viewBox="0 0 20 20">
<path d="M3.13281 6.01667V13.9917C3.13281 15.625 4.90781 16.65 6.32448 15.8333L9.78281 13.8417L13.2411 11.8417C14.6578 11.025 14.6578 8.98334 13.2411 8.16667L9.78281 6.16667L6.32448 4.17501C4.90781 3.35834 3.13281 4.37501 3.13281 6.01667Z" fill="currentColor"/>
<path d="M16.8672 15.7751C16.5255 15.7751 16.2422 15.4918 16.2422 15.1501V4.8501C16.2422 4.50843 16.5255 4.2251 16.8672 4.2251C17.2089 4.2251 17.4922 4.50843 17.4922 4.8501V15.1501C17.4922 15.4918 17.2172 15.7751 16.8672 15.7751Z" fill="currentColor"/>

</symbol>
<symbol id="radar" viewBox="0 0 24 24">
<path d="M12.0001 14.38C13.3146 14.38 14.3801 13.3144 14.3801 12C14.3801 10.6856 13.3146 9.62 12.0001 9.62C10.6857 9.62 9.62012 10.6856 9.62012 12C9.62012 13.3144 10.6857 14.38 12.0001 14.38Z" fill="currentColor"/>
<path d="M20.0003 18.75C19.8403 18.75 19.6903 18.7 19.5503 18.6C19.2203 18.35 19.1503 17.88 19.4003 17.55C20.6103 15.94 21.2503 14.02 21.2503 12C21.2503 9.98003 20.6103 8.06003 19.4003 6.45003C19.1503 6.12003 19.2203 5.65003 19.5503 5.40003C19.8803 5.15003 20.3503 5.22003 20.6003 5.55003C22.0103 7.42003 22.7503 9.65003 22.7503 12C22.7503 14.35 22.0103 16.58 20.6003 18.45C20.4503 18.65 20.2303 18.75 20.0003 18.75Z" fill="currentColor"/>
<path d="M4 18.75C3.77 18.75 3.55 18.65 3.4 18.45C1.99 16.58 1.25 14.35 1.25 12C1.25 9.65003 1.99 7.42003 3.4 5.55003C3.65 5.22003 4.12 5.15003 4.45 5.40003C4.78 5.65003 4.85 6.12003 4.6 6.45003C3.39 8.06003 2.75 9.98003 2.75 12C2.75 14.02 3.39 15.94 4.6 17.55C4.85 17.88 4.78 18.35 4.45 18.6C4.32 18.7 4.16 18.75 4 18.75Z" fill="currentColor"/>
<path d="M16.8001 16.3501C16.6401 16.3501 16.4901 16.3001 16.3501 16.2001C16.0201 15.9501 15.9501 15.4801 16.2001 15.1501C16.8901 14.2401 17.2501 13.1501 17.2501 12.0001C17.2501 10.8501 16.8901 9.76005 16.2001 8.85005C15.9501 8.52005 16.0201 8.05005 16.3501 7.80005C16.6801 7.55005 17.1501 7.62005 17.4001 7.95005C18.2801 9.13005 18.7501 10.5301 18.7501 12.0001C18.7501 13.4701 18.2801 14.8801 17.4001 16.0501C17.2501 16.2501 17.0301 16.3501 16.8001 16.3501Z" fill="currentColor"/>
<path d="M7.2 16.3501C6.97 16.3501 6.75 16.2501 6.6 16.0501C5.72 14.8801 5.25 13.4701 5.25 12.0001C5.25 10.5301 5.72 9.12005 6.6 7.95005C6.85 7.62005 7.32 7.55005 7.65 7.80005C7.98 8.05005 8.05 8.52005 7.8 8.85005C7.11 9.76005 6.75 10.8501 6.75 12.0001C6.75 13.1501 7.11 14.2401 7.8 15.1501C8.05 15.4801 7.98 15.9501 7.65 16.2001C7.52 16.3001 7.36 16.3501 7.2 16.3501Z" fill="currentColor"/>

</symbol>
<symbol id="sprite">
<symbol id="add-circle" viewBox="0 0 24 24">
<path d="M12 2C6.49 2 2 6.49 2 12C2 17.51 6.49 22 12 22C17.51 22 22 17.51 22 12C22 6.49 17.51 2 12 2ZM16 12.75H12.75V16C12.75 16.41 12.41 16.75 12 16.75C11.59 16.75 11.25 16.41 11.25 16V12.75H8C7.59 12.75 7.25 12.41 7.25 12C7.25 11.59 7.59 11.25 8 11.25H11.25V8C11.25 7.59 11.59 7.25 12 7.25C12.41 7.25 12.75 7.59 12.75 8V11.25H16C16.41 11.25 16.75 11.59 16.75 12C16.75 12.41 16.41 12.75 16 12.75Z" fill="currentColor"/>

</symbol>
<symbol id="box" viewBox="0 0 25 24">
<path d="M2.75 12H11.2115V13.8077C11.2115 14.0838 11.4354 14.3077 11.7115 14.3077H13.7885C14.0646 14.3077 14.2885 14.0838 14.2885 13.8077V12H22.75V18.0385C22.75 19.7378 21.3724 21.1154 19.6731 21.1154H5.82692C4.12759 21.1154 2.75 19.7378 2.75 18.0385V12Z" fill="currentColor"/>
<path d="M2.75 8.92311C2.75 7.22378 4.12759 5.84619 5.82692 5.84619H19.6731C21.3724 5.84619 22.75 7.22378 22.75 8.92311V10.4616H2.75V8.92311Z" fill="currentColor"/>
<rect x="8.51855" y="4.30774" width="1.15385" height="1.53846" fill="currentColor"/>
<rect x="15.8271" y="4.30774" width="1.15385" height="1.53846" fill="currentColor"/>
<path d="M8.51855 4.30774L8.51855 3.48396C8.51855 3.28376 8.63757 3.10307 8.82299 3.02759C9.25074 2.85347 10.0434 2.54327 10.6339 2.38466C12.0135 2.01418 13.4852 2.01418 14.8647 2.38466C15.4553 2.54327 16.2479 2.85347 16.6757 3.02759C16.8611 3.10307 16.9801 3.28376 16.9801 3.48396L16.9801 4.30774L15.8262 4.30774L15.8262 4.20183C15.8262 3.99193 15.6954 3.80354 15.4969 3.73536C15.2777 3.66009 15.0602 3.591 14.8647 3.53851C13.4852 3.16802 12.0135 3.16802 10.6339 3.53851C10.4385 3.591 10.2209 3.66009 10.0018 3.73536C9.80323 3.80354 9.6724 3.99193 9.6724 4.20183L9.6724 4.30774L8.51855 4.30774Z" fill="currentColor"/>

</symbol>
<symbol id="calendar" viewBox="0 0 25 24">
<path d="M17.5002 3.56V2C17.5002 1.59 17.1602 1.25 16.7502 1.25C16.3402 1.25 16.0002 1.59 16.0002 2V3.5H9.50023V2C9.50023 1.59 9.16023 1.25 8.75023 1.25C8.34023 1.25 8.00023 1.59 8.00023 2V3.56C5.30023 3.81 3.99023 5.42 3.79023 7.81C3.77023 8.1 4.01023 8.34 4.29023 8.34H21.2102C21.5002 8.34 21.7402 8.09 21.7102 7.81C21.5102 5.42 20.2002 3.81 17.5002 3.56Z" fill="currentColor"/>
<path d="M20.75 9.84003H4.75C4.2 9.84003 3.75 10.29 3.75 10.84V17C3.75 20 5.25 22 8.75 22H16.75C20.25 22 21.75 20 21.75 17V10.84C21.75 10.29 21.3 9.84003 20.75 9.84003ZM9.96 18.21C9.91 18.25 9.86 18.3 9.81 18.33C9.75 18.37 9.69 18.4 9.63 18.42C9.57 18.45 9.51 18.47 9.45 18.48C9.38 18.49 9.32 18.5 9.25 18.5C9.12 18.5 8.99 18.47 8.87 18.42C8.74 18.37 8.64 18.3 8.54 18.21C8.36 18.02 8.25 17.76 8.25 17.5C8.25 17.24 8.36 16.98 8.54 16.79C8.64 16.7 8.74 16.63 8.87 16.58C9.05 16.5 9.25 16.48 9.45 16.52C9.51 16.53 9.57 16.55 9.63 16.58C9.69 16.6 9.75 16.63 9.81 16.67C9.86 16.71 9.91 16.75 9.96 16.79C10.14 16.98 10.25 17.24 10.25 17.5C10.25 17.76 10.14 18.02 9.96 18.21ZM9.96 14.71C9.77 14.89 9.51 15 9.25 15C8.99 15 8.73 14.89 8.54 14.71C8.36 14.52 8.25 14.26 8.25 14C8.25 13.74 8.36 13.48 8.54 13.29C8.82 13.01 9.26 12.92 9.63 13.08C9.76 13.13 9.87 13.2 9.96 13.29C10.14 13.48 10.25 13.74 10.25 14C10.25 14.26 10.14 14.52 9.96 14.71ZM13.46 18.21C13.27 18.39 13.01 18.5 12.75 18.5C12.49 18.5 12.23 18.39 12.04 18.21C11.86 18.02 11.75 17.76 11.75 17.5C11.75 17.24 11.86 16.98 12.04 16.79C12.41 16.42 13.09 16.42 13.46 16.79C13.64 16.98 13.75 17.24 13.75 17.5C13.75 17.76 13.64 18.02 13.46 18.21ZM13.46 14.71C13.41 14.75 13.36 14.79 13.31 14.83C13.25 14.87 13.19 14.9 13.13 14.92C13.07 14.95 13.01 14.97 12.95 14.98C12.88 14.99 12.82 15 12.75 15C12.49 15 12.23 14.89 12.04 14.71C11.86 14.52 11.75 14.26 11.75 14C11.75 13.74 11.86 13.48 12.04 13.29C12.13 13.2 12.24 13.13 12.37 13.08C12.74 12.92 13.18 13.01 13.46 13.29C13.64 13.48 13.75 13.74 13.75 14C13.75 14.26 13.64 14.52 13.46 14.71ZM16.96 18.21C16.77 18.39 16.51 18.5 16.25 18.5C15.99 18.5 15.73 18.39 15.54 18.21C15.36 18.02 15.25 17.76 15.25 17.5C15.25 17.24 15.36 16.98 15.54 16.79C15.91 16.42 16.59 16.42 16.96 16.79C17.14 16.98 17.25 17.24 17.25 17.5C17.25 17.76 17.14 18.02 16.96 18.21ZM16.96 14.71C16.91 14.75 16.86 14.79 16.81 14.83C16.75 14.87 16.69 14.9 16.63 14.92C16.57 14.95 16.51 14.97 16.45 14.98C16.38 14.99 16.31 15 16.25 15C15.99 15 15.73 14.89 15.54 14.71C15.36 14.52 15.25 14.26 15.25 14C15.25 13.74 15.36 13.48 15.54 13.29C15.64 13.2 15.74 13.13 15.87 13.08C16.05 13 16.25 12.98 16.45 13.02C16.51 13.03 16.57 13.05 16.63 13.08C16.69 13.1 16.75 13.13 16.81 13.17C16.86 13.21 16.91 13.25 16.96 13.29C17.14 13.48 17.25 13.74 17.25 14C17.25 14.26 17.14 14.52 16.96 14.71Z" fill="currentColor"/>

</symbol>
<symbol id="cup" viewBox="0 0 20 20">
<path d="M9.375 15.2083H7.5C6.58333 15.2083 5.83333 15.9583 5.83333 16.8749V17.0833H5C4.65833 17.0833 4.375 17.3666 4.375 17.7083C4.375 18.0499 4.65833 18.3333 5 18.3333H15C15.3417 18.3333 15.625 18.0499 15.625 17.7083C15.625 17.3666 15.3417 17.0833 15 17.0833H14.1667V16.8749C14.1667 15.9583 13.4167 15.2083 12.5 15.2083H10.625V13.2999C10.4167 13.3249 10.2083 13.3333 10 13.3333C9.79167 13.3333 9.58333 13.3249 9.375 13.2999V15.2083Z" fill="currentColor"/>
<path d="M15.4004 9.69996C15.9504 9.49163 16.4337 9.14996 16.8171 8.76663C17.5921 7.90829 18.1004 6.88329 18.1004 5.68329C18.1004 4.48329 17.1587 3.54163 15.9587 3.54163H15.4921C14.9504 2.43329 13.8171 1.66663 12.5004 1.66663H7.50039C6.18372 1.66663 5.05039 2.43329 4.50872 3.54163H4.04206C2.84206 3.54163 1.90039 4.48329 1.90039 5.68329C1.90039 6.88329 2.40872 7.90829 3.18372 8.76663C3.56706 9.14996 4.05039 9.49163 4.60039 9.69996C5.46706 11.8333 7.55039 13.3333 10.0004 13.3333C12.4504 13.3333 14.5337 11.8333 15.4004 9.69996ZM12.3671 7.04163L11.8504 7.67496C11.7671 7.76663 11.7087 7.94996 11.7171 8.07496L11.7671 8.89163C11.8004 9.39163 11.4421 9.64996 10.9754 9.46663L10.2171 9.16663C10.1004 9.12496 9.90039 9.12496 9.78372 9.16663L9.02539 9.46663C8.55872 9.64996 8.20039 9.39163 8.23372 8.89163L8.28372 8.07496C8.29206 7.94996 8.23372 7.76663 8.15039 7.67496L7.63372 7.04163C7.30872 6.65829 7.45039 6.23329 7.93372 6.10829L8.72539 5.90829C8.85039 5.87496 9.00039 5.75829 9.06706 5.64996L9.50872 4.96663C9.78372 4.54163 10.2171 4.54163 10.4921 4.96663L10.9337 5.64996C11.0004 5.75829 11.1504 5.87496 11.2754 5.90829L12.0671 6.10829C12.5504 6.23329 12.6921 6.65829 12.3671 7.04163Z" fill="currentColor"/>

</symbol>
<symbol id="flash" viewBox="0 0 25 24">
<path d="M10.0699 13.28H13.1599V20.48C13.1599 21.54 14.4799 22.04 15.1799 21.24L22.7499 12.64C23.4099 11.89 22.8799 10.72 21.8799 10.72H18.7899V3.51997C18.7899 2.45997 17.4699 1.95997 16.7699 2.75997L9.19994 11.36C8.54994 12.11 9.07994 13.28 10.0699 13.28Z" fill="currentColor"/>
<path d="M9.25 4.75H2.25C1.84 4.75 1.5 4.41 1.5 4C1.5 3.59 1.84 3.25 2.25 3.25H9.25C9.66 3.25 10 3.59 10 4C10 4.41 9.66 4.75 9.25 4.75Z" fill="currentColor"/>
<path d="M8.25 20.75H2.25C1.84 20.75 1.5 20.41 1.5 20C1.5 19.59 1.84 19.25 2.25 19.25H8.25C8.66 19.25 9 19.59 9 20C9 20.41 8.66 20.75 8.25 20.75Z" fill="currentColor"/>
<path d="M5.25 12.75H2.25C1.84 12.75 1.5 12.41 1.5 12C1.5 11.59 1.84 11.25 2.25 11.25H5.25C5.66 11.25 6 11.59 6 12C6 12.41 5.66 12.75 5.25 12.75Z" fill="currentColor"/>

</symbol>
<symbol id="magic-star" viewBox="0 0 25 24">
<path d="M18.0403 4.13998L17.9703 7.92998C17.9603 8.44998 18.2903 9.13998 18.7103 9.44998L21.1903 11.33C22.7803 12.53 22.5203 14 20.6203 14.6L17.3903 15.61C16.8503 15.78 16.2803 16.37 16.1403 16.92L15.3703 19.86C14.7603 22.18 13.2403 22.41 11.9803 20.37L10.2203 17.52C9.90027 17 9.14027 16.61 8.54027 16.64L5.20027 16.81C2.81027 16.93 2.13027 15.55 3.69027 13.73L5.67027 11.43C6.04027 11 6.21027 10.2 6.04027 9.65998L5.02027 6.41998C4.43027 4.51998 5.49027 3.46998 7.38027 4.08998L10.3303 5.05998C10.8303 5.21998 11.5803 5.10998 12.0003 4.79998L15.0803 2.57998C16.7503 1.38998 18.0803 2.08998 18.0403 4.13998Z" fill="currentColor"/>
<path d="M22.1903 20.47L19.1603 17.44C18.8703 17.15 18.3903 17.15 18.1003 17.44C17.8103 17.73 17.8103 18.21 18.1003 18.5L21.1303 21.53C21.2803 21.68 21.4703 21.75 21.6603 21.75C21.8503 21.75 22.0403 21.68 22.1903 21.53C22.4803 21.24 22.4803 20.76 22.1903 20.47Z" fill="currentColor"/>

</symbol>
<symbol id="radar" viewBox="0 0 24 24">
<path d="M12.0001 14.38C13.3146 14.38 14.3801 13.3144 14.3801 12C14.3801 10.6856 13.3146 9.62 12.0001 9.62C10.6857 9.62 9.62012 10.6856 9.62012 12C9.62012 13.3144 10.6857 14.38 12.0001 14.38Z" fill="currentColor"/>
<path d="M20.0003 18.75C19.8403 18.75 19.6903 18.7 19.5503 18.6C19.2203 18.35 19.1503 17.88 19.4003 17.55C20.6103 15.94 21.2503 14.02 21.2503 12C21.2503 9.98003 20.6103 8.06003 19.4003 6.45003C19.1503 6.12003 19.2203 5.65003 19.5503 5.40003C19.8803 5.15003 20.3503 5.22003 20.6003 5.55003C22.0103 7.42003 22.7503 9.65003 22.7503 12C22.7503 14.35 22.0103 16.58 20.6003 18.45C20.4503 18.65 20.2303 18.75 20.0003 18.75Z" fill="currentColor"/>
<path d="M4 18.75C3.77 18.75 3.55 18.65 3.4 18.45C1.99 16.58 1.25 14.35 1.25 12C1.25 9.65003 1.99 7.42003 3.4 5.55003C3.65 5.22003 4.12 5.15003 4.45 5.40003C4.78 5.65003 4.85 6.12003 4.6 6.45003C3.39 8.06003 2.75 9.98003 2.75 12C2.75 14.02 3.39 15.94 4.6 17.55C4.85 17.88 4.78 18.35 4.45 18.6C4.32 18.7 4.16 18.75 4 18.75Z" fill="currentColor"/>
<path d="M16.8001 16.3501C16.6401 16.3501 16.4901 16.3001 16.3501 16.2001C16.0201 15.9501 15.9501 15.4801 16.2001 15.1501C16.8901 14.2401 17.2501 13.1501 17.2501 12.0001C17.2501 10.8501 16.8901 9.76005 16.2001 8.85005C15.9501 8.52005 16.0201 8.05005 16.3501 7.80005C16.6801 7.55005 17.1501 7.62005 17.4001 7.95005C18.2801 9.13005 18.7501 10.5301 18.7501 12.0001C18.7501 13.4701 18.2801 14.8801 17.4001 16.0501C17.2501 16.2501 17.0301 16.3501 16.8001 16.3501Z" fill="currentColor"/>
<path d="M7.2 16.3501C6.97 16.3501 6.75 16.2501 6.6 16.0501C5.72 14.8801 5.25 13.4701 5.25 12.0001C5.25 10.5301 5.72 9.12005 6.6 7.95005C6.85 7.62005 7.32 7.55005 7.65 7.80005C7.98 8.05005 8.05 8.52005 7.8 8.85005C7.11 9.76005 6.75 10.8501 6.75 12.0001C6.75 13.1501 7.11 14.2401 7.8 15.1501C8.05 15.4801 7.98 15.9501 7.65 16.2001C7.52 16.3001 7.36 16.3501 7.2 16.3501Z" fill="currentColor"/>

</symbol>
<symbol id="sprite">
<symbol id="add-circle" viewBox="0 0 24 24">
<path d="M12 2C6.49 2 2 6.49 2 12C2 17.51 6.49 22 12 22C17.51 22 22 17.51 22 12C22 6.49 17.51 2 12 2ZM16 12.75H12.75V16C12.75 16.41 12.41 16.75 12 16.75C11.59 16.75 11.25 16.41 11.25 16V12.75H8C7.59 12.75 7.25 12.41 7.25 12C7.25 11.59 7.59 11.25 8 11.25H11.25V8C11.25 7.59 11.59 7.25 12 7.25C12.41 7.25 12.75 7.59 12.75 8V11.25H16C16.41 11.25 16.75 11.59 16.75 12C16.75 12.41 16.41 12.75 16 12.75Z" fill="currentColor"/>

</symbol>
<symbol id="box" viewBox="0 0 25 24">
<path d="M2.75 12H11.2115V13.8077C11.2115 14.0838 11.4354 14.3077 11.7115 14.3077H13.7885C14.0646 14.3077 14.2885 14.0838 14.2885 13.8077V12H22.75V18.0385C22.75 19.7378 21.3724 21.1154 19.6731 21.1154H5.82692C4.12759 21.1154 2.75 19.7378 2.75 18.0385V12Z" fill="currentColor"/>
<path d="M2.75 8.92311C2.75 7.22378 4.12759 5.84619 5.82692 5.84619H19.6731C21.3724 5.84619 22.75 7.22378 22.75 8.92311V10.4616H2.75V8.92311Z" fill="currentColor"/>
<rect x="8.51855" y="4.30774" width="1.15385" height="1.53846" fill="currentColor"/>
<rect x="15.8271" y="4.30774" width="1.15385" height="1.53846" fill="currentColor"/>
<path d="M8.51855 4.30774L8.51855 3.48396C8.51855 3.28376 8.63757 3.10307 8.82299 3.02759C9.25074 2.85347 10.0434 2.54327 10.6339 2.38466C12.0135 2.01418 13.4852 2.01418 14.8647 2.38466C15.4553 2.54327 16.2479 2.85347 16.6757 3.02759C16.8611 3.10307 16.9801 3.28376 16.9801 3.48396L16.9801 4.30774L15.8262 4.30774L15.8262 4.20183C15.8262 3.99193 15.6954 3.80354 15.4969 3.73536C15.2777 3.66009 15.0602 3.591 14.8647 3.53851C13.4852 3.16802 12.0135 3.16802 10.6339 3.53851C10.4385 3.591 10.2209 3.66009 10.0018 3.73536C9.80323 3.80354 9.6724 3.99193 9.6724 4.20183L9.6724 4.30774L8.51855 4.30774Z" fill="currentColor"/>

</symbol>
<symbol id="calendar" viewBox="0 0 25 24">
<path d="M17.5002 3.56V2C17.5002 1.59 17.1602 1.25 16.7502 1.25C16.3402 1.25 16.0002 1.59 16.0002 2V3.5H9.50023V2C9.50023 1.59 9.16023 1.25 8.75023 1.25C8.34023 1.25 8.00023 1.59 8.00023 2V3.56C5.30023 3.81 3.99023 5.42 3.79023 7.81C3.77023 8.1 4.01023 8.34 4.29023 8.34H21.2102C21.5002 8.34 21.7402 8.09 21.7102 7.81C21.5102 5.42 20.2002 3.81 17.5002 3.56Z" fill="currentColor"/>
<path d="M20.75 9.84003H4.75C4.2 9.84003 3.75 10.29 3.75 10.84V17C3.75 20 5.25 22 8.75 22H16.75C20.25 22 21.75 20 21.75 17V10.84C21.75 10.29 21.3 9.84003 20.75 9.84003ZM9.96 18.21C9.91 18.25 9.86 18.3 9.81 18.33C9.75 18.37 9.69 18.4 9.63 18.42C9.57 18.45 9.51 18.47 9.45 18.48C9.38 18.49 9.32 18.5 9.25 18.5C9.12 18.5 8.99 18.47 8.87 18.42C8.74 18.37 8.64 18.3 8.54 18.21C8.36 18.02 8.25 17.76 8.25 17.5C8.25 17.24 8.36 16.98 8.54 16.79C8.64 16.7 8.74 16.63 8.87 16.58C9.05 16.5 9.25 16.48 9.45 16.52C9.51 16.53 9.57 16.55 9.63 16.58C9.69 16.6 9.75 16.63 9.81 16.67C9.86 16.71 9.91 16.75 9.96 16.79C10.14 16.98 10.25 17.24 10.25 17.5C10.25 17.76 10.14 18.02 9.96 18.21ZM9.96 14.71C9.77 14.89 9.51 15 9.25 15C8.99 15 8.73 14.89 8.54 14.71C8.36 14.52 8.25 14.26 8.25 14C8.25 13.74 8.36 13.48 8.54 13.29C8.82 13.01 9.26 12.92 9.63 13.08C9.76 13.13 9.87 13.2 9.96 13.29C10.14 13.48 10.25 13.74 10.25 14C10.25 14.26 10.14 14.52 9.96 14.71ZM13.46 18.21C13.27 18.39 13.01 18.5 12.75 18.5C12.49 18.5 12.23 18.39 12.04 18.21C11.86 18.02 11.75 17.76 11.75 17.5C11.75 17.24 11.86 16.98 12.04 16.79C12.41 16.42 13.09 16.42 13.46 16.79C13.64 16.98 13.75 17.24 13.75 17.5C13.75 17.76 13.64 18.02 13.46 18.21ZM13.46 14.71C13.41 14.75 13.36 14.79 13.31 14.83C13.25 14.87 13.19 14.9 13.13 14.92C13.07 14.95 13.01 14.97 12.95 14.98C12.88 14.99 12.82 15 12.75 15C12.49 15 12.23 14.89 12.04 14.71C11.86 14.52 11.75 14.26 11.75 14C11.75 13.74 11.86 13.48 12.04 13.29C12.13 13.2 12.24 13.13 12.37 13.08C12.74 12.92 13.18 13.01 13.46 13.29C13.64 13.48 13.75 13.74 13.75 14C13.75 14.26 13.64 14.52 13.46 14.71ZM16.96 18.21C16.77 18.39 16.51 18.5 16.25 18.5C15.99 18.5 15.73 18.39 15.54 18.21C15.36 18.02 15.25 17.76 15.25 17.5C15.25 17.24 15.36 16.98 15.54 16.79C15.91 16.42 16.59 16.42 16.96 16.79C17.14 16.98 17.25 17.24 17.25 17.5C17.25 17.76 17.14 18.02 16.96 18.21ZM16.96 14.71C16.91 14.75 16.86 14.79 16.81 14.83C16.75 14.87 16.69 14.9 16.63 14.92C16.57 14.95 16.51 14.97 16.45 14.98C16.38 14.99 16.31 15 16.25 15C15.99 15 15.73 14.89 15.54 14.71C15.36 14.52 15.25 14.26 15.25 14C15.25 13.74 15.36 13.48 15.54 13.29C15.64 13.2 15.74 13.13 15.87 13.08C16.05 13 16.25 12.98 16.45 13.02C16.51 13.03 16.57 13.05 16.63 13.08C16.69 13.1 16.75 13.13 16.81 13.17C16.86 13.21 16.91 13.25 16.96 13.29C17.14 13.48 17.25 13.74 17.25 14C17.25 14.26 17.14 14.52 16.96 14.71Z" fill="currentColor"/>

</symbol>
<symbol id="flash" viewBox="0 0 25 24">
<path d="M10.0699 13.28H13.1599V20.48C13.1599 21.54 14.4799 22.04 15.1799 21.24L22.7499 12.64C23.4099 11.89 22.8799 10.72 21.8799 10.72H18.7899V3.51997C18.7899 2.45997 17.4699 1.95997 16.7699 2.75997L9.19994 11.36C8.54994 12.11 9.07994 13.28 10.0699 13.28Z" fill="currentColor"/>
<path d="M9.25 4.75H2.25C1.84 4.75 1.5 4.41 1.5 4C1.5 3.59 1.84 3.25 2.25 3.25H9.25C9.66 3.25 10 3.59 10 4C10 4.41 9.66 4.75 9.25 4.75Z" fill="currentColor"/>
<path d="M8.25 20.75H2.25C1.84 20.75 1.5 20.41 1.5 20C1.5 19.59 1.84 19.25 2.25 19.25H8.25C8.66 19.25 9 19.59 9 20C9 20.41 8.66 20.75 8.25 20.75Z" fill="currentColor"/>
<path d="M5.25 12.75H2.25C1.84 12.75 1.5 12.41 1.5 12C1.5 11.59 1.84 11.25 2.25 11.25H5.25C5.66 11.25 6 11.59 6 12C6 12.41 5.66 12.75 5.25 12.75Z" fill="currentColor"/>

</symbol>
<symbol id="magic-star" viewBox="0 0 25 24">
<path d="M18.0403 4.13998L17.9703 7.92998C17.9603 8.44998 18.2903 9.13998 18.7103 9.44998L21.1903 11.33C22.7803 12.53 22.5203 14 20.6203 14.6L17.3903 15.61C16.8503 15.78 16.2803 16.37 16.1403 16.92L15.3703 19.86C14.7603 22.18 13.2403 22.41 11.9803 20.37L10.2203 17.52C9.90027 17 9.14027 16.61 8.54027 16.64L5.20027 16.81C2.81027 16.93 2.13027 15.55 3.69027 13.73L5.67027 11.43C6.04027 11 6.21027 10.2 6.04027 9.65998L5.02027 6.41998C4.43027 4.51998 5.49027 3.46998 7.38027 4.08998L10.3303 5.05998C10.8303 5.21998 11.5803 5.10998 12.0003 4.79998L15.0803 2.57998C16.7503 1.38998 18.0803 2.08998 18.0403 4.13998Z" fill="currentColor"/>
<path d="M22.1903 20.47L19.1603 17.44C18.8703 17.15 18.3903 17.15 18.1003 17.44C17.8103 17.73 17.8103 18.21 18.1003 18.5L21.1303 21.53C21.2803 21.68 21.4703 21.75 21.6603 21.75C21.8503 21.75 22.0403 21.68 22.1903 21.53C22.4803 21.24 22.4803 20.76 22.1903 20.47Z" fill="currentColor"/>

</symbol>
<symbol id="radar" viewBox="0 0 24 24">
<path d="M12.0001 14.38C13.3146 14.38 14.3801 13.3144 14.3801 12C14.3801 10.6856 13.3146 9.62 12.0001 9.62C10.6857 9.62 9.62012 10.6856 9.62012 12C9.62012 13.3144 10.6857 14.38 12.0001 14.38Z" fill="currentColor"/>
<path d="M20.0003 18.75C19.8403 18.75 19.6903 18.7 19.5503 18.6C19.2203 18.35 19.1503 17.88 19.4003 17.55C20.6103 15.94 21.2503 14.02 21.2503 12C21.2503 9.98003 20.6103 8.06003 19.4003 6.45003C19.1503 6.12003 19.2203 5.65003 19.5503 5.40003C19.8803 5.15003 20.3503 5.22003 20.6003 5.55003C22.0103 7.42003 22.7503 9.65003 22.7503 12C22.7503 14.35 22.0103 16.58 20.6003 18.45C20.4503 18.65 20.2303 18.75 20.0003 18.75Z" fill="currentColor"/>
<path d="M4 18.75C3.77 18.75 3.55 18.65 3.4 18.45C1.99 16.58 1.25 14.35 1.25 12C1.25 9.65003 1.99 7.42003 3.4 5.55003C3.65 5.22003 4.12 5.15003 4.45 5.40003C4.78 5.65003 4.85 6.12003 4.6 6.45003C3.39 8.06003 2.75 9.98003 2.75 12C2.75 14.02 3.39 15.94 4.6 17.55C4.85 17.88 4.78 18.35 4.45 18.6C4.32 18.7 4.16 18.75 4 18.75Z" fill="currentColor"/>
<path d="M16.8001 16.3501C16.6401 16.3501 16.4901 16.3001 16.3501 16.2001C16.0201 15.9501 15.9501 15.4801 16.2001 15.1501C16.8901 14.2401 17.2501 13.1501 17.2501 12.0001C17.2501 10.8501 16.8901 9.76005 16.2001 8.85005C15.9501 8.52005 16.0201 8.05005 16.3501 7.80005C16.6801 7.55005 17.1501 7.62005 17.4001 7.95005C18.2801 9.13005 18.7501 10.5301 18.7501 12.0001C18.7501 13.4701 18.2801 14.8801 17.4001 16.0501C17.2501 16.2501 17.0301 16.3501 16.8001 16.3501Z" fill="currentColor"/>
<path d="M7.2 16.3501C6.97 16.3501 6.75 16.2501 6.6 16.0501C5.72 14.8801 5.25 13.4701 5.25 12.0001C5.25 10.5301 5.72 9.12005 6.6 7.95005C6.85 7.62005 7.32 7.55005 7.65 7.80005C7.98 8.05005 8.05 8.52005 7.8 8.85005C7.11 9.76005 6.75 10.8501 6.75 12.0001C6.75 13.1501 7.11 14.2401 7.8 15.1501C8.05 15.4801 7.98 15.9501 7.65 16.2001C7.52 16.3001 7.36 16.3501 7.2 16.3501Z" fill="currentColor"/>

</symbol>
</symbol>
</symbol></svg>