<svg width="24" height="24" viewBox="0 0 24 24" fill="none" xmlns="http://www.w3.org/2000/svg">
<path d="M11.9792 0C5.66441 0 0.491279 4.85674 0 11.0283L6.44284 13.6854C6.98861 13.3126 7.64855 13.0955 8.35779 13.0955C8.4218 13.0955 8.48494 13.0972 8.54721 13.1006L11.4127 8.95773V8.8996C11.4127 6.40669 13.4462 4.37799 15.9458 4.37799C18.4454 4.37799 20.4789 6.40669 20.4789 8.8996C20.4789 11.3925 18.4454 13.4221 15.9458 13.4221C15.9112 13.4221 15.8775 13.4212 15.8429 13.4204L11.7561 16.3279C11.7587 16.3818 11.7604 16.4356 11.7604 16.4886C11.7604 18.3609 10.2338 19.8835 8.35779 19.8835C6.71097 19.8835 5.33314 18.7105 5.02177 17.158L0.413435 15.2576C1.84057 20.2904 6.47657 23.9802 11.9792 23.9802C18.6184 23.9802 24 18.6114 24 11.9901C24 5.36797 18.6184 0 11.9792 0ZM7.533 18.193L6.05657 17.5843C6.31777 18.128 6.771 18.5828 7.37212 18.8324C8.67124 19.3727 10.1693 18.7581 10.7107 17.4612C10.9728 16.8337 10.9745 16.1412 10.7151 15.512C10.4556 14.8828 9.96517 14.392 9.33637 14.1304C8.71103 13.8714 8.04157 13.8808 7.45342 14.1022L8.97916 14.7314C9.93749 15.1298 10.3907 16.2275 9.99112 17.1833C9.59239 18.1391 8.49134 18.5914 7.533 18.193ZM18.9665 8.89969C18.9665 7.2386 17.6111 5.88613 15.9461 5.88613C14.2803 5.88613 12.925 7.2386 12.925 8.89969C12.925 10.5608 14.2803 11.9124 15.9461 11.9124C17.6111 11.9124 18.9665 10.5608 18.9665 8.89969ZM13.6818 8.89456C13.6818 7.64468 14.6981 6.63161 15.9505 6.63161C17.2037 6.63161 18.22 7.64468 18.22 8.89456C18.22 10.1444 17.2037 11.1575 15.9505 11.1575C14.6981 11.1575 13.6818 10.1444 13.6818 8.89456Z" fill="#5A5257"/>
</svg>
