<svg width="24" height="19" viewBox="0 0 24 19" fill="none" xmlns="http://www.w3.org/2000/svg">
<path fill-rule="evenodd" clip-rule="evenodd" d="M1.58604 8.17938C7.77922 5.49804 11.909 3.73034 13.9753 2.87627C19.8751 0.437736 21.101 0.0141366 21.9001 0.000149138C22.0758 -0.00292726 22.4688 0.0403535 22.7233 0.245594C22.9382 0.418895 22.9973 0.653001 23.0256 0.817309C23.0539 0.981618 23.0892 1.35592 23.0612 1.64838C22.7415 4.98655 21.3581 13.0874 20.6543 16.8262C20.3565 18.4082 19.7701 18.9387 19.2024 18.9906C17.9687 19.1034 17.0319 18.1804 15.837 17.402C13.9672 16.184 12.9109 15.4259 11.096 14.2373C8.99847 12.8638 10.3582 12.1089 11.5535 10.8751C11.8664 10.5522 17.3021 5.63905 17.4073 5.19335C17.4205 5.13761 17.4327 4.92982 17.3084 4.82011C17.1842 4.71039 17.0009 4.74791 16.8686 4.77775C16.6811 4.82004 13.6941 6.78196 7.90757 10.6635C7.05972 11.242 6.29177 11.5239 5.6037 11.5091C4.84517 11.4929 3.38605 11.0829 2.30135 10.7326C0.970915 10.3028 -0.0864867 10.0756 0.00558927 9.34573C0.0535481 8.96558 0.580365 8.57679 1.58604 8.17938Z" fill="white"/>
</svg>
