<svg width="31" height="30" viewBox="0 0 31 30" fill="none" xmlns="http://www.w3.org/2000/svg">
<path d="M15.5004 21.6873C16.6257 21.6873 17.5379 20.7751 17.5379 19.6498C17.5379 18.5245 16.6257 17.6123 15.5004 17.6123C14.3751 17.6123 13.4629 18.5245 13.4629 19.6498C13.4629 20.7751 14.3751 21.6873 15.5004 21.6873Z" fill="#EB2BAC"/>
<path d="M21.3125 11.8H9.6875C9.5875 11.8 9.5 11.8 9.4 11.8V10.35C9.4 6.6875 10.4375 4.25 15.5 4.25C20.9125 4.25 21.6 6.8875 21.6 9.1875C21.6 9.675 21.9875 10.0625 22.475 10.0625C22.9625 10.0625 23.35 9.675 23.35 9.1875C23.35 4.75 20.7125 2.5 15.5 2.5C8.4625 2.5 7.65 6.975 7.65 10.35V11.9125C4.15 12.35 3 14.125 3 18.4875V20.8125C3 25.9375 4.5625 27.5 9.6875 27.5H21.3125C26.4375 27.5 28 25.9375 28 20.8125V18.4875C28 13.3625 26.4375 11.8 21.3125 11.8ZM15.5 23.425C13.4125 23.425 11.725 21.725 11.725 19.65C11.725 17.5625 13.425 15.875 15.5 15.875C17.575 15.875 19.275 17.575 19.275 19.65C19.275 21.7375 17.5875 23.425 15.5 23.425Z" fill="#EB2BAC"/>
</svg>
