<svg width="111" height="136" viewBox="0 0 111 136" fill="none" xmlns="http://www.w3.org/2000/svg">
<path fill-rule="evenodd" clip-rule="evenodd" d="M0.748374 29.6613C-1.97225 53.4599 5.26626 107.982 55.9854 135.683C95.3107 111.94 103.637 80.7761 104.957 77.1486C104.462 76.5715 103.609 76.0676 102.153 75.4998C100.885 75.0048 99.268 74.6753 98.2786 74.5105C96.5473 80.8586 90.463 96.1765 79.9762 106.663C69.6708 99.9854 59.6952 87.1243 69.8357 75.4173C77.7503 67.0906 93.6618 69.5639 96.8771 69.8936C93.8432 67.7831 88.1381 66.0463 85.6648 65.4417C91.2435 64.3699 103.654 64.8151 108.666 75.17C111.222 68.3272 112.294 55.2187 89.2099 49.1179C94.2389 43.5942 90.9412 36.8339 74.4525 31.8873C57.9639 26.9407 43.0417 24.6323 33.3134 17.6246C23.585 10.6169 22.1011 3.36192 22.4308 0.311523C20.04 2.94971 8.99259 26.9407 45.1027 39.8018C26.8003 38.5652 19.9575 36.8339 15.3407 24.385C11.3175 25.6381 3.93614 28.4247 0.748374 29.6613ZM67.5273 119.112L72.5563 114.743C70.4953 113.424 64.6583 108.988 57.799 101.799C45.9931 88.5423 49.6921 73.2463 53.0173 67.2554C49.802 69.7837 43.7672 77.7752 45.3501 89.5151C47.2628 103.3 60.9318 114.99 67.5273 119.112ZM23.3377 74.5105C16.9401 88.7566 28.4767 103.421 35.0447 108.972C29.3561 100.233 24.7393 90.3396 28.779 77.1486C32.0107 66.5959 44.5806 57.3623 50.4616 54.0645C44.0859 54.9439 29.7353 60.2643 23.3377 74.5105ZM81.3778 48.2935C77.6184 44.7319 66.6204 42.6324 61.5914 42.0278C59.5303 41.7432 67.8571 44.1713 68.9288 45.7378C70.4128 48.2935 70.5777 50.1072 72.9686 50.6019C75.3594 51.0966 82.3671 49.1179 81.3778 48.2935ZM16.0003 80.0341C8.28358 61.6988 7.94831 42.8248 8.74526 35.6797C10.5315 34.7728 14.8626 33.0415 17.8965 33.3713C20.4522 42.3576 26.0583 44.2538 32.6538 47.8813C20.2049 55.9607 14.5987 64.5348 16.0003 80.0341Z" fill="url(#paint0_linear_254_3766)"/>
<path d="M109.821 54.3119C110.205 48.1286 110.678 34.7068 109.491 30.4858C103.225 27.2705 83.1091 17.6246 48.4005 19.7681C65.3838 25.5392 95.3107 29.9911 102.401 35.8446C102.862 39.0104 102.593 46.0126 102.401 49.1179C104.572 50.437 109.095 53.3225 109.821 54.3119Z" fill="url(#paint1_linear_254_3766)"/>
<defs>
<linearGradient id="paint0_linear_254_3766" x1="55" y1="-24.5002" x2="55" y2="136" gradientUnits="userSpaceOnUse">
<stop stop-color="#EB2BAC"/>
<stop offset="1" stop-color="#1A1016" stop-opacity="0"/>
</linearGradient>
<linearGradient id="paint1_linear_254_3766" x1="55" y1="-24.5002" x2="55" y2="136" gradientUnits="userSpaceOnUse">
<stop stop-color="#EB2BAC"/>
<stop offset="1" stop-color="#1A1016" stop-opacity="0"/>
</linearGradient>
</defs>
</svg>
