<svg width="30" height="30" viewBox="0 0 30 30" fill="none" xmlns="http://www.w3.org/2000/svg">
<path d="M11.25 2.5C7.975 2.5 5.3125 5.1625 5.3125 8.4375C5.3125 11.65 7.825 14.25 11.1 14.3625C11.2 14.35 11.3 14.35 11.375 14.3625C11.4 14.3625 11.4125 14.3625 11.4375 14.3625C11.45 14.3625 11.45 14.3625 11.4625 14.3625C14.6625 14.25 17.175 11.65 17.1875 8.4375C17.1875 5.1625 14.525 2.5 11.25 2.5Z" fill="#EB2BAC"/>
<path d="M17.6002 17.6871C14.1127 15.3621 8.4252 15.3621 4.9127 17.6871C3.3252 18.7496 2.4502 20.1871 2.4502 21.7246C2.4502 23.2621 3.3252 24.6871 4.9002 25.7371C6.6502 26.9121 8.9502 27.4996 11.2502 27.4996C13.5502 27.4996 15.8502 26.9121 17.6002 25.7371C19.1752 24.6746 20.0502 23.2496 20.0502 21.6996C20.0377 20.1621 19.1752 18.7371 17.6002 17.6871Z" fill="#EB2BAC"/>
<path d="M24.9877 9.17512C25.1877 11.6001 23.4627 13.7251 21.0752 14.0126C21.0627 14.0126 21.0627 14.0126 21.0502 14.0126H21.0127C20.9377 14.0126 20.8627 14.0126 20.8002 14.0376C19.5877 14.1001 18.4752 13.7126 17.6377 13.0001C18.9252 11.8501 19.6627 10.1251 19.5127 8.25012C19.4252 7.23762 19.0752 6.31262 18.5502 5.52512C19.0252 5.28762 19.5752 5.13762 20.1377 5.08762C22.5877 4.87512 24.7752 6.70012 24.9877 9.17512Z" fill="#EB2BAC"/>
<path d="M27.4878 20.7375C27.3878 21.95 26.6128 23 25.3128 23.7125C24.0628 24.4 22.4878 24.725 20.9253 24.6875C21.8253 23.875 22.3503 22.8625 22.4503 21.7875C22.5753 20.2375 21.8378 18.75 20.3628 17.5625C19.5253 16.9 18.5503 16.375 17.4878 15.9875C20.2503 15.1875 23.7253 15.725 25.8628 17.45C27.0128 18.375 27.6003 19.5375 27.4878 20.7375Z" fill="#EB2BAC"/>
</svg>
