<svg width="44" height="44" viewBox="0 0 44 44" fill="none" xmlns="http://www.w3.org/2000/svg">
<circle cx="22" cy="22" r="22" fill="#EB2BAC"/>
<path d="M31.5599 20.7396L30.1999 19.1596C29.9399 18.8596 29.7299 18.2996 29.7299 17.8996V16.1996C29.7299 15.1396 28.8599 14.2696 27.7999 14.2696H26.0999C25.7099 14.2696 25.1399 14.0596 24.8399 13.7996L23.2599 12.4396C22.5699 11.8496 21.4399 11.8496 20.7399 12.4396L19.1699 13.8096C18.8699 14.0596 18.2999 14.2696 17.9099 14.2696H16.1799C15.1199 14.2696 14.2499 15.1396 14.2499 16.1996V17.9096C14.2499 18.2996 14.0399 18.8596 13.7899 19.1596L12.4399 20.7496C11.8599 21.4396 11.8599 22.5596 12.4399 23.2496L13.7899 24.8396C14.0399 25.1396 14.2499 25.6996 14.2499 26.0896V27.7996C14.2499 28.8596 15.1199 29.7296 16.1799 29.7296H17.9099C18.2999 29.7296 18.8699 29.9396 19.1699 30.1996L20.7499 31.5596C21.4399 32.1496 22.5699 32.1496 23.2699 31.5596L24.8499 30.1996C25.1499 29.9396 25.7099 29.7296 26.1099 29.7296H27.8099C28.8699 29.7296 29.7399 28.8596 29.7399 27.7996V26.0996C29.7399 25.7096 29.9499 25.1396 30.2099 24.8396L31.5699 23.2596C32.1499 22.5696 32.1499 21.4296 31.5599 20.7396ZM26.1599 20.1096L21.3299 24.9396C21.1899 25.0796 20.9999 25.1596 20.7999 25.1596C20.5999 25.1596 20.4099 25.0796 20.2699 24.9396L17.8499 22.5196C17.5599 22.2296 17.5599 21.7496 17.8499 21.4596C18.1399 21.1696 18.6199 21.1696 18.9099 21.4596L20.7999 23.3496L25.0999 19.0496C25.3899 18.7596 25.8699 18.7596 26.1599 19.0496C26.4499 19.3396 26.4499 19.8196 26.1599 20.1096Z" fill="white"/>
</svg>
