<svg width="30" height="31" viewBox="0 0 30 31" fill="none" xmlns="http://www.w3.org/2000/svg">
<path d="M18.5625 5.4375V10.1875H16.6875V5.4375C16.6875 5.1 16.3875 4.9375 16.1875 4.9375C16.125 4.9375 16.0625 4.95 16 4.975L6.0875 8.7125C5.425 8.9625 5 9.5875 5 10.3V11.1375C3.8625 11.9875 3.125 13.35 3.125 14.8875V10.3C3.125 8.8125 4.0375 7.4875 5.425 6.9625L15.35 3.2125C15.625 3.1125 15.9125 3.0625 16.1875 3.0625C17.4375 3.0625 18.5625 4.075 18.5625 5.4375Z" fill="#5A5257"/>
<path d="M26.8749 18.625V19.875C26.8749 20.2125 26.6124 20.4875 26.2624 20.5H24.4374C23.7749 20.5 23.1749 20.0125 23.1249 19.3625C23.0874 18.975 23.2374 18.6125 23.4874 18.3625C23.7124 18.125 24.0249 18 24.3624 18H26.2499C26.6124 18.0125 26.8749 18.2875 26.8749 18.625Z" fill="#5A5257"/>
<path d="M24.35 16.6875H25.625C26.3125 16.6875 26.875 16.125 26.875 15.4375V14.8875C26.875 12.3 24.7625 10.1875 22.175 10.1875H7.825C6.7625 10.1875 5.7875 10.5375 5 11.1375C3.8625 11.9875 3.125 13.35 3.125 14.8875V23.3C3.125 25.8875 5.2375 28 7.825 28H22.175C24.7625 28 26.875 25.8875 26.875 23.3V23.0625C26.875 22.375 26.3125 21.8125 25.625 21.8125H24.5375C23.3375 21.8125 22.1875 21.075 21.875 19.9125C21.6125 18.9625 21.925 18.05 22.55 17.4375C23.0125 16.9625 23.65 16.6875 24.35 16.6875ZM17.5 16.4375H8.75C8.2375 16.4375 7.8125 16.0125 7.8125 15.5C7.8125 14.9875 8.2375 14.5625 8.75 14.5625H17.5C18.0125 14.5625 18.4375 14.9875 18.4375 15.5C18.4375 16.0125 18.0125 16.4375 17.5 16.4375Z" fill="#5A5257"/>
</svg>
