<svg width="139" height="44" viewBox="0 0 139 44" fill="none" xmlns="http://www.w3.org/2000/svg">
<path fill-rule="evenodd" clip-rule="evenodd" d="M0.160083 9.53959C-0.724205 17.2749 1.62854 34.9963 18.1138 44C30.8957 36.2826 33.6022 26.1535 34.0309 24.9744C33.8702 24.7868 33.5929 24.6231 33.1199 24.4385C32.7075 24.2776 32.182 24.1705 31.8604 24.1169C31.2977 26.1803 29.3201 31.1591 25.9116 34.5676C22.562 32.3971 19.3196 28.2168 22.6156 24.4117C25.1881 21.7052 30.3598 22.5091 31.4049 22.6163C30.4188 21.9303 28.5644 21.3658 27.7605 21.1693C29.5738 20.8209 33.6076 20.9657 35.2368 24.3313C36.0675 22.1072 36.4158 17.8465 28.9128 15.8636C30.5474 14.0682 29.4755 11.8709 24.1162 10.2631C18.7569 8.6553 13.9067 7.90499 10.7447 5.62728C7.5827 3.34957 7.10036 0.991474 7.20755 0C6.43045 0.857491 2.83971 8.6553 14.5766 12.8356C8.62777 12.4336 6.40365 11.8709 4.90304 7.8246C3.59537 8.23191 1.19621 9.13764 0.160083 9.53959ZM21.8653 38.6139L23.4999 37.1937C22.83 36.7649 20.9328 35.3233 18.7033 32.9866C14.866 28.6777 16.0683 23.706 17.1491 21.7588C16.104 22.5806 14.1425 25.1781 14.657 28.9939C15.2787 33.4743 19.7216 37.2741 21.8653 38.6139ZM7.50231 24.1169C5.4229 28.7474 9.17263 33.5136 11.3074 35.3179C9.45846 32.4775 7.95785 29.2619 9.27089 24.9744C10.3213 21.5445 14.4069 18.5432 16.3184 17.4714C14.2461 17.7572 9.58173 19.4865 7.50231 24.1169ZM26.3671 15.5956C25.1452 14.438 21.5705 13.7556 19.9359 13.5591C19.266 13.4666 21.9725 14.2558 22.3208 14.7649C22.8032 15.5956 22.8568 16.1851 23.6339 16.3459C24.411 16.5067 26.6887 15.8636 26.3671 15.5956ZM5.11742 25.9123C2.60926 19.9527 2.50028 13.8181 2.75932 11.4957C3.33991 11.201 4.74762 10.6382 5.73374 10.7454C6.56443 13.6663 8.3866 14.2826 10.5303 15.4616C6.48404 18.0877 4.66187 20.8745 5.11742 25.9123Z" fill="#EB2BAC"/>
<path d="M35.6119 17.5518C35.737 15.542 35.8906 11.1795 35.5047 9.80755C33.4682 8.76248 26.9298 5.62728 15.6485 6.324C21.1686 8.19976 30.8957 9.64677 33.2002 11.5493C33.3503 12.5783 33.2628 14.8542 33.2002 15.8636C33.9059 16.2923 35.3761 17.2302 35.6119 17.5518Z" fill="#EB2BAC"/>
<path d="M102.966 36.3974H98.4468V17.3403H102.966V36.3974Z" fill="url(#paint0_linear_212_1452)"/>
<path d="M122.249 23.2909L118.257 23.5922C117.73 22.0857 116.148 20.7299 114.114 20.7299C112.081 20.7299 108.992 21.7844 108.992 26.4545C108.992 31.1247 111.403 33.2338 114.114 33.2338C116.284 33.2338 117.931 31.426 118.483 30.5221H122.475C122.475 32.5558 119.462 36.9247 114.114 36.9247C108.766 36.9247 104.623 33.0078 104.623 28.0364C104.623 23.0649 106.506 16.9636 114.114 16.9636C120.201 16.9636 122.074 21.1818 122.249 23.2909Z" fill="url(#paint1_linear_212_1452)"/>
<path d="M50.3896 36.3974H54.9091V20.8805L58.2987 17.3403H54.9091V14.026C54.9091 12.5195 56.1896 11.7662 57.7714 11.7662C59.0369 11.7662 60.2571 12.2182 60.7091 12.4442V8.37662C60.4329 8.25108 59.4587 8 57.7714 8C55.6623 8 50.3896 9.05455 50.3896 14.026V17.3403L47 20.8805H50.3896V36.3974Z" fill="url(#paint2_linear_212_1452)"/>
<path d="M126.995 30.5221C127.196 31.5264 128.275 33.5351 130.987 33.5351C134.377 33.5351 135.431 29.8442 132.494 29.1662C129.556 28.4883 123.756 27.5 123.756 23.2818C123.856 19.4592 125.488 16.9636 130.384 16.9636C133.576 16.9636 135.872 18.052 137.083 19.7696L134 22.9896C133.975 22.1108 133.247 20.3532 130.535 20.3532C127.145 20.3532 126.242 23.7429 130.384 24.4961C134.527 25.2494 138.519 26.1532 138.519 30.5221C138.519 34.8909 134.979 37 130.987 37C128.23 37 125.364 35.85 123.856 33.7983L123.912 33.7421L126.995 30.5221Z" fill="url(#paint3_linear_212_1452)"/>
<path fill-rule="evenodd" clip-rule="evenodd" d="M77.4312 30.7481H73.3636C72.9117 31.6178 71.3751 33.3574 68.8442 33.3574C65.6805 33.3574 63.7974 30.8234 63.7974 28.0364H73.3636L76.7532 24.4961L77.1783 24.0711C76.4493 20.6188 74.2294 16.9636 68.8442 16.9636C59.5246 16.9636 59.5702 26.1858 59.5788 27.9151C59.579 27.9606 59.5792 28.0015 59.5792 28.0364C59.5792 29.3922 60.2571 36.9247 68.8442 36.9247C75.7138 36.9247 77.4312 32.8069 77.4312 30.7481ZM73.3636 24.9481H63.7974C64.0234 23.4164 65.3491 20.3532 68.8442 20.3532C72.3392 20.3532 73.3134 23.4164 73.3636 24.9481Z" fill="url(#paint4_linear_212_1452)"/>
<path d="M103.719 11.8416C103.719 13.5056 102.371 14.8545 100.706 14.8545C99.0425 14.8545 97.6935 13.5056 97.6935 11.8416C97.6935 10.1775 99.0425 8.82857 100.706 8.82857C102.371 8.82857 103.719 10.1775 103.719 11.8416Z" fill="url(#paint5_linear_212_1452)"/>
<path d="M83.3818 17.3403V19.9766C83.8338 18.9723 85.6265 16.9636 89.1818 16.9636C93.626 16.9636 96.187 20.1273 96.187 24.6468V36.3974H91.5922V24.6468C91.5922 20.4286 88.1273 20.7299 87.826 20.7299C87.5247 20.7299 84.0597 20.6545 83.6078 25.3247C83.5368 26.4248 83.532 29.0592 83.5503 31.6341V36.3974H78.9377V21.9351L79.9922 20.8805L83.3818 17.3403Z" fill="url(#paint6_linear_212_1452)"/>
<defs>
<linearGradient id="paint0_linear_212_1452" x1="138.519" y1="22.5" x2="47" y2="22.5" gradientUnits="userSpaceOnUse">
<stop stop-color="white"/>
<stop offset="1" stop-color="#EB2BAC"/>
</linearGradient>
<linearGradient id="paint1_linear_212_1452" x1="138.519" y1="22.5" x2="47" y2="22.5" gradientUnits="userSpaceOnUse">
<stop stop-color="white"/>
<stop offset="1" stop-color="#EB2BAC"/>
</linearGradient>
<linearGradient id="paint2_linear_212_1452" x1="138.519" y1="22.5" x2="47" y2="22.5" gradientUnits="userSpaceOnUse">
<stop stop-color="white"/>
<stop offset="1" stop-color="#EB2BAC"/>
</linearGradient>
<linearGradient id="paint3_linear_212_1452" x1="138.519" y1="22.5" x2="47" y2="22.5" gradientUnits="userSpaceOnUse">
<stop stop-color="white"/>
<stop offset="1" stop-color="#EB2BAC"/>
</linearGradient>
<linearGradient id="paint4_linear_212_1452" x1="138.519" y1="22.5" x2="47" y2="22.5" gradientUnits="userSpaceOnUse">
<stop stop-color="white"/>
<stop offset="1" stop-color="#EB2BAC"/>
</linearGradient>
<linearGradient id="paint5_linear_212_1452" x1="138.519" y1="22.5" x2="47" y2="22.5" gradientUnits="userSpaceOnUse">
<stop stop-color="white"/>
<stop offset="1" stop-color="#EB2BAC"/>
</linearGradient>
<linearGradient id="paint6_linear_212_1452" x1="138.519" y1="22.5" x2="47" y2="22.5" gradientUnits="userSpaceOnUse">
<stop stop-color="white"/>
<stop offset="1" stop-color="#EB2BAC"/>
</linearGradient>
</defs>
</svg>
