<svg width="143" height="44" viewBox="0 0 143 44" fill="none" xmlns="http://www.w3.org/2000/svg">
<path d="M58.7045 16.5455V19.7273H48.3864V16.5455H58.7045ZM50.9659 34V14.8977C50.9659 13.7235 51.2083 12.7462 51.6932 11.9659C52.1856 11.1856 52.8447 10.6023 53.6705 10.2159C54.4962 9.82954 55.4129 9.63636 56.4205 9.63636C57.1326 9.63636 57.7652 9.69318 58.3182 9.80682C58.8712 9.92045 59.2803 10.0227 59.5455 10.1136L58.7273 13.2955C58.553 13.2424 58.3333 13.1894 58.0682 13.1364C57.803 13.0758 57.5076 13.0455 57.1818 13.0455C56.4167 13.0455 55.875 13.2311 55.5568 13.6023C55.2462 13.9659 55.0909 14.4886 55.0909 15.1705V34H50.9659ZM68.9972 34.3409C67.2472 34.3409 65.7358 33.9773 64.4631 33.25C63.1979 32.5152 62.2244 31.4773 61.5426 30.1364C60.8608 28.7879 60.5199 27.2008 60.5199 25.375C60.5199 23.5795 60.8608 22.0038 61.5426 20.6477C62.232 19.2841 63.1941 18.2235 64.429 17.4659C65.6638 16.7008 67.1146 16.3182 68.7812 16.3182C69.857 16.3182 70.8722 16.4924 71.8267 16.8409C72.7888 17.1818 73.6373 17.7121 74.3722 18.4318C75.1146 19.1515 75.6979 20.0682 76.1222 21.1818C76.5464 22.2879 76.7585 23.6061 76.7585 25.1364V26.3977H62.4517V23.625H72.8153C72.8078 22.8371 72.6373 22.1364 72.304 21.5227C71.9706 20.9015 71.5047 20.4129 70.9062 20.0568C70.3153 19.7008 69.6259 19.5227 68.8381 19.5227C67.9972 19.5227 67.2585 19.7273 66.6222 20.1364C65.9858 20.5379 65.4896 21.0682 65.1335 21.7273C64.785 22.3788 64.607 23.0947 64.5994 23.875V26.2955C64.5994 27.3106 64.785 28.1818 65.1562 28.9091C65.5275 29.6288 66.0464 30.1818 66.7131 30.5682C67.3797 30.947 68.16 31.1364 69.054 31.1364C69.6525 31.1364 70.1941 31.053 70.679 30.8864C71.1638 30.7121 71.5843 30.4583 71.9403 30.125C72.2964 29.7917 72.5653 29.3788 72.7472 28.8864L76.5881 29.3182C76.3456 30.3333 75.8835 31.2197 75.2017 31.9773C74.5275 32.7273 73.6638 33.3106 72.6108 33.7273C71.5578 34.1364 70.3532 34.3409 68.9972 34.3409ZM84.3523 23.7727V34H80.2386V16.5455H84.1705V19.5114H84.375C84.7765 18.5341 85.4167 17.7576 86.2955 17.1818C87.1818 16.6061 88.2765 16.3182 89.5795 16.3182C90.7841 16.3182 91.8333 16.5758 92.7273 17.0909C93.6288 17.6061 94.3258 18.3523 94.8182 19.3295C95.3182 20.3068 95.5644 21.4924 95.5568 22.8864V34H91.4432V23.5227C91.4432 22.3561 91.1402 21.4432 90.5341 20.7841C89.9356 20.125 89.1061 19.7955 88.0455 19.7955C87.3258 19.7955 86.6856 19.9545 86.125 20.2727C85.572 20.5833 85.1364 21.0341 84.8182 21.625C84.5076 22.2159 84.3523 22.9318 84.3523 23.7727ZM99.7386 34V16.5455H103.852V34H99.7386ZM101.807 14.0682C101.155 14.0682 100.595 13.8523 100.125 13.4205C99.6553 12.9811 99.4205 12.4545 99.4205 11.8409C99.4205 11.2197 99.6553 10.6932 100.125 10.2614C100.595 9.82197 101.155 9.60227 101.807 9.60227C102.466 9.60227 103.027 9.82197 103.489 10.2614C103.958 10.6932 104.193 11.2197 104.193 11.8409C104.193 12.4545 103.958 12.9811 103.489 13.4205C103.027 13.8523 102.466 14.0682 101.807 14.0682ZM115.696 34.3409C113.954 34.3409 112.457 33.9583 111.207 33.1932C109.965 32.428 109.007 31.3712 108.332 30.0227C107.666 28.6667 107.332 27.1061 107.332 25.3409C107.332 23.5682 107.673 22.0038 108.355 20.6477C109.037 19.2841 109.999 18.2235 111.241 17.4659C112.491 16.7008 113.969 16.3182 115.673 16.3182C117.09 16.3182 118.344 16.5795 119.435 17.1023C120.533 17.6174 121.408 18.3485 122.06 19.2955C122.711 20.2348 123.082 21.3333 123.173 22.5909H119.241C119.082 21.75 118.704 21.0492 118.105 20.4886C117.514 19.9205 116.723 19.6364 115.73 19.6364C114.889 19.6364 114.151 19.8636 113.514 20.3182C112.878 20.7652 112.382 21.4091 112.026 22.25C111.677 23.0909 111.503 24.0985 111.503 25.2727C111.503 26.4621 111.677 27.4848 112.026 28.3409C112.374 29.1894 112.863 29.8447 113.491 30.3068C114.128 30.7614 114.874 30.9886 115.73 30.9886C116.336 30.9886 116.878 30.875 117.355 30.6477C117.84 30.4129 118.245 30.0758 118.571 29.6364C118.897 29.197 119.12 28.6629 119.241 28.0341H123.173C123.075 29.2689 122.711 30.3636 122.082 31.3182C121.454 32.2652 120.598 33.0076 119.514 33.5455C118.431 34.0758 117.158 34.3409 115.696 34.3409ZM140.347 21.1591L136.597 21.5682C136.491 21.1894 136.305 20.8333 136.04 20.5C135.782 20.1667 135.434 19.8977 134.994 19.6932C134.555 19.4886 134.017 19.3864 133.381 19.3864C132.525 19.3864 131.805 19.572 131.222 19.9432C130.646 20.3144 130.362 20.7955 130.369 21.3864C130.362 21.8939 130.547 22.3068 130.926 22.625C131.313 22.9432 131.949 23.2045 132.835 23.4091L135.812 24.0455C137.464 24.4015 138.691 24.9659 139.494 25.7386C140.305 26.5114 140.714 27.5227 140.722 28.7727C140.714 29.8712 140.392 30.8409 139.756 31.6818C139.127 32.5152 138.252 33.1667 137.131 33.6364C136.009 34.1061 134.722 34.3409 133.267 34.3409C131.131 34.3409 129.411 33.8939 128.108 33C126.805 32.0985 126.028 30.8447 125.778 29.2386L129.79 28.8523C129.972 29.6402 130.358 30.2348 130.949 30.6364C131.54 31.0379 132.309 31.2386 133.256 31.2386C134.233 31.2386 135.017 31.0379 135.608 30.6364C136.206 30.2348 136.506 29.7386 136.506 29.1477C136.506 28.6477 136.313 28.2348 135.926 27.9091C135.547 27.5833 134.956 27.3333 134.153 27.1591L131.176 26.5341C129.502 26.1856 128.263 25.5985 127.46 24.7727C126.657 23.9394 126.259 22.8864 126.267 21.6136C126.259 20.5379 126.551 19.6061 127.142 18.8182C127.741 18.0227 128.57 17.4091 129.631 16.9773C130.699 16.5379 131.93 16.3182 133.324 16.3182C135.369 16.3182 136.979 16.7538 138.153 17.625C139.335 18.4962 140.066 19.6742 140.347 21.1591Z" fill="url(#paint0_linear_128_705)"/>
<path fill-rule="evenodd" clip-rule="evenodd" d="M0.160083 9.53959C-0.724205 17.2749 1.62854 34.9963 18.1138 44C30.8957 36.2826 33.6022 26.1535 34.0309 24.9744C33.8702 24.7868 33.5929 24.6231 33.1199 24.4385C32.7075 24.2776 32.182 24.1705 31.8604 24.1169C31.2977 26.1803 29.3201 31.1591 25.9116 34.5676C22.562 32.3971 19.3196 28.2168 22.6156 24.4117C25.1881 21.7052 30.3598 22.5091 31.4049 22.6163C30.4188 21.9303 28.5644 21.3658 27.7605 21.1693C29.5738 20.8209 33.6076 20.9657 35.2368 24.3313C36.0675 22.1072 36.4158 17.8465 28.9128 15.8636C30.5474 14.0682 29.4755 11.8709 24.1162 10.2631C18.7569 8.6553 13.9067 7.90499 10.7447 5.62728C7.5827 3.34957 7.10036 0.991474 7.20755 0C6.43045 0.857491 2.83971 8.6553 14.5766 12.8356C8.62777 12.4336 6.40365 11.8709 4.90304 7.8246C3.59537 8.23191 1.19621 9.13764 0.160083 9.53959ZM21.8653 38.6139L23.4999 37.1937C22.83 36.7649 20.9328 35.3233 18.7033 32.9866C14.866 28.6777 16.0683 23.706 17.1491 21.7588C16.104 22.5806 14.1425 25.1781 14.657 28.9939C15.2787 33.4743 19.7216 37.2741 21.8653 38.6139ZM7.50231 24.1169C5.4229 28.7474 9.17263 33.5136 11.3074 35.3179C9.45846 32.4775 7.95785 29.2619 9.27089 24.9744C10.3213 21.5445 14.4069 18.5432 16.3184 17.4714C14.2461 17.7572 9.58173 19.4865 7.50231 24.1169ZM26.3671 15.5956C25.1452 14.438 21.5705 13.7556 19.9359 13.5591C19.266 13.4666 21.9725 14.2558 22.3208 14.7649C22.8032 15.5956 22.8568 16.1851 23.6339 16.3459C24.411 16.5067 26.6887 15.8636 26.3671 15.5956ZM5.11742 25.9123C2.60926 19.9527 2.50028 13.8181 2.75932 11.4957C3.33991 11.201 4.74762 10.6382 5.73374 10.7454C6.56443 13.6663 8.3866 14.2826 10.5303 15.4616C6.48404 18.0877 4.66187 20.8745 5.11742 25.9123Z" fill="#EB2BAC"/>
<path d="M35.6119 17.5518C35.737 15.542 35.8906 11.1795 35.5047 9.80755C33.4682 8.76248 26.9298 5.62728 15.6485 6.324C21.1686 8.19976 30.8957 9.64677 33.2002 11.5493C33.3503 12.5783 33.2628 14.8542 33.2002 15.8636C33.9059 16.2923 35.3761 17.2302 35.6119 17.5518Z" fill="#EB2BAC"/>
<defs>
<linearGradient id="paint0_linear_128_705" x1="142.75" y1="22" x2="47.75" y2="22" gradientUnits="userSpaceOnUse">
<stop stop-color="white"/>
<stop offset="1" stop-color="#EB2BAC"/>
</linearGradient>
</defs>
</svg>
