<svg width="123" height="29" viewBox="0 0 123 29" fill="none" xmlns="http://www.w3.org/2000/svg">
<path d="M11.7559 16.6V24.32H7.11594V16.6H0.395939V12.4H7.11594V5H11.7559V12.4H18.4759V16.6H11.7559ZM29.5066 28V10.2L25.1066 10.24V1.36L30.6266 1.32H37.5866V28H29.5066ZM53.1225 28.48C49.3358 28.48 46.3625 27.08 44.2025 24.28C42.2558 21.7467 41.2825 18.5467 41.2825 14.68C41.2825 10.8133 42.2558 7.61333 44.2025 5.08C46.3625 2.30667 49.3358 0.919998 53.1225 0.919998C56.9092 0.919998 59.8825 2.30667 62.0425 5.08C63.9892 7.61333 64.9625 10.8133 64.9625 14.68C64.9625 18.5467 63.9892 21.7467 62.0425 24.28C59.8825 27.08 56.9092 28.48 53.1225 28.48ZM53.3225 22.84C57.7225 22.84 59.9225 20.1467 59.9225 14.76C59.9225 9.45333 57.7225 6.8 53.3225 6.8C48.8692 6.8 46.6425 9.45333 46.6425 14.76C46.6425 20.1467 48.8692 22.84 53.3225 22.84ZM79.0397 28.48C75.253 28.48 72.2797 27.08 70.1197 24.28C68.173 21.7467 67.1997 18.5467 67.1997 14.68C67.1997 10.8133 68.173 7.61333 70.1197 5.08C72.2797 2.30667 75.253 0.919998 79.0397 0.919998C82.8264 0.919998 85.7997 2.30667 87.9597 5.08C89.9064 7.61333 90.8797 10.8133 90.8797 14.68C90.8797 18.5467 89.9064 21.7467 87.9597 24.28C85.7997 27.08 82.8264 28.48 79.0397 28.48ZM79.2397 22.84C83.6397 22.84 85.8397 20.1467 85.8397 14.76C85.8397 9.45333 83.6397 6.8 79.2397 6.8C74.7864 6.8 72.5597 9.45333 72.5597 14.76C72.5597 20.1467 74.7864 22.84 79.2397 22.84ZM100.317 14.36C98.1835 14.36 96.4502 13.7067 95.1169 12.4C93.8369 11.1467 93.1969 9.57333 93.1969 7.68C93.1969 5.76 93.8369 4.16 95.1169 2.88C96.4502 1.57333 98.1835 0.919998 100.317 0.919998C102.477 0.919998 104.224 1.57333 105.557 2.88C106.864 4.16 107.517 5.76 107.517 7.68C107.517 9.57333 106.864 11.1467 105.557 12.4C104.224 13.7067 102.477 14.36 100.317 14.36ZM97.6369 28L114.677 1.32H118.597L101.517 28H97.6369ZM115.797 28.48C113.664 28.48 111.93 27.8267 110.597 26.52C109.317 25.2667 108.677 23.6933 108.677 21.8C108.677 19.88 109.317 18.28 110.597 17C111.93 15.6933 113.664 15.04 115.797 15.04C117.93 15.04 119.664 15.6933 120.997 17C122.304 18.28 122.957 19.88 122.957 21.8C122.957 23.6933 122.304 25.2667 120.997 26.52C119.664 27.8267 117.93 28.48 115.797 28.48ZM100.317 10.12C101.864 10.12 102.637 9.30667 102.637 7.68C102.637 6 101.864 5.16 100.317 5.16C98.8235 5.16 98.0769 6 98.0769 7.68C98.0769 9.30667 98.8235 10.12 100.317 10.12ZM115.797 24.24C117.344 24.24 118.117 23.4267 118.117 21.8C118.117 20.12 117.344 19.28 115.797 19.28C114.277 19.28 113.517 20.12 113.517 21.8C113.517 23.4267 114.277 24.24 115.797 24.24Z" fill="white"/>
<path d="M11.7559 16.6V24.32H7.11594V16.6H0.395939V12.4H7.11594V5H11.7559V12.4H18.4759V16.6H11.7559ZM29.5066 28V10.2L25.1066 10.24V1.36L30.6266 1.32H37.5866V28H29.5066ZM53.1225 28.48C49.3358 28.48 46.3625 27.08 44.2025 24.28C42.2558 21.7467 41.2825 18.5467 41.2825 14.68C41.2825 10.8133 42.2558 7.61333 44.2025 5.08C46.3625 2.30667 49.3358 0.919998 53.1225 0.919998C56.9092 0.919998 59.8825 2.30667 62.0425 5.08C63.9892 7.61333 64.9625 10.8133 64.9625 14.68C64.9625 18.5467 63.9892 21.7467 62.0425 24.28C59.8825 27.08 56.9092 28.48 53.1225 28.48ZM53.3225 22.84C57.7225 22.84 59.9225 20.1467 59.9225 14.76C59.9225 9.45333 57.7225 6.8 53.3225 6.8C48.8692 6.8 46.6425 9.45333 46.6425 14.76C46.6425 20.1467 48.8692 22.84 53.3225 22.84ZM79.0397 28.48C75.253 28.48 72.2797 27.08 70.1197 24.28C68.173 21.7467 67.1997 18.5467 67.1997 14.68C67.1997 10.8133 68.173 7.61333 70.1197 5.08C72.2797 2.30667 75.253 0.919998 79.0397 0.919998C82.8264 0.919998 85.7997 2.30667 87.9597 5.08C89.9064 7.61333 90.8797 10.8133 90.8797 14.68C90.8797 18.5467 89.9064 21.7467 87.9597 24.28C85.7997 27.08 82.8264 28.48 79.0397 28.48ZM79.2397 22.84C83.6397 22.84 85.8397 20.1467 85.8397 14.76C85.8397 9.45333 83.6397 6.8 79.2397 6.8C74.7864 6.8 72.5597 9.45333 72.5597 14.76C72.5597 20.1467 74.7864 22.84 79.2397 22.84ZM100.317 14.36C98.1835 14.36 96.4502 13.7067 95.1169 12.4C93.8369 11.1467 93.1969 9.57333 93.1969 7.68C93.1969 5.76 93.8369 4.16 95.1169 2.88C96.4502 1.57333 98.1835 0.919998 100.317 0.919998C102.477 0.919998 104.224 1.57333 105.557 2.88C106.864 4.16 107.517 5.76 107.517 7.68C107.517 9.57333 106.864 11.1467 105.557 12.4C104.224 13.7067 102.477 14.36 100.317 14.36ZM97.6369 28L114.677 1.32H118.597L101.517 28H97.6369ZM115.797 28.48C113.664 28.48 111.93 27.8267 110.597 26.52C109.317 25.2667 108.677 23.6933 108.677 21.8C108.677 19.88 109.317 18.28 110.597 17C111.93 15.6933 113.664 15.04 115.797 15.04C117.93 15.04 119.664 15.6933 120.997 17C122.304 18.28 122.957 19.88 122.957 21.8C122.957 23.6933 122.304 25.2667 120.997 26.52C119.664 27.8267 117.93 28.48 115.797 28.48ZM100.317 10.12C101.864 10.12 102.637 9.30667 102.637 7.68C102.637 6 101.864 5.16 100.317 5.16C98.8235 5.16 98.0769 6 98.0769 7.68C98.0769 9.30667 98.8235 10.12 100.317 10.12ZM115.797 24.24C117.344 24.24 118.117 23.4267 118.117 21.8C118.117 20.12 117.344 19.28 115.797 19.28C114.277 19.28 113.517 20.12 113.517 21.8C113.517 23.4267 114.277 24.24 115.797 24.24Z" fill="url(#paint0_linear_16941_1734)" fill-opacity="0.55"/>
<path d="M11.7559 16.6V24.32H7.11594V16.6H0.395939V12.4H7.11594V5H11.7559V12.4H18.4759V16.6H11.7559ZM29.5066 28V10.2L25.1066 10.24V1.36L30.6266 1.32H37.5866V28H29.5066ZM53.1225 28.48C49.3358 28.48 46.3625 27.08 44.2025 24.28C42.2558 21.7467 41.2825 18.5467 41.2825 14.68C41.2825 10.8133 42.2558 7.61333 44.2025 5.08C46.3625 2.30667 49.3358 0.919998 53.1225 0.919998C56.9092 0.919998 59.8825 2.30667 62.0425 5.08C63.9892 7.61333 64.9625 10.8133 64.9625 14.68C64.9625 18.5467 63.9892 21.7467 62.0425 24.28C59.8825 27.08 56.9092 28.48 53.1225 28.48ZM53.3225 22.84C57.7225 22.84 59.9225 20.1467 59.9225 14.76C59.9225 9.45333 57.7225 6.8 53.3225 6.8C48.8692 6.8 46.6425 9.45333 46.6425 14.76C46.6425 20.1467 48.8692 22.84 53.3225 22.84ZM79.0397 28.48C75.253 28.48 72.2797 27.08 70.1197 24.28C68.173 21.7467 67.1997 18.5467 67.1997 14.68C67.1997 10.8133 68.173 7.61333 70.1197 5.08C72.2797 2.30667 75.253 0.919998 79.0397 0.919998C82.8264 0.919998 85.7997 2.30667 87.9597 5.08C89.9064 7.61333 90.8797 10.8133 90.8797 14.68C90.8797 18.5467 89.9064 21.7467 87.9597 24.28C85.7997 27.08 82.8264 28.48 79.0397 28.48ZM79.2397 22.84C83.6397 22.84 85.8397 20.1467 85.8397 14.76C85.8397 9.45333 83.6397 6.8 79.2397 6.8C74.7864 6.8 72.5597 9.45333 72.5597 14.76C72.5597 20.1467 74.7864 22.84 79.2397 22.84ZM100.317 14.36C98.1835 14.36 96.4502 13.7067 95.1169 12.4C93.8369 11.1467 93.1969 9.57333 93.1969 7.68C93.1969 5.76 93.8369 4.16 95.1169 2.88C96.4502 1.57333 98.1835 0.919998 100.317 0.919998C102.477 0.919998 104.224 1.57333 105.557 2.88C106.864 4.16 107.517 5.76 107.517 7.68C107.517 9.57333 106.864 11.1467 105.557 12.4C104.224 13.7067 102.477 14.36 100.317 14.36ZM97.6369 28L114.677 1.32H118.597L101.517 28H97.6369ZM115.797 28.48C113.664 28.48 111.93 27.8267 110.597 26.52C109.317 25.2667 108.677 23.6933 108.677 21.8C108.677 19.88 109.317 18.28 110.597 17C111.93 15.6933 113.664 15.04 115.797 15.04C117.93 15.04 119.664 15.6933 120.997 17C122.304 18.28 122.957 19.88 122.957 21.8C122.957 23.6933 122.304 25.2667 120.997 26.52C119.664 27.8267 117.93 28.48 115.797 28.48ZM100.317 10.12C101.864 10.12 102.637 9.30667 102.637 7.68C102.637 6 101.864 5.16 100.317 5.16C98.8235 5.16 98.0769 6 98.0769 7.68C98.0769 9.30667 98.8235 10.12 100.317 10.12ZM115.797 24.24C117.344 24.24 118.117 23.4267 118.117 21.8C118.117 20.12 117.344 19.28 115.797 19.28C114.277 19.28 113.517 20.12 113.517 21.8C113.517 23.4267 114.277 24.24 115.797 24.24Z" fill="url(#paint1_linear_16941_1734)" fill-opacity="0.55"/>
<path d="M11.7559 16.6V24.32H7.11594V16.6H0.395939V12.4H7.11594V5H11.7559V12.4H18.4759V16.6H11.7559ZM29.5066 28V10.2L25.1066 10.24V1.36L30.6266 1.32H37.5866V28H29.5066ZM53.1225 28.48C49.3358 28.48 46.3625 27.08 44.2025 24.28C42.2558 21.7467 41.2825 18.5467 41.2825 14.68C41.2825 10.8133 42.2558 7.61333 44.2025 5.08C46.3625 2.30667 49.3358 0.919998 53.1225 0.919998C56.9092 0.919998 59.8825 2.30667 62.0425 5.08C63.9892 7.61333 64.9625 10.8133 64.9625 14.68C64.9625 18.5467 63.9892 21.7467 62.0425 24.28C59.8825 27.08 56.9092 28.48 53.1225 28.48ZM53.3225 22.84C57.7225 22.84 59.9225 20.1467 59.9225 14.76C59.9225 9.45333 57.7225 6.8 53.3225 6.8C48.8692 6.8 46.6425 9.45333 46.6425 14.76C46.6425 20.1467 48.8692 22.84 53.3225 22.84ZM79.0397 28.48C75.253 28.48 72.2797 27.08 70.1197 24.28C68.173 21.7467 67.1997 18.5467 67.1997 14.68C67.1997 10.8133 68.173 7.61333 70.1197 5.08C72.2797 2.30667 75.253 0.919998 79.0397 0.919998C82.8264 0.919998 85.7997 2.30667 87.9597 5.08C89.9064 7.61333 90.8797 10.8133 90.8797 14.68C90.8797 18.5467 89.9064 21.7467 87.9597 24.28C85.7997 27.08 82.8264 28.48 79.0397 28.48ZM79.2397 22.84C83.6397 22.84 85.8397 20.1467 85.8397 14.76C85.8397 9.45333 83.6397 6.8 79.2397 6.8C74.7864 6.8 72.5597 9.45333 72.5597 14.76C72.5597 20.1467 74.7864 22.84 79.2397 22.84ZM100.317 14.36C98.1835 14.36 96.4502 13.7067 95.1169 12.4C93.8369 11.1467 93.1969 9.57333 93.1969 7.68C93.1969 5.76 93.8369 4.16 95.1169 2.88C96.4502 1.57333 98.1835 0.919998 100.317 0.919998C102.477 0.919998 104.224 1.57333 105.557 2.88C106.864 4.16 107.517 5.76 107.517 7.68C107.517 9.57333 106.864 11.1467 105.557 12.4C104.224 13.7067 102.477 14.36 100.317 14.36ZM97.6369 28L114.677 1.32H118.597L101.517 28H97.6369ZM115.797 28.48C113.664 28.48 111.93 27.8267 110.597 26.52C109.317 25.2667 108.677 23.6933 108.677 21.8C108.677 19.88 109.317 18.28 110.597 17C111.93 15.6933 113.664 15.04 115.797 15.04C117.93 15.04 119.664 15.6933 120.997 17C122.304 18.28 122.957 19.88 122.957 21.8C122.957 23.6933 122.304 25.2667 120.997 26.52C119.664 27.8267 117.93 28.48 115.797 28.48ZM100.317 10.12C101.864 10.12 102.637 9.30667 102.637 7.68C102.637 6 101.864 5.16 100.317 5.16C98.8235 5.16 98.0769 6 98.0769 7.68C98.0769 9.30667 98.8235 10.12 100.317 10.12ZM115.797 24.24C117.344 24.24 118.117 23.4267 118.117 21.8C118.117 20.12 117.344 19.28 115.797 19.28C114.277 19.28 113.517 20.12 113.517 21.8C113.517 23.4267 114.277 24.24 115.797 24.24Z" style="mix-blend-mode:color-burn"/>
<defs>
<linearGradient id="paint0_linear_16941_1734" x1="36.6967" y1="8.77985" x2="118.136" y2="-97.071" gradientUnits="userSpaceOnUse">
<stop stop-color="#1B1F25" stop-opacity="0"/>
<stop offset="1" stop-color="#1B1F25"/>
</linearGradient>
<linearGradient id="paint1_linear_16941_1734" x1="47.1862" y1="28.4925" x2="16.6777" y2="-75.3677" gradientUnits="userSpaceOnUse">
<stop stop-color="#1B1F25" stop-opacity="0"/>
<stop offset="1" stop-color="#1B1F25"/>
</linearGradient>
</defs>
</svg>
