<svg width="253" height="88" viewBox="0 0 253 88" fill="none" xmlns="http://www.w3.org/2000/svg">
<rect x="10" width="233" height="64" rx="10" fill="#EB2BAC" fill-opacity="0.08"/>
<g filter="url(#filter0_dddiiin_281_5320)">
<g clip-path="url(#clip0_281_5320)">
<rect x="16" y="6" width="221" height="52" rx="10" fill="url(#paint0_radial_281_5320)"/>
<path d="M101.017 36.5H98.2973L95.6253 32.596L92.9373 36.5H90.2332L94.1053 31.028L90.4733 25.828H93.1773L95.6253 29.476L98.0413 25.828H100.777L97.1453 31.012L101.017 36.5ZM105.561 36.692C103.017 36.692 101.481 34.836 101.481 32.628C101.481 30.436 103.017 28.58 105.561 28.58C108.121 28.58 109.657 30.436 109.657 32.628C109.657 34.836 108.121 36.692 105.561 36.692ZM105.561 34.884C106.825 34.884 107.545 33.844 107.545 32.628C107.545 31.428 106.825 30.388 105.561 30.388C104.297 30.388 103.593 31.428 103.593 32.628C103.593 33.844 104.297 34.884 105.561 34.884ZM110.924 28.772H112.956V30.868C112.956 31.956 113.516 32.308 114.588 32.308C115.292 32.308 115.788 32.18 116.14 32.004V28.772H118.188V36.5H116.14V33.636C115.644 33.908 114.844 34.116 113.884 34.116C111.724 34.116 110.924 33.172 110.924 31.572V28.772ZM119.924 39.524L120.228 37.7C120.404 37.78 120.676 37.828 120.868 37.828C121.396 37.828 121.748 37.684 121.94 37.268L122.228 36.612L119.091 28.772H121.268L123.284 34.148L125.3 28.772H127.492L123.86 37.764C123.284 39.22 122.26 39.604 120.932 39.636C120.692 39.636 120.18 39.588 119.924 39.524ZM142.22 36.5H139.5L136.828 32.596L134.14 36.5H131.436L135.308 31.028L131.676 25.828H134.38L136.828 29.476L139.244 25.828H141.98L138.348 31.012L142.22 36.5ZM150.956 36.5H142.924V34.724C147.292 31.492 148.572 30.388 148.572 29.076C148.572 28.148 147.724 27.684 146.844 27.684C145.628 27.684 144.7 28.164 143.98 28.916L142.684 27.412C143.724 26.212 145.308 25.668 146.796 25.668C149.068 25.668 150.876 26.948 150.876 29.076C150.876 30.9 149.372 32.484 146.604 34.5H150.956V36.5Z" fill="white"/>
<path d="M170.058 29.9753L165 24.917L159.941 29.9753" stroke="white" stroke-width="2" stroke-miterlimit="10" stroke-linecap="round" stroke-linejoin="round"/>
<path d="M165 37.5005V25.0586" stroke="white" stroke-width="2" stroke-miterlimit="10" stroke-linecap="round" stroke-linejoin="round"/>
<g filter="url(#filter1_f_281_5320)">
<ellipse cx="127" cy="64.5" rx="57" ry="15.5" fill="white" fill-opacity="0.32" style="mix-blend-mode:plus-lighter"/>
</g>
</g>
<rect x="16.5" y="6.5" width="220" height="51" rx="9.5" stroke="url(#paint1_linear_281_5320)"/>
</g>
<path d="M32.0465 30.3797L27.9998 26.333L23.9531 30.3797" stroke="white" stroke-opacity="0.25" stroke-miterlimit="10" stroke-linecap="round" stroke-linejoin="round"/>
<path d="M28 37.6663V26.4463" stroke="white" stroke-opacity="0.25" stroke-miterlimit="10" stroke-linecap="round" stroke-linejoin="round"/>
<path d="M64.0465 30.3797L59.9998 26.333L55.9531 30.3797" stroke="white" stroke-opacity="0.15" stroke-miterlimit="10" stroke-linecap="round" stroke-linejoin="round"/>
<path d="M60 37.6663V26.4463" stroke="white" stroke-opacity="0.15" stroke-miterlimit="10" stroke-linecap="round" stroke-linejoin="round"/>
<path d="M48.0465 46.3797L43.9998 42.333L39.9531 46.3797" stroke="white" stroke-opacity="0.2" stroke-miterlimit="10" stroke-linecap="round" stroke-linejoin="round"/>
<path d="M44 53.6663V42.4463" stroke="white" stroke-opacity="0.2" stroke-miterlimit="10" stroke-linecap="round" stroke-linejoin="round"/>
<path d="M80.0465 46.3797L75.9998 42.333L71.9531 46.3797" stroke="white" stroke-opacity="0.05" stroke-miterlimit="10" stroke-linecap="round" stroke-linejoin="round"/>
<path d="M76 53.6663V42.4463" stroke="white" stroke-opacity="0.05" stroke-miterlimit="10" stroke-linecap="round" stroke-linejoin="round"/>
<path d="M48.0465 14.3797L43.9998 10.333L39.9531 14.3797" stroke="white" stroke-opacity="0.2" stroke-miterlimit="10" stroke-linecap="round" stroke-linejoin="round"/>
<path d="M44 21.6663V10.4463" stroke="white" stroke-opacity="0.2" stroke-miterlimit="10" stroke-linecap="round" stroke-linejoin="round"/>
<path d="M80.0465 14.3797L75.9998 10.333L71.9531 14.3797" stroke="white" stroke-opacity="0.05" stroke-miterlimit="10" stroke-linecap="round" stroke-linejoin="round"/>
<path d="M76 21.6663V10.4463" stroke="white" stroke-opacity="0.05" stroke-miterlimit="10" stroke-linecap="round" stroke-linejoin="round"/>
<path d="M220.954 30.3797L225 26.333L229.047 30.3797" stroke="white" stroke-opacity="0.25" stroke-miterlimit="10" stroke-linecap="round" stroke-linejoin="round"/>
<path d="M225 37.6663V26.4463" stroke="white" stroke-opacity="0.25" stroke-miterlimit="10" stroke-linecap="round" stroke-linejoin="round"/>
<path d="M188.954 30.3797L193 26.333L197.047 30.3797" stroke="white" stroke-opacity="0.15" stroke-miterlimit="10" stroke-linecap="round" stroke-linejoin="round"/>
<path d="M193 37.6663V26.4463" stroke="white" stroke-opacity="0.15" stroke-miterlimit="10" stroke-linecap="round" stroke-linejoin="round"/>
<path d="M204.954 46.3797L209 42.333L213.047 46.3797" stroke="white" stroke-opacity="0.2" stroke-miterlimit="10" stroke-linecap="round" stroke-linejoin="round"/>
<path d="M209 53.6663V42.4463" stroke="white" stroke-opacity="0.2" stroke-miterlimit="10" stroke-linecap="round" stroke-linejoin="round"/>
<path d="M172.954 46.3797L177 42.333L181.047 46.3797" stroke="white" stroke-opacity="0.05" stroke-miterlimit="10" stroke-linecap="round" stroke-linejoin="round"/>
<path d="M177 53.6663V42.4463" stroke="white" stroke-opacity="0.05" stroke-miterlimit="10" stroke-linecap="round" stroke-linejoin="round"/>
<path d="M204.954 14.3797L209 10.333L213.047 14.3797" stroke="white" stroke-opacity="0.2" stroke-miterlimit="10" stroke-linecap="round" stroke-linejoin="round"/>
<path d="M209 21.6663V10.4463" stroke="white" stroke-opacity="0.2" stroke-miterlimit="10" stroke-linecap="round" stroke-linejoin="round"/>
<path d="M172.954 14.3797L177 10.333L181.047 14.3797" stroke="white" stroke-opacity="0.05" stroke-miterlimit="10" stroke-linecap="round" stroke-linejoin="round"/>
<path d="M177 21.6663V10.4463" stroke="white" stroke-opacity="0.05" stroke-miterlimit="10" stroke-linecap="round" stroke-linejoin="round"/>
<defs>
<filter id="filter0_dddiiin_281_5320" x="0" y="-18" width="253" height="128" filterUnits="userSpaceOnUse" color-interpolation-filters="sRGB">
<feFlood flood-opacity="0" result="BackgroundImageFix"/>
<feColorMatrix in="SourceAlpha" type="matrix" values="0 0 0 0 0 0 0 0 0 0 0 0 0 0 0 0 0 0 127 0" result="hardAlpha"/>
<feMorphology radius="16" operator="erode" in="SourceAlpha" result="effect1_dropShadow_281_5320"/>
<feOffset dy="36"/>
<feGaussianBlur stdDeviation="16"/>
<feComposite in2="hardAlpha" operator="out"/>
<feColorMatrix type="matrix" values="0 0 0 0 0.643137 0 0 0 0 0.054902 0 0 0 0 0.454902 0 0 0 0.21 0"/>
<feBlend mode="normal" in2="BackgroundImageFix" result="effect1_dropShadow_281_5320"/>
<feColorMatrix in="SourceAlpha" type="matrix" values="0 0 0 0 0 0 0 0 0 0 0 0 0 0 0 0 0 0 127 0" result="hardAlpha"/>
<feMorphology radius="8" operator="erode" in="SourceAlpha" result="effect2_dropShadow_281_5320"/>
<feOffset dy="8"/>
<feGaussianBlur stdDeviation="8"/>
<feComposite in2="hardAlpha" operator="out"/>
<feColorMatrix type="matrix" values="0 0 0 0 0.643137 0 0 0 0 0.054902 0 0 0 0 0.454902 0 0 0 0.12 0"/>
<feBlend mode="normal" in2="effect1_dropShadow_281_5320" result="effect2_dropShadow_281_5320"/>
<feColorMatrix in="SourceAlpha" type="matrix" values="0 0 0 0 0 0 0 0 0 0 0 0 0 0 0 0 0 0 127 0" result="hardAlpha"/>
<feMorphology radius="8" operator="erode" in="SourceAlpha" result="effect3_dropShadow_281_5320"/>
<feOffset dy="2"/>
<feGaussianBlur stdDeviation="2"/>
<feComposite in2="hardAlpha" operator="out"/>
<feColorMatrix type="matrix" values="0 0 0 0 0.643137 0 0 0 0 0.054902 0 0 0 0 0.454902 0 0 0 0.08 0"/>
<feBlend mode="normal" in2="effect2_dropShadow_281_5320" result="effect3_dropShadow_281_5320"/>
<feBlend mode="normal" in="SourceGraphic" in2="BackgroundImageFix" result="shape"/>
<feColorMatrix in="SourceAlpha" type="matrix" values="0 0 0 0 0 0 0 0 0 0 0 0 0 0 0 0 0 0 127 0" result="hardAlpha"/>
<feMorphology radius="16" operator="dilate" in="SourceAlpha" result="effect4_innerShadow_281_5320"/>
<feOffset dy="8"/>
<feGaussianBlur stdDeviation="12"/>
<feComposite in2="hardAlpha" operator="arithmetic" k2="-1" k3="1"/>
<feColorMatrix type="matrix" values="0 0 0 0 1 0 0 0 0 1 0 0 0 0 1 0 0 0 0.24 0"/>
<feBlend mode="plus-lighter" in2="shape" result="effect4_innerShadow_281_5320"/>
<feColorMatrix in="SourceAlpha" type="matrix" values="0 0 0 0 0 0 0 0 0 0 0 0 0 0 0 0 0 0 127 0" result="hardAlpha"/>
<feOffset dy="-24"/>
<feGaussianBlur stdDeviation="16"/>
<feComposite in2="hardAlpha" operator="arithmetic" k2="-1" k3="1"/>
<feColorMatrix type="matrix" values="0 0 0 0 1 0 0 0 0 1 0 0 0 0 1 0 0 0 0.22 0"/>
<feBlend mode="plus-lighter" in2="effect4_innerShadow_281_5320" result="effect5_innerShadow_281_5320"/>
<feColorMatrix in="SourceAlpha" type="matrix" values="0 0 0 0 0 0 0 0 0 0 0 0 0 0 0 0 0 0 127 0" result="hardAlpha"/>
<feOffset dy="4"/>
<feGaussianBlur stdDeviation="6"/>
<feComposite in2="hardAlpha" operator="arithmetic" k2="-1" k3="1"/>
<feColorMatrix type="matrix" values="0 0 0 0 1 0 0 0 0 1 0 0 0 0 1 0 0 0 1 0"/>
<feBlend mode="normal" in2="effect5_innerShadow_281_5320" result="effect6_innerShadow_281_5320"/>
<feTurbulence type="fractalNoise" baseFrequency="2 2" stitchTiles="stitch" numOctaves="3" result="noise" seed="8155" />
<feColorMatrix in="noise" type="luminanceToAlpha" result="alphaNoise" />
<feComponentTransfer in="alphaNoise" result="coloredNoise1">
<feFuncA type="discrete" tableValues="1 1 1 1 1 1 1 1 1 1 1 1 1 1 1 1 1 1 1 1 1 1 1 1 1 1 1 1 1 1 1 1 1 1 1 1 1 1 1 1 1 1 1 1 1 1 1 1 1 1 1 0 0 0 0 0 0 0 0 0 0 0 0 0 0 0 0 0 0 0 0 0 0 0 0 0 0 0 0 0 0 0 0 0 0 0 0 0 0 0 0 0 0 0 0 0 0 0 0 0 "/>
</feComponentTransfer>
<feComposite operator="in" in2="effect6_innerShadow_281_5320" in="coloredNoise1" result="noise1Clipped" />
<feFlood flood-color="rgba(255, 255, 255, 0.13)" result="color1Flood" />
<feComposite operator="in" in2="noise1Clipped" in="color1Flood" result="color1" />
<feMerge result="effect7_noise_281_5320">
<feMergeNode in="effect6_innerShadow_281_5320" />
<feMergeNode in="color1" />
</feMerge>
<feBlend mode="normal" in="effect7_noise_281_5320" in2="effect3_dropShadow_281_5320" result="effect7_noise_281_5320"/>
</filter>
<filter id="filter1_f_281_5320" x="50.5" y="29.5" width="153" height="70" filterUnits="userSpaceOnUse" color-interpolation-filters="sRGB">
<feFlood flood-opacity="0" result="BackgroundImageFix"/>
<feBlend mode="normal" in="SourceGraphic" in2="BackgroundImageFix" result="shape"/>
<feGaussianBlur stdDeviation="9.75" result="effect1_foregroundBlur_281_5320"/>
</filter>
<radialGradient id="paint0_radial_281_5320" cx="0" cy="0" r="1" gradientUnits="userSpaceOnUse" gradientTransform="translate(126.5 32) scale(110.5 50.4185)">
<stop stop-color="#C729A9"/>
<stop offset="1" stop-color="#BB2777"/>
</radialGradient>
<linearGradient id="paint1_linear_281_5320" x1="126.5" y1="6" x2="126.5" y2="32" gradientUnits="userSpaceOnUse">
<stop stop-color="white"/>
<stop offset="1" stop-color="white" stop-opacity="0"/>
</linearGradient>
<clipPath id="clip0_281_5320">
<rect x="16" y="6" width="221" height="52" rx="10" fill="white"/>
</clipPath>
</defs>
</svg>
