<svg width="90" height="93" viewBox="0 0 90 93" fill="none" xmlns="http://www.w3.org/2000/svg">
<g opacity="0.75" filter="url(#filter0_ddddd_16941_1769)">
<rect x="11.9543" y="49.9424" width="49.6996" height="49.6996" rx="24.8498" transform="rotate(-54.2913 11.9543 49.9424)" fill="url(#paint0_linear_16941_1769)" stroke="url(#paint1_linear_16941_1769)" stroke-width="0.502016"/>
<path d="M26.1747 28.2787C34.1849 17.1348 49.7123 14.5946 60.8563 22.6047C72.0002 30.615 74.5405 46.1424 66.5302 57.2863C58.5198 68.4301 42.9925 70.9705 31.8486 62.9603C20.7049 54.95 18.1646 39.4226 26.1747 28.2787Z" fill="url(#paint2_linear_16941_1769)"/>
<path d="M26.1747 28.2787C34.1849 17.1348 49.7123 14.5946 60.8563 22.6047C72.0002 30.615 74.5405 46.1424 66.5302 57.2863C58.5198 68.4301 42.9925 70.9705 31.8486 62.9603C20.7049 54.95 18.1646 39.4226 26.1747 28.2787Z" stroke="url(#paint3_linear_16941_1769)" stroke-width="0.502016"/>
<path d="M26.1747 28.2787C34.1849 17.1348 49.7123 14.5946 60.8563 22.6047C72.0002 30.615 74.5405 46.1424 66.5302 57.2863C58.5198 68.4301 42.9925 70.9705 31.8486 62.9603C20.7049 54.95 18.1646 39.4226 26.1747 28.2787Z" stroke="url(#paint4_linear_16941_1769)" stroke-width="0.502016"/>
<path d="M50.2184 43.2563L42.9531 53.3638L39.7383 51.053L46.9237 41.0567C47.4653 40.3032 47.7981 39.6057 47.9221 38.9641C48.046 38.3225 47.9863 37.741 47.7429 37.2194C47.4995 36.6979 47.0999 36.2374 46.544 35.8378C46.0005 35.4471 45.4274 35.2084 44.8246 35.1218C44.2218 35.0351 43.622 35.1332 43.0252 35.4161C42.4284 35.6991 41.877 36.1926 41.3709 36.8967L38.9069 40.3245L54.6194 51.6187L51.7559 55.6024L32.7823 41.9642L38.1098 34.5526C39.1886 33.0518 40.3807 31.9602 41.686 31.278C42.9897 30.5851 44.3089 30.2875 45.6438 30.3852C46.9725 30.4785 48.2183 30.9478 49.3812 31.793C50.6085 32.6659 51.4613 33.7144 51.9396 34.9387C52.4178 36.163 52.5147 37.4879 52.2301 38.9133C51.9456 40.3387 51.275 41.7864 50.2184 43.2563ZM51.9541 43.422L55.1688 45.7328L47.3908 56.5536L44.176 54.2428L51.9541 43.422Z" fill="url(#paint5_radial_16941_1769)"/>
</g>
<defs>
<filter id="filter0_ddddd_16941_1769" x="0.873709" y="6.66146" width="81.1289" height="85.35" filterUnits="userSpaceOnUse" color-interpolation-filters="sRGB">
<feFlood flood-opacity="0" result="BackgroundImageFix"/>
<feColorMatrix in="SourceAlpha" type="matrix" values="0 0 0 0 0 0 0 0 0 0 0 0 0 0 0 0 0 0 127 0" result="hardAlpha"/>
<feOffset dx="-0.754677" dy="0.754677"/>
<feGaussianBlur stdDeviation="1.50935"/>
<feColorMatrix type="matrix" values="0 0 0 0 0.133333 0 0 0 0 0.0784314 0 0 0 0 0.282353 0 0 0 0.1 0"/>
<feBlend mode="normal" in2="BackgroundImageFix" result="effect1_dropShadow_16941_1769"/>
<feColorMatrix in="SourceAlpha" type="matrix" values="0 0 0 0 0 0 0 0 0 0 0 0 0 0 0 0 0 0 127 0" result="hardAlpha"/>
<feOffset dx="-3.01871" dy="3.77339"/>
<feGaussianBlur stdDeviation="2.64137"/>
<feColorMatrix type="matrix" values="0 0 0 0 0.133333 0 0 0 0 0.0784314 0 0 0 0 0.282353 0 0 0 0.09 0"/>
<feBlend mode="normal" in2="effect1_dropShadow_16941_1769" result="effect2_dropShadow_16941_1769"/>
<feColorMatrix in="SourceAlpha" type="matrix" values="0 0 0 0 0 0 0 0 0 0 0 0 0 0 0 0 0 0 127 0" result="hardAlpha"/>
<feOffset dx="-7.54677" dy="8.30145"/>
<feGaussianBlur stdDeviation="3.39605"/>
<feColorMatrix type="matrix" values="0 0 0 0 0.133333 0 0 0 0 0.0784314 0 0 0 0 0.282353 0 0 0 0.05 0"/>
<feBlend mode="normal" in2="effect2_dropShadow_16941_1769" result="effect3_dropShadow_16941_1769"/>
<feColorMatrix in="SourceAlpha" type="matrix" values="0 0 0 0 0 0 0 0 0 0 0 0 0 0 0 0 0 0 127 0" result="hardAlpha"/>
<feOffset dx="-12.8295" dy="15.0935"/>
<feGaussianBlur stdDeviation="3.77339"/>
<feColorMatrix type="matrix" values="0 0 0 0 0.133333 0 0 0 0 0.0784314 0 0 0 0 0.282353 0 0 0 0.01 0"/>
<feBlend mode="normal" in2="effect3_dropShadow_16941_1769" result="effect4_dropShadow_16941_1769"/>
<feColorMatrix in="SourceAlpha" type="matrix" values="0 0 0 0 0 0 0 0 0 0 0 0 0 0 0 0 0 0 127 0" result="hardAlpha"/>
<feOffset dx="-3.77339" dy="3.01871"/>
<feGaussianBlur stdDeviation="7.0185"/>
<feComposite in2="hardAlpha" operator="out"/>
<feColorMatrix type="matrix" values="0 0 0 0 0.059362 0 0 0 0 0.0288462 0 0 0 0 0.125 0 0 0 0.25 0"/>
<feBlend mode="normal" in2="effect4_dropShadow_16941_1769" result="effect5_dropShadow_16941_1769"/>
<feBlend mode="normal" in="SourceGraphic" in2="effect5_dropShadow_16941_1769" result="shape"/>
</filter>
<linearGradient id="paint0_linear_16941_1769" x1="53.8894" y1="103.23" x2="25.2693" y2="43.7793" gradientUnits="userSpaceOnUse">
<stop stop-color="#A40E74"/>
<stop offset="0.822115" stop-color="white"/>
<stop offset="1" stop-color="#EB2BAC" stop-opacity="0.45"/>
</linearGradient>
<linearGradient id="paint1_linear_16941_1769" x1="14.7196" y1="52.0533" x2="57.4005" y2="99.4374" gradientUnits="userSpaceOnUse">
<stop stop-color="#EB2BAC"/>
<stop offset="1" stop-color="#A40E74"/>
</linearGradient>
<linearGradient id="paint2_linear_16941_1769" x1="40.6215" y1="7.75024" x2="49.9248" y2="77.8082" gradientUnits="userSpaceOnUse">
<stop stop-color="#161222"/>
<stop offset="1" stop-color="#1B1B1B"/>
</linearGradient>
<linearGradient id="paint3_linear_16941_1769" x1="37.2518" y1="12.438" x2="55.0141" y2="73.7383" gradientUnits="userSpaceOnUse">
<stop stop-color="#EB2BAC"/>
<stop offset="0.976633" stop-color="#A40E74"/>
</linearGradient>
<linearGradient id="paint4_linear_16941_1769" x1="39.7826" y1="7.48755" x2="66.6556" y2="61.6368" gradientUnits="userSpaceOnUse">
<stop stop-color="white" stop-opacity="0"/>
<stop offset="1" stop-color="white"/>
</linearGradient>
<radialGradient id="paint5_radial_16941_1769" cx="0" cy="0" r="1" gradientTransform="matrix(16.193 55.8124 -55.5203 0.088218 45.1779 28.2274)" gradientUnits="userSpaceOnUse">
<stop stop-color="white"/>
<stop offset="1" stop-color="#EB2BAC"/>
</radialGradient>
</defs>
</svg>
