<svg width="44" height="44" viewBox="0 0 44 44" fill="none" xmlns="http://www.w3.org/2000/svg">
<rect width="44" height="44" rx="10" fill="#F5B0DB"/>
<path d="M31.56 20.74L30.2 19.16C29.94 18.86 29.73 18.3 29.73 17.9V16.2C29.73 15.14 28.86 14.27 27.8 14.27H26.1C25.71 14.27 25.14 14.06 24.84 13.8L23.26 12.44C22.57 11.85 21.44 11.85 20.74 12.44L19.17 13.81C18.87 14.06 18.3 14.27 17.91 14.27H16.18C15.12 14.27 14.25 15.14 14.25 16.2V17.91C14.25 18.3 14.04 18.86 13.79 19.16L12.44 20.75C11.86 21.44 11.86 22.56 12.44 23.25L13.79 24.84C14.04 25.14 14.25 25.7 14.25 26.09V27.8C14.25 28.86 15.12 29.73 16.18 29.73H17.91C18.3 29.73 18.87 29.94 19.17 30.2L20.75 31.56C21.44 32.15 22.57 32.15 23.27 31.56L24.85 30.2C25.15 29.94 25.71 29.73 26.11 29.73H27.81C28.87 29.73 29.74 28.86 29.74 27.8V26.1C29.74 25.71 29.95 25.14 30.21 24.84L31.57 23.26C32.15 22.57 32.15 21.43 31.56 20.74ZM26.16 20.11L21.33 24.94C21.19 25.08 21 25.16 20.8 25.16C20.6 25.16 20.41 25.08 20.27 24.94L17.85 22.52C17.56 22.23 17.56 21.75 17.85 21.46C18.14 21.17 18.62 21.17 18.91 21.46L20.8 23.35L25.1 19.05C25.39 18.76 25.87 18.76 26.16 19.05C26.45 19.34 26.45 19.82 26.16 20.11Z" fill="#5A5257"/>
</svg>
