<svg width="287" height="287" viewBox="0 0 287 287" fill="none" xmlns="http://www.w3.org/2000/svg">
<path d="M164.822 38.5556C164.898 38.2711 165.19 38.1022 165.474 38.1802C165.758 38.2582 165.923 38.5528 165.844 38.8362L164.744 42.7413C164.67 43.0077 164.393 43.1628 164.126 43.0894C163.859 43.0161 163.7 42.7415 163.772 42.4741L164.822 38.5556Z" fill="#5A5257"/>
<path d="M171.838 40.7668C171.938 40.4901 172.244 40.3473 172.52 40.4497C172.797 40.5522 172.935 40.8601 172.831 41.1355L171.396 44.9299C171.298 45.1888 171.009 45.3191 170.749 45.2228C170.49 45.1265 170.356 44.8391 170.45 44.579L171.838 40.7668Z" fill="#5A5257"/>
<path d="M178.633 43.5812C178.758 43.3144 179.075 43.1988 179.341 43.3249C179.607 43.451 179.719 43.7698 179.591 44.0351L177.83 47.6899C177.71 47.9393 177.411 48.0439 177.161 47.9254C176.911 47.8068 176.802 47.5088 176.919 47.258L178.633 43.5812Z" fill="#5A5257"/>
<path d="M185.158 46.9773C185.306 46.7223 185.632 46.6347 185.886 46.7836C186.14 46.9324 186.223 47.2597 186.073 47.5128L184 51.0003C183.859 51.2383 183.552 51.3164 183.313 51.1765C183.074 51.0366 182.992 50.7303 183.13 50.4906L185.158 46.9773Z" fill="#5A5257"/>
<path d="M202.622 60.3765C202.83 60.1683 203.167 60.1682 203.374 60.3777C203.581 60.5872 203.577 60.9249 203.366 61.1304L200.462 63.9628C200.263 64.156 199.946 64.1519 199.752 63.955C199.557 63.758 199.557 63.4408 199.753 63.2451L202.622 60.3765Z" fill="#5A5257"/>
<path d="M216.022 77.8401C216.277 77.6929 216.603 77.7802 216.749 78.0361C216.894 78.292 216.803 78.6171 216.546 78.7611L213.007 80.7452C212.766 80.8806 212.461 80.7945 212.324 80.5539C212.187 80.3134 212.269 80.0069 212.509 79.8686L216.022 77.8401Z" fill="#5A5257"/>
<path d="M219.418 84.3654C219.685 84.241 220.003 84.3564 220.125 84.624C220.248 84.8917 220.129 85.2075 219.86 85.3285L216.162 86.9967C215.91 87.1105 215.613 86.9982 215.498 86.7466C215.382 86.495 215.491 86.1969 215.742 86.0799L219.418 84.3654Z" fill="#5A5257"/>
<path d="M222.234 91.1619C222.51 91.0612 222.816 91.2038 222.915 91.4812C223.014 91.7585 222.868 92.0627 222.59 92.1599L218.76 93.4994C218.499 93.5908 218.213 93.453 218.12 93.1923C218.027 92.9317 218.161 92.6441 218.421 92.5495L222.234 91.1619Z" fill="#5A5257"/>
<path d="M224.445 98.1781C224.73 98.1019 225.022 98.2706 225.097 98.5555C225.171 98.8404 224.999 99.1306 224.713 99.2033L220.782 100.204C220.513 100.272 220.241 100.11 220.171 99.8422C220.101 99.5744 220.259 99.2997 220.527 99.228L224.445 98.1781Z" fill="#5A5257"/>
<path d="M212.069 71.6366C212.311 71.4677 212.643 71.5263 212.811 71.7685C212.978 72.0108 212.915 72.3425 212.672 72.5084L209.32 74.7933C209.091 74.9492 208.779 74.8901 208.622 74.6624C208.465 74.4347 208.519 74.1223 208.746 73.9635L212.069 71.6366Z" fill="#5A5257"/>
<path d="M207.592 65.7999C207.818 65.6106 208.154 65.64 208.342 65.8667C208.53 66.0935 208.496 66.4295 208.268 66.6159L205.128 69.1843C204.913 69.3595 204.598 69.3278 204.421 69.1146C204.245 68.9015 204.272 68.5855 204.484 68.4076L207.592 65.7999Z" fill="#5A5257"/>
<path d="M197.198 55.407C197.388 55.1815 197.724 55.1519 197.948 55.3426C198.173 55.5333 198.198 55.87 198.006 56.0932L195.359 59.1679C195.179 59.3777 194.862 59.4012 194.651 59.222C194.441 59.0427 194.413 58.7268 194.591 58.5147L197.198 55.407Z" fill="#5A5257"/>
<path d="M191.363 50.9299C191.531 50.6887 191.864 50.63 192.104 50.8004C192.344 50.9708 192.399 51.3041 192.227 51.5431L189.858 54.8368C189.697 55.0615 189.384 55.1125 189.158 54.9524C188.932 54.7922 188.877 54.4798 189.036 54.2531L191.363 50.9299Z" fill="#5A5257"/>
<path d="M224.445 141.824C224.729 141.9 224.898 142.192 224.82 142.476C224.742 142.76 224.448 142.925 224.164 142.846L220.259 141.746C219.993 141.671 219.838 141.395 219.911 141.128C219.984 140.861 220.259 140.702 220.526 140.774L224.445 141.824Z" fill="#5A5257"/>
<path d="M222.233 148.838C222.509 148.939 222.652 149.245 222.55 149.521C222.447 149.797 222.14 149.936 221.864 149.832L218.07 148.396C217.811 148.298 217.68 148.009 217.777 147.75C217.873 147.49 218.161 147.356 218.421 147.451L222.233 148.838Z" fill="#5A5257"/>
<path d="M219.418 155.632C219.685 155.757 219.8 156.074 219.674 156.34C219.548 156.606 219.229 156.718 218.964 156.59L215.309 154.829C215.06 154.709 214.955 154.41 215.074 154.16C215.192 153.91 215.49 153.801 215.741 153.918L219.418 155.632Z" fill="#5A5257"/>
<path d="M216.022 162.158C216.277 162.305 216.364 162.631 216.216 162.885C216.067 163.14 215.739 163.223 215.486 163.072L211.999 161C211.761 160.859 211.683 160.551 211.823 160.312C211.963 160.073 212.269 159.991 212.509 160.13L216.022 162.158Z" fill="#5A5257"/>
<path d="M202.622 179.623C202.83 179.831 202.83 180.168 202.62 180.375C202.411 180.582 202.073 180.578 201.868 180.367L199.035 177.463C198.842 177.264 198.846 176.947 199.043 176.753C199.24 176.558 199.557 176.558 199.753 176.754L202.622 179.623Z" fill="#5A5257"/>
<path d="M185.159 193.022C185.306 193.277 185.219 193.603 184.963 193.749C184.707 193.894 184.382 193.803 184.238 193.546L182.254 190.007C182.119 189.766 182.205 189.461 182.445 189.324C182.686 189.187 182.992 189.269 183.131 189.509L185.159 193.022Z" fill="#5A5257"/>
<path d="M178.634 196.419C178.758 196.686 178.643 197.004 178.375 197.126C178.108 197.249 177.792 197.129 177.671 196.861L176.003 193.163C175.889 192.911 176.001 192.614 176.253 192.499C176.504 192.383 176.802 192.492 176.919 192.743L178.634 196.419Z" fill="#5A5257"/>
<path d="M171.838 199.234C171.938 199.511 171.796 199.817 171.518 199.916C171.241 200.015 170.937 199.869 170.84 199.591L169.5 195.761C169.409 195.5 169.547 195.214 169.807 195.121C170.068 195.028 170.355 195.162 170.45 195.422L171.838 199.234Z" fill="#5A5257"/>
<path d="M164.823 201.445C164.899 201.73 164.73 202.022 164.445 202.097C164.16 202.171 163.87 201.999 163.797 201.713L162.797 197.782C162.728 197.513 162.891 197.241 163.158 197.171C163.426 197.101 163.701 197.259 163.773 197.527L164.823 201.445Z" fill="#5A5257"/>
<path d="M191.362 189.071C191.531 189.312 191.473 189.645 191.23 189.812C190.988 189.98 190.656 189.917 190.49 189.673L188.205 186.321C188.05 186.093 188.109 185.781 188.336 185.624C188.564 185.466 188.877 185.521 189.035 185.748L191.362 189.071Z" fill="#5A5257"/>
<path d="M197.198 184.592C197.387 184.818 197.358 185.154 197.131 185.342C196.904 185.53 196.568 185.496 196.382 185.268L193.813 182.128C193.638 181.914 193.67 181.598 193.883 181.422C194.096 181.245 194.412 181.272 194.59 181.485L197.198 184.592Z" fill="#5A5257"/>
<path d="M207.591 174.199C207.816 174.388 207.846 174.725 207.655 174.949C207.464 175.173 207.128 175.199 206.905 175.006L203.83 172.36C203.62 172.179 203.597 171.863 203.776 171.652C203.955 171.441 204.271 171.413 204.483 171.591L207.591 174.199Z" fill="#5A5257"/>
<path d="M212.069 168.362C212.31 168.531 212.369 168.864 212.198 169.104C212.028 169.344 211.695 169.398 211.456 169.227L208.162 166.858C207.937 166.696 207.886 166.383 208.046 166.158C208.207 165.932 208.519 165.877 208.746 166.036L212.069 168.362Z" fill="#5A5257"/>
<path d="M121.176 201.448C121.1 201.733 120.808 201.902 120.524 201.824C120.24 201.746 120.075 201.451 120.154 201.168L121.254 197.262C121.329 196.996 121.605 196.841 121.872 196.914C122.139 196.988 122.298 197.262 122.226 197.53L121.176 201.448Z" fill="#5A5257"/>
<path d="M114.161 199.233C114.06 199.51 113.754 199.653 113.478 199.55C113.202 199.448 113.063 199.14 113.167 198.864L114.603 195.07C114.701 194.811 114.99 194.681 115.249 194.777C115.509 194.873 115.643 195.161 115.548 195.421L114.161 199.233Z" fill="#5A5257"/>
<path d="M107.365 196.421C107.24 196.688 106.923 196.803 106.657 196.677C106.391 196.551 106.279 196.232 106.407 195.967L108.168 192.312C108.288 192.063 108.587 191.958 108.837 192.077C109.088 192.195 109.196 192.493 109.079 192.744L107.365 196.421Z" fill="#5A5257"/>
<path d="M100.84 193.024C100.693 193.279 100.367 193.366 100.113 193.217C99.8586 193.069 99.7754 192.741 99.9258 192.488L101.998 189.001C102.14 188.763 102.447 188.685 102.686 188.824C102.925 188.964 103.007 189.271 102.869 189.51L100.84 193.024Z" fill="#5A5257"/>
<path d="M83.3765 179.623C83.1683 179.832 82.8306 179.832 82.6237 179.622C82.4168 179.413 82.4212 179.075 82.632 178.87L85.5364 176.037C85.7346 175.844 86.0518 175.848 86.2462 176.045C86.4407 176.242 86.4408 176.559 86.2451 176.755L83.3765 179.623Z" fill="#5A5257"/>
<path d="M69.9766 162.161C69.7216 162.308 69.3954 162.221 69.2497 161.965C69.1041 161.709 69.1957 161.384 69.4526 161.24L72.9911 159.256C73.2325 159.12 73.5378 159.206 73.6747 159.447C73.8116 159.688 73.7296 159.994 73.4899 160.132L69.9766 162.161Z" fill="#5A5257"/>
<path d="M66.5797 155.636C66.3128 155.761 65.9955 155.646 65.8727 155.378C65.7499 155.11 65.8695 154.794 66.1379 154.673L69.8359 153.005C70.0882 152.891 70.3849 153.004 70.5002 153.255C70.6156 153.507 70.5073 153.805 70.2564 153.922L66.5797 155.636Z" fill="#5A5257"/>
<path d="M63.765 148.838C63.4883 148.939 63.1822 148.796 63.0833 148.519C62.9843 148.241 63.131 147.937 63.4089 147.84L67.2382 146.501C67.4994 146.409 67.7852 146.547 67.8782 146.808C67.9712 147.068 67.8373 147.356 67.5772 147.45L63.765 148.838Z" fill="#5A5257"/>
<path d="M61.5527 141.826C61.2683 141.902 60.9757 141.733 60.9013 141.448C60.8269 141.163 60.9995 140.873 61.2849 140.801L65.2163 139.8C65.4846 139.732 65.7572 139.894 65.8271 140.162C65.8971 140.429 65.7386 140.704 65.4713 140.776L61.5527 141.826Z" fill="#5A5257"/>
<path d="M73.9287 168.362C73.6875 168.531 73.3549 168.473 73.1875 168.231C73.0202 167.988 73.0831 167.657 73.3264 167.491L76.6785 165.206C76.9072 165.05 77.2189 165.109 77.3762 165.337C77.5335 165.564 77.4786 165.877 77.2518 166.036L73.9287 168.362Z" fill="#5A5257"/>
<path d="M78.4066 174.2C78.181 174.389 77.8446 174.36 77.6567 174.133C77.4689 173.907 77.5027 173.571 77.7306 173.384L80.8708 170.816C81.0851 170.641 81.4007 170.672 81.5773 170.885C81.7538 171.099 81.7263 171.415 81.5143 171.592L78.4066 174.2Z" fill="#5A5257"/>
<path d="M88.7997 184.593C88.6105 184.819 88.2741 184.848 88.0497 184.657C87.8253 184.467 87.8002 184.13 87.9923 183.907L90.6388 180.832C90.8194 180.622 91.1357 180.599 91.3466 180.778C91.5575 180.957 91.5853 181.273 91.4074 181.485L88.7997 184.593Z" fill="#5A5257"/>
<path d="M94.6354 189.069C94.4666 189.31 94.134 189.369 93.8939 189.199C93.6537 189.028 93.5994 188.695 93.7713 188.456L96.1398 185.162C96.3014 184.938 96.6144 184.887 96.8402 185.047C97.0659 185.207 97.1211 185.519 96.9623 185.746L94.6354 189.069Z" fill="#5A5257"/>
<path d="M61.553 98.1762C61.2686 98.0999 61.0996 97.8076 61.1776 97.5236C61.2556 97.2397 61.5502 97.0746 61.8337 97.1544L65.7387 98.2536C66.0052 98.3285 66.1602 98.6053 66.0869 98.8722C66.0136 99.1391 65.7389 99.2978 65.4716 99.2261L61.553 98.1762Z" fill="#5A5257"/>
<path d="M63.7653 91.1618C63.4886 91.0611 63.3458 90.7551 63.4482 90.479C63.5507 90.203 63.8585 90.0642 64.134 90.1684L67.9284 91.6037C68.1873 91.7016 68.3176 91.9908 68.2213 92.2503C68.125 92.5098 67.8376 92.644 67.5775 92.5493L63.7653 91.1618Z" fill="#5A5257"/>
<path d="M66.5806 84.3657C66.3137 84.2412 66.1981 83.9239 66.3242 83.6579C66.4503 83.3918 66.7691 83.2804 67.0344 83.4082L70.6893 85.1687C70.9386 85.2888 71.0433 85.5883 70.9247 85.8384C70.8062 86.0885 70.5081 86.1971 70.2573 86.0801L66.5806 84.3657Z" fill="#5A5257"/>
<path d="M69.9767 77.8401C69.7217 77.6929 69.6341 77.3667 69.783 77.1126C69.9318 76.8586 70.2591 76.7754 70.5122 76.9258L73.9998 78.9982C74.2377 79.1396 74.3158 79.447 74.1759 79.6859C74.036 79.9247 73.7297 80.0069 73.49 79.8685L69.9767 77.8401Z" fill="#5A5257"/>
<path d="M83.377 60.3775C83.1688 60.1693 83.1687 59.8316 83.3782 59.6247C83.5877 59.4178 83.9254 59.4222 84.1309 59.633L86.9633 62.5374C87.1565 62.7356 87.1524 63.0527 86.9555 63.2472C86.7585 63.4417 86.4413 63.4418 86.2456 63.2461L83.377 60.3775Z" fill="#5A5257"/>
<path d="M100.84 46.9762C100.692 46.7212 100.78 46.3949 101.036 46.2493C101.291 46.1037 101.616 46.1953 101.76 46.4521L103.745 49.9907C103.88 50.2321 103.794 50.5374 103.553 50.6743C103.313 50.8112 103.006 50.7292 102.868 50.4895L100.84 46.9762Z" fill="#5A5257"/>
<path d="M107.365 43.5787C107.24 43.3119 107.356 42.9945 107.623 42.8717C107.891 42.749 108.207 42.8686 108.328 43.137L109.996 46.8349C110.11 47.0872 109.997 47.3839 109.746 47.4993C109.494 47.6147 109.196 47.5063 109.079 47.2554L107.365 43.5787Z" fill="#5A5257"/>
<path d="M114.16 40.7655C114.06 40.4888 114.202 40.1827 114.48 40.0837C114.757 39.9847 115.061 40.1314 115.158 40.4093L116.498 44.2386C116.589 44.4999 116.451 44.7856 116.191 44.8786C115.93 44.9717 115.643 44.8377 115.548 44.5776L114.16 40.7655Z" fill="#5A5257"/>
<path d="M121.175 38.5546C121.099 38.2702 121.268 37.9777 121.553 37.9033C121.838 37.8289 122.128 38.0015 122.201 38.2868L123.201 42.2183C123.27 42.4865 123.107 42.7591 122.84 42.8291C122.572 42.8991 122.297 42.7406 122.225 42.4732L121.175 38.5546Z" fill="#5A5257"/>
<path d="M94.6358 50.929C94.4669 50.6878 94.5255 50.3552 94.7677 50.1879C95.01 50.0205 95.3418 50.0834 95.5076 50.3267L97.7925 53.6788C97.9484 53.9075 97.8893 54.2192 97.6616 54.3765C97.4339 54.5339 97.1215 54.4789 96.9627 54.2522L94.6358 50.929Z" fill="#5A5257"/>
<path d="M88.8002 55.4078C88.611 55.1822 88.6403 54.8458 88.867 54.658C89.0938 54.4701 89.4298 54.5039 89.6162 54.7318L92.1846 57.872C92.3598 58.0863 92.3281 58.4019 92.115 58.5785C91.9018 58.7551 91.5858 58.7275 91.4079 58.5155L88.8002 55.4078Z" fill="#5A5257"/>
<path d="M78.4074 65.8009C78.1818 65.6117 78.1522 65.2753 78.3429 65.0509C78.5336 64.8265 78.8704 64.8015 79.0935 64.9935L82.1682 67.6401C82.378 67.8206 82.4015 68.137 82.2223 68.3479C82.0431 68.5588 81.7271 68.5865 81.5151 68.4086L78.4074 65.8009Z" fill="#5A5257"/>
<path d="M73.9292 71.6357C73.688 71.4668 73.6292 71.1343 73.7996 70.8941C73.97 70.654 74.3033 70.5996 74.5424 70.7716L77.836 73.14C78.0607 73.3016 78.1118 73.6147 77.9516 73.8404C77.7914 74.0661 77.479 74.1213 77.2523 73.9626L73.9292 71.6357Z" fill="#5A5257"/>
<rect x="2" y="2" width="283" height="283" rx="18" stroke="#1A1016" stroke-width="4"/>
<circle cx="142.225" cy="119.999" r="62.2249" fill="#1A1016"/>
<path d="M157.479 202.873C157.531 203.163 157.337 203.439 157.047 203.489C156.756 203.538 156.482 203.341 156.435 203.05L155.781 199.046C155.736 198.773 155.921 198.516 156.194 198.469C156.467 198.423 156.727 198.605 156.775 198.877L157.479 202.873Z" fill="#5A5257"/>
<path d="M150.186 203.833C150.212 204.126 149.995 204.385 149.702 204.409C149.408 204.432 149.152 204.212 149.13 203.918L148.828 199.873C148.807 199.597 149.014 199.357 149.29 199.334C149.566 199.312 149.809 199.516 149.833 199.791L150.186 203.833Z" fill="#5A5257"/>
<path d="M142.837 204.153C142.837 204.447 142.599 204.686 142.304 204.684C142.01 204.683 141.774 204.441 141.778 204.146L141.829 200.09C141.832 199.813 142.059 199.592 142.336 199.593C142.613 199.595 142.837 199.819 142.837 200.096L142.837 204.153Z" fill="#5A5257"/>
<path d="M128.197 202.875C128.146 203.165 127.869 203.359 127.58 203.306C127.29 203.253 127.1 202.974 127.155 202.685L127.909 198.699C127.961 198.427 128.223 198.248 128.495 198.298C128.768 198.348 128.95 198.608 128.901 198.88L128.197 202.875Z" fill="#5A5257"/>
<path d="M135.49 203.836C135.464 204.129 135.206 204.346 134.913 204.319C134.619 204.291 134.406 204.03 134.435 203.737L134.839 199.7C134.867 199.425 135.113 199.224 135.388 199.25C135.664 199.276 135.868 199.518 135.844 199.794L135.49 203.836Z" fill="#5A5257"/>
<path d="M225.875 105.192C226.165 105.141 226.442 105.334 226.491 105.625C226.54 105.915 226.343 106.189 226.052 106.236L222.049 106.891C221.775 106.935 221.518 106.75 221.472 106.477C221.425 106.204 221.607 105.944 221.88 105.896L225.875 105.192Z" fill="#5A5257"/>
<path d="M226.835 112.485C227.128 112.459 227.387 112.676 227.411 112.969C227.435 113.263 227.214 113.519 226.921 113.541L222.875 113.844C222.599 113.864 222.359 113.657 222.337 113.381C222.314 113.105 222.518 112.862 222.794 112.838L226.835 112.485Z" fill="#5A5257"/>
<path d="M227.156 119.836C227.45 119.836 227.689 120.075 227.687 120.369C227.685 120.664 227.444 120.899 227.149 120.896L223.093 120.845C222.816 120.841 222.595 120.614 222.596 120.337C222.598 120.061 222.822 119.836 223.099 119.836L227.156 119.836Z" fill="#5A5257"/>
<path d="M225.876 134.476C226.166 134.527 226.359 134.804 226.306 135.094C226.253 135.383 225.974 135.573 225.685 135.519L221.699 134.764C221.427 134.713 221.248 134.45 221.298 134.178C221.348 133.906 221.608 133.724 221.88 133.772L225.876 134.476Z" fill="#5A5257"/>
<path d="M226.836 127.183C227.129 127.209 227.346 127.468 227.319 127.761C227.291 128.054 227.03 128.268 226.737 128.238L222.7 127.834C222.425 127.806 222.224 127.561 222.25 127.285C222.276 127.01 222.519 126.806 222.794 126.83L226.836 127.183Z" fill="#5A5257"/>
<path d="M59.7985 134.479C59.5085 134.53 59.2318 134.337 59.1825 134.046C59.1332 133.756 59.3304 133.482 59.621 133.435L63.6247 132.78C63.8979 132.736 64.1554 132.921 64.2017 133.194C64.2481 133.467 64.0662 133.727 63.7936 133.775L59.7985 134.479Z" fill="#5A5257"/>
<path d="M58.8383 127.186C58.545 127.212 58.2862 126.995 58.2624 126.702C58.2386 126.408 58.459 126.152 58.7526 126.13L62.7981 125.827C63.0741 125.807 63.3145 126.014 63.3368 126.29C63.3592 126.566 63.1554 126.809 62.8797 126.833L58.8383 127.186Z" fill="#5A5257"/>
<path d="M58.518 119.831C58.2236 119.831 57.9847 119.592 57.9865 119.298C57.9884 119.004 58.2303 118.768 58.5247 118.772L62.5812 118.823C62.8579 118.826 63.0793 119.053 63.0776 119.33C63.0758 119.607 62.8516 119.831 62.5748 119.831L58.518 119.831Z" fill="#5A5257"/>
<path d="M59.7983 105.193C59.5083 105.142 59.3145 104.865 59.3675 104.575C59.4204 104.286 59.6995 104.096 59.9888 104.15L63.9749 104.905C64.2468 104.957 64.4254 105.219 64.3756 105.491C64.3258 105.763 64.0661 105.945 63.7935 105.897L59.7983 105.193Z" fill="#5A5257"/>
<path d="M58.8382 112.486C58.5448 112.46 58.3277 112.201 58.3552 111.908C58.3827 111.615 58.6442 111.401 58.9371 111.431L62.9738 111.835C63.2492 111.863 63.4499 112.108 63.424 112.384C63.3982 112.659 63.1553 112.863 62.8795 112.839L58.8382 112.486Z" fill="#5A5257"/>
</svg>
