<svg width="135" height="39" viewBox="0 0 135 39" fill="none" xmlns="http://www.w3.org/2000/svg">
<rect width="135" height="39" rx="19.5" fill="#1A1016"/>
<path d="M28.24 24L27.68 21.856H23.968L23.392 24H20L23.728 12.528H27.84L31.616 24H28.24ZM26.544 17.456C26.4907 17.2533 26.416 16.9653 26.32 16.592C26.224 16.208 26.128 15.8133 26.032 15.408C25.936 15.0027 25.8613 14.672 25.808 14.416C25.7653 14.672 25.696 14.992 25.6 15.376C25.5147 15.76 25.424 16.1387 25.328 16.512C25.2427 16.8853 25.168 17.2 25.104 17.456L24.608 19.328H27.04L26.544 17.456ZM41.0654 15.152V24H38.0094V17.424H35.7214V24H32.6654V15.152H41.0654ZM49.757 15.152V17.424H46.237V24H43.181V15.152H49.757ZM56.6046 14.992C57.586 14.992 58.354 15.3867 58.9086 16.176C59.4633 16.9547 59.7406 18.08 59.7406 19.552C59.7406 20.5547 59.5966 21.4027 59.3086 22.096C59.0313 22.7787 58.6473 23.296 58.1566 23.648C57.6766 23.9893 57.1273 24.16 56.5086 24.16C56.0926 24.16 55.7406 24.1067 55.4526 24C55.1646 23.8933 54.9246 23.7653 54.7326 23.616C54.5406 23.456 54.3806 23.296 54.2526 23.136H54.1566C54.178 23.3387 54.1993 23.5573 54.2206 23.792C54.242 24.0267 54.2526 24.2987 54.2526 24.608V27.84H51.1966V15.152H53.6766L54.1086 16.272H54.2526C54.402 16.0373 54.578 15.824 54.7806 15.632C54.994 15.44 55.25 15.2853 55.5486 15.168C55.8473 15.0507 56.1993 14.992 56.6046 14.992ZM55.4526 17.392C55.154 17.392 54.9193 17.4667 54.7486 17.616C54.578 17.7547 54.4553 17.9627 54.3806 18.24C54.306 18.5173 54.2633 18.8693 54.2526 19.296V19.536C54.2526 20.0053 54.2846 20.4 54.3486 20.72C54.4233 21.04 54.5513 21.2853 54.7326 21.456C54.914 21.616 55.1593 21.696 55.4686 21.696C55.7246 21.696 55.938 21.6267 56.1086 21.488C56.29 21.3387 56.4233 21.104 56.5086 20.784C56.594 20.464 56.6366 20.0427 56.6366 19.52C56.6366 18.7413 56.5353 18.192 56.3326 17.872C56.13 17.552 55.8366 17.392 55.4526 17.392ZM65.4619 14.992C66.3259 14.992 67.0672 15.1413 67.6859 15.44C68.3152 15.7387 68.7952 16.1867 69.1259 16.784C69.4672 17.3813 69.6379 18.1333 69.6379 19.04V20.4H64.1819C64.2032 20.8587 64.3739 21.2373 64.6939 21.536C65.0245 21.8347 65.4992 21.984 66.1179 21.984C66.6725 21.984 67.1792 21.9307 67.6379 21.824C68.0965 21.7173 68.5712 21.5467 69.0619 21.312V23.504C68.6352 23.728 68.1659 23.8933 67.6539 24C67.1525 24.1067 66.5179 24.16 65.7499 24.16C64.8539 24.16 64.0539 24.0053 63.3499 23.696C62.6565 23.376 62.1072 22.88 61.7019 22.208C61.2965 21.536 61.0939 20.6773 61.0939 19.632C61.0939 18.5653 61.2752 17.6907 61.6379 17.008C62.0112 16.3253 62.5232 15.8187 63.1739 15.488C63.8352 15.1573 64.5979 14.992 65.4619 14.992ZM65.5739 17.072C65.2112 17.072 64.9072 17.184 64.6619 17.408C64.4272 17.632 64.2885 17.9893 64.2459 18.48H66.8699C66.8699 18.2133 66.8165 17.9787 66.7099 17.776C66.6139 17.5627 66.4699 17.392 66.2779 17.264C66.0859 17.136 65.8512 17.072 65.5739 17.072ZM79.9605 11.328C79.8965 11.9147 79.7258 12.432 79.4485 12.88C79.1712 13.328 78.7605 13.68 78.2165 13.936C77.6725 14.1813 76.9632 14.304 76.0885 14.304C75.2458 14.304 74.5472 14.1973 73.9925 13.984C73.4485 13.76 73.0378 13.4293 72.7605 12.992C72.4832 12.544 72.3178 11.9893 72.2645 11.328H74.8085C74.8405 11.8933 74.9632 12.2773 75.1765 12.48C75.4005 12.6827 75.7045 12.784 76.0885 12.784C76.4298 12.784 76.7178 12.6827 76.9525 12.48C77.1872 12.2667 77.3258 11.8827 77.3685 11.328H79.9605ZM74.1525 18.592C74.1525 18.7733 74.1472 18.9653 74.1365 19.168C74.1365 19.36 74.1312 19.552 74.1205 19.744C74.1098 19.936 74.0938 20.1227 74.0725 20.304C74.0618 20.4853 74.0512 20.656 74.0405 20.816L77.3845 15.152H80.7125V24H77.9285V20.8C77.9285 20.5227 77.9285 20.2347 77.9285 19.936C77.9392 19.6373 77.9552 19.3493 77.9765 19.072C77.9978 18.784 78.0192 18.528 78.0405 18.304L74.6645 24H71.3685V15.152H74.1525V18.592ZM91.4136 15.152V21.728H92.7256V27.248H90.0536V24H84.6296V27.248H81.9576V21.728H82.7416C83.051 21.2053 83.323 20.5973 83.5576 19.904C83.803 19.2 84.0056 18.4427 84.1656 17.632C84.3363 16.8213 84.459 15.9947 84.5336 15.152H91.4136ZM86.8856 17.424C86.8216 17.9253 86.7416 18.4107 86.6456 18.88C86.5496 19.3387 86.4323 19.8027 86.2936 20.272C86.155 20.7307 85.9896 21.216 85.7976 21.728H88.3576V17.424H86.8856Z" fill="#5A5257"/>
<path d="M100.487 20.9664L101.02 22.1664L102.193 24.8064C102.507 25.4997 103 26.0664 104.133 26.0664H109.867C111 26.0664 111.493 25.4997 111.807 24.8064L112.98 22.1664L113.513 20.9664C113.82 20.2664 113.653 19.2397 113.14 18.6731L108.573 13.6464C107.707 12.6931 106.293 12.6931 105.427 13.6464L100.86 18.6731C100.347 19.2397 100.18 20.2664 100.487 20.9664Z" fill="#5A5257"/>
</svg>
