<svg width="431" height="431" viewBox="0 0 431 431" fill="none" xmlns="http://www.w3.org/2000/svg">
<circle cx="215.5" cy="215.5" r="215.5" fill="#1A1016"/>
<path fill-rule="evenodd" clip-rule="evenodd" d="M160.748 177.662C158.028 201.46 165.266 255.983 215.985 283.684C255.311 259.94 263.637 228.776 264.957 225.149C264.462 224.572 263.609 224.068 262.153 223.5C260.885 223.005 259.268 222.676 258.279 222.511C256.547 228.859 250.463 244.177 239.976 254.664C229.671 247.986 219.695 235.125 229.836 223.418C237.75 215.091 253.662 217.564 256.877 217.894C253.843 215.783 248.138 214.047 245.665 213.442C251.243 212.37 263.654 212.815 268.666 223.17C271.222 216.327 272.294 203.219 249.21 197.118C254.239 191.594 250.941 184.834 234.453 179.888C217.964 174.941 203.042 172.633 193.313 165.625C183.585 158.617 182.101 151.362 182.431 148.312C180.04 150.95 168.993 174.941 205.103 187.802C186.8 186.565 179.958 184.834 175.341 172.385C171.317 173.638 163.936 176.425 160.748 177.662ZM227.527 267.112L232.556 262.743C230.495 261.424 224.658 256.988 217.799 249.799C205.993 236.543 209.692 221.247 213.017 215.256C209.802 217.784 203.767 225.775 205.35 237.515C207.263 251.3 220.932 262.99 227.527 267.112ZM183.338 222.511C176.94 236.757 188.477 251.421 195.045 256.972C189.356 248.233 184.739 238.34 188.779 225.149C192.011 214.596 204.581 205.362 210.462 202.065C204.086 202.944 189.735 208.265 183.338 222.511ZM241.378 196.294C237.618 192.732 226.62 190.633 221.591 190.028C219.53 189.743 227.857 192.172 228.929 193.738C230.413 196.294 230.578 198.107 232.969 198.602C235.359 199.097 242.367 197.118 241.378 196.294ZM176 228.034C168.284 209.699 167.948 190.825 168.745 183.68C170.532 182.773 174.863 181.042 177.896 181.372C180.452 190.358 186.058 192.254 192.654 195.882C180.205 203.961 174.599 212.535 176 228.034Z" fill="url(#paint0_linear_5_3974)"/>
<path d="M269.821 202.312C270.205 196.129 270.678 182.707 269.491 178.486C263.225 175.271 243.109 165.625 208.4 167.768C225.384 173.539 255.311 177.991 262.401 183.845C262.862 187.011 262.593 194.013 262.401 197.118C264.572 198.437 269.095 201.323 269.821 202.312Z" fill="url(#paint1_linear_5_3974)"/>
<path d="M254.53 72.8157C254.664 72.3152 255.178 72.0179 255.678 72.1552C256.178 72.2924 256.468 72.8108 256.328 73.3096L254.394 80.181C254.262 80.6498 253.775 80.9226 253.305 80.7936C252.836 80.6646 252.556 80.1813 252.682 79.7109L254.53 72.8157Z" fill="#EB2B2B"/>
<path d="M266.874 76.7079C267.051 76.221 267.59 75.9697 268.075 76.1499C268.561 76.3302 268.805 76.8719 268.622 77.3565L266.096 84.0333C265.924 84.4888 265.415 84.7181 264.959 84.5487C264.502 84.3792 264.266 83.8734 264.433 83.4158L266.874 76.7079Z" fill="#EB2B2B"/>
<path d="M278.832 81.6612C279.051 81.1916 279.61 80.9882 280.078 81.2101C280.546 81.432 280.742 81.993 280.517 82.4598L277.419 88.891C277.208 89.3298 276.681 89.5139 276.241 89.3053C275.801 89.0967 275.61 88.5722 275.816 88.1308L278.832 81.6612Z" fill="#EB2B2B"/>
<path d="M290.314 87.6379C290.573 87.1892 291.147 87.0352 291.594 87.2971C292.041 87.5589 292.187 88.1348 291.922 88.5802L288.276 94.717C288.027 95.1357 287.486 95.2731 287.066 95.027C286.645 94.7808 286.501 94.2417 286.744 93.8199L290.314 87.6379Z" fill="#EB2B2B"/>
<path d="M321.042 111.216C321.408 110.85 322.003 110.85 322.367 111.219C322.731 111.587 322.723 112.181 322.352 112.543L317.242 117.527C316.893 117.867 316.335 117.86 315.993 117.513C315.65 117.167 315.65 116.609 315.994 116.264L321.042 111.216Z" fill="#EB2B2B"/>
<path d="M344.621 141.945C345.07 141.686 345.644 141.839 345.9 142.29C346.156 142.74 345.995 143.312 345.543 143.565L339.317 147.056C338.892 147.295 338.355 147.143 338.114 146.72C337.873 146.297 338.017 145.757 338.439 145.514L344.621 141.945Z" fill="#EB2B2B"/>
<path d="M350.598 153.426C351.067 153.207 351.626 153.41 351.842 153.881C352.058 154.352 351.847 154.907 351.375 155.12L344.868 158.056C344.424 158.256 343.902 158.058 343.699 157.616C343.496 157.173 343.687 156.648 344.128 156.443L350.598 153.426Z" fill="#EB2B2B"/>
<path d="M355.551 165.384C356.038 165.207 356.577 165.458 356.751 165.946C356.925 166.434 356.667 166.969 356.178 167.14L349.44 169.497C348.98 169.658 348.477 169.415 348.314 168.957C348.15 168.498 348.386 167.992 348.843 167.826L355.551 165.384Z" fill="#EB2B2B"/>
<path d="M359.443 177.728C359.944 177.594 360.458 177.891 360.589 178.393C360.72 178.894 360.416 179.405 359.914 179.532L352.996 181.293C352.524 181.413 352.045 181.128 351.922 180.657C351.799 180.185 352.077 179.702 352.548 179.576L359.443 177.728Z" fill="#EB2B2B"/>
<path d="M337.667 131.028C338.091 130.731 338.676 130.834 338.971 131.26C339.265 131.686 339.155 132.27 338.727 132.562L332.828 136.583C332.426 136.857 331.877 136.753 331.601 136.352C331.324 135.952 331.42 135.402 331.819 135.123L337.667 131.028Z" fill="#EB2B2B"/>
<path d="M329.788 120.759C330.184 120.426 330.776 120.478 331.107 120.877C331.438 121.276 331.378 121.867 330.977 122.195L325.451 126.715C325.074 127.023 324.519 126.967 324.208 126.592C323.898 126.217 323.946 125.661 324.319 125.348L329.788 120.759Z" fill="#EB2B2B"/>
<path d="M311.499 102.472C311.832 102.075 312.424 102.023 312.819 102.359C313.214 102.694 313.258 103.287 312.92 103.679L308.263 109.09C307.945 109.459 307.389 109.5 307.018 109.185C306.646 108.869 306.598 108.313 306.911 107.94L311.499 102.472Z" fill="#EB2B2B"/>
<path d="M301.231 94.5923C301.528 94.1679 302.113 94.0645 302.536 94.3644C302.958 94.6642 303.054 95.2507 302.751 95.6713L298.584 101.467C298.299 101.862 297.748 101.952 297.351 101.67C296.954 101.388 296.857 100.839 297.136 100.44L301.231 94.5923Z" fill="#EB2B2B"/>
<path d="M359.443 254.529C359.943 254.664 360.241 255.178 360.103 255.678C359.966 256.177 359.448 256.468 358.949 256.327L352.078 254.393C351.609 254.261 351.336 253.774 351.465 253.305C351.594 252.835 352.077 252.556 352.548 252.682L359.443 254.529Z" fill="#EB2B2B"/>
<path d="M355.551 266.874C356.038 267.051 356.289 267.589 356.109 268.075C355.928 268.561 355.387 268.805 354.902 268.622L348.225 266.096C347.77 265.924 347.541 265.415 347.71 264.958C347.879 264.502 348.385 264.266 348.843 264.432L355.551 266.874Z" fill="#EB2B2B"/>
<path d="M350.597 278.832C351.067 279.051 351.27 279.61 351.048 280.078C350.827 280.546 350.266 280.742 349.799 280.517L343.368 277.419C342.929 277.208 342.745 276.681 342.953 276.241C343.162 275.801 343.686 275.61 344.128 275.815L350.597 278.832Z" fill="#EB2B2B"/>
<path d="M344.621 290.313C345.07 290.572 345.224 291.146 344.962 291.593C344.7 292.04 344.124 292.187 343.679 291.922L337.542 288.275C337.124 288.026 336.986 287.485 337.232 287.065C337.478 286.645 338.018 286.5 338.439 286.744L344.621 290.313Z" fill="#EB2B2B"/>
<path d="M321.042 321.042C321.409 321.408 321.409 322.002 321.04 322.366C320.671 322.73 320.077 322.723 319.716 322.352L314.732 317.241C314.392 316.892 314.399 316.334 314.745 315.992C315.092 315.65 315.65 315.65 315.995 315.994L321.042 321.042Z" fill="#EB2B2B"/>
<path d="M290.315 344.621C290.574 345.07 290.42 345.644 289.97 345.9C289.519 346.157 288.947 345.995 288.694 345.543L285.203 339.317C284.965 338.892 285.116 338.355 285.539 338.114C285.963 337.873 286.502 338.018 286.745 338.439L290.315 344.621Z" fill="#EB2B2B"/>
<path d="M278.833 350.598C279.052 351.067 278.849 351.626 278.378 351.842C277.907 352.058 277.351 351.847 277.138 351.375L274.203 344.868C274.003 344.424 274.2 343.902 274.643 343.699C275.086 343.496 275.61 343.687 275.816 344.128L278.833 350.598Z" fill="#EB2B2B"/>
<path d="M266.875 355.551C267.052 356.038 266.801 356.577 266.313 356.751C265.825 356.925 265.29 356.667 265.119 356.178L262.762 349.44C262.601 348.98 262.843 348.477 263.302 348.314C263.761 348.15 264.267 348.386 264.433 348.843L266.875 355.551Z" fill="#EB2B2B"/>
<path d="M254.53 359.443C254.664 359.944 254.367 360.459 253.866 360.59C253.365 360.72 252.854 360.417 252.726 359.915L250.966 352.997C250.845 352.525 251.131 352.045 251.602 351.922C252.073 351.799 252.557 352.078 252.683 352.548L254.53 359.443Z" fill="#EB2B2B"/>
<path d="M301.23 337.666C301.528 338.091 301.425 338.676 300.998 338.97C300.572 339.265 299.988 339.154 299.696 338.726L295.676 332.828C295.401 332.425 295.506 331.877 295.906 331.6C296.307 331.323 296.857 331.42 297.136 331.819L301.23 337.666Z" fill="#EB2B2B"/>
<path d="M311.498 329.787C311.831 330.184 311.78 330.776 311.381 331.106C310.982 331.437 310.391 331.378 310.063 330.977L305.543 325.451C305.235 325.074 305.291 324.519 305.666 324.208C306.041 323.897 306.597 323.946 306.91 324.319L311.498 329.787Z" fill="#EB2B2B"/>
<path d="M329.786 311.499C330.183 311.832 330.235 312.424 329.899 312.819C329.564 313.214 328.971 313.258 328.578 312.92L323.168 308.263C322.799 307.945 322.758 307.389 323.073 307.017C323.388 306.646 323.944 306.598 324.318 306.911L329.786 311.499Z" fill="#EB2B2B"/>
<path d="M337.666 301.23C338.091 301.528 338.194 302.113 337.894 302.535C337.594 302.958 337.008 303.053 336.587 302.751L330.792 298.583C330.396 298.299 330.306 297.748 330.588 297.351C330.87 296.954 331.42 296.857 331.819 297.136L337.666 301.23Z" fill="#EB2B2B"/>
<path d="M177.729 359.443C177.595 359.944 177.08 360.241 176.581 360.104C176.081 359.966 175.791 359.448 175.931 358.949L177.865 352.078C177.997 351.609 178.484 351.336 178.954 351.465C179.423 351.594 179.703 352.078 179.576 352.548L177.729 359.443Z" fill="#EB2B2B"/>
<path d="M165.385 355.551C165.208 356.038 164.669 356.289 164.183 356.109C163.698 355.929 163.453 355.387 163.637 354.902L166.162 348.226C166.335 347.77 166.844 347.541 167.3 347.71C167.757 347.88 167.993 348.385 167.826 348.843L165.385 355.551Z" fill="#EB2B2B"/>
<path d="M153.426 350.598C153.207 351.067 152.649 351.271 152.181 351.049C151.713 350.827 151.517 350.266 151.742 349.799L154.84 343.368C155.051 342.929 155.578 342.745 156.018 342.954C156.458 343.162 156.649 343.687 156.443 344.128L153.426 350.598Z" fill="#EB2B2B"/>
<path d="M141.945 344.621C141.686 345.07 141.112 345.224 140.665 344.962C140.218 344.7 140.072 344.125 140.336 343.679L143.983 337.542C144.232 337.124 144.773 336.986 145.193 337.232C145.613 337.479 145.758 338.018 145.514 338.439L141.945 344.621Z" fill="#EB2B2B"/>
<path d="M111.217 321.042C110.85 321.409 110.256 321.409 109.892 321.04C109.528 320.672 109.536 320.077 109.907 319.716L115.017 314.732C115.366 314.392 115.924 314.399 116.266 314.746C116.609 315.092 116.609 315.65 116.264 315.995L111.217 321.042Z" fill="#EB2B2B"/>
<path d="M87.6378 290.315C87.1891 290.574 86.6151 290.42 86.3588 289.97C86.1026 289.52 86.2638 288.948 86.7157 288.694L92.9421 285.203C93.367 284.965 93.9042 285.116 94.145 285.539C94.3859 285.963 94.2416 286.502 93.8199 286.745L87.6378 290.315Z" fill="#EB2B2B"/>
<path d="M81.6611 278.833C81.1915 279.052 80.6331 278.849 80.4171 278.378C80.2011 277.907 80.4115 277.352 80.8838 277.138L87.3908 274.203C87.8347 274.003 88.3567 274.201 88.5598 274.643C88.7628 275.086 88.5721 275.611 88.1307 275.816L81.6611 278.833Z" fill="#EB2B2B"/>
<path d="M76.7076 266.875C76.2207 267.052 75.6821 266.801 75.508 266.313C75.3338 265.825 75.5919 265.29 76.081 265.119L82.819 262.762C83.2788 262.601 83.7815 262.843 83.9452 263.302C84.1089 263.761 83.8732 264.267 83.4156 264.433L76.7076 266.875Z" fill="#EB2B2B"/>
<path d="M72.8158 254.531C72.3153 254.665 71.8006 254.368 71.6696 253.866C71.5387 253.365 71.8424 252.854 72.3445 252.727L79.2624 250.966C79.7344 250.846 80.2141 251.131 80.3372 251.602C80.4603 252.073 80.1814 252.557 79.711 252.683L72.8158 254.531Z" fill="#EB2B2B"/>
<path d="M94.592 301.231C94.1676 301.528 93.5823 301.425 93.2878 300.999C92.9933 300.572 93.1041 299.989 93.5322 299.697L99.4306 295.676C99.8331 295.402 100.381 295.506 100.658 295.906C100.935 296.307 100.838 296.857 100.439 297.136L94.592 301.231Z" fill="#EB2B2B"/>
<path d="M102.471 311.499C102.074 311.832 101.482 311.78 101.152 311.381C100.821 310.982 100.881 310.391 101.282 310.063L106.807 305.544C107.184 305.235 107.74 305.291 108.05 305.666C108.361 306.041 108.313 306.597 107.94 306.91L102.471 311.499Z" fill="#EB2B2B"/>
<path d="M120.76 329.786C120.427 330.183 119.835 330.235 119.44 329.9C119.045 329.564 119.001 328.972 119.339 328.579L123.996 323.169C124.313 322.8 124.87 322.758 125.241 323.073C125.612 323.389 125.661 323.945 125.348 324.318L120.76 329.786Z" fill="#EB2B2B"/>
<path d="M131.028 337.666C130.731 338.091 130.146 338.194 129.723 337.894C129.301 337.595 129.205 337.008 129.508 336.587L133.675 330.792C133.96 330.396 134.51 330.307 134.908 330.589C135.305 330.87 135.402 331.42 135.123 331.819L131.028 337.666Z" fill="#EB2B2B"/>
<path d="M72.8158 177.729C72.3154 177.595 72.0181 177.081 72.1553 176.581C72.2925 176.081 72.811 175.791 73.3097 175.931L80.1811 177.865C80.6499 177.997 80.9227 178.484 80.7937 178.954C80.6647 179.424 80.1815 179.703 79.711 179.577L72.8158 177.729Z" fill="#EB2B2B"/>
<path d="M76.708 165.385C76.2211 165.208 75.9698 164.669 76.1501 164.183C76.3303 163.698 76.8721 163.454 77.3567 163.637L84.0334 166.162C84.4889 166.335 84.7182 166.844 84.5488 167.3C84.3794 167.757 83.8736 167.993 83.4159 167.826L76.708 165.385Z" fill="#EB2B2B"/>
<path d="M81.6615 153.426C81.1919 153.207 80.9885 152.649 81.2104 152.181C81.4323 151.713 81.9933 151.517 82.46 151.742L88.8912 154.84C89.33 155.051 89.5141 155.578 89.3055 156.018C89.0969 156.458 88.5725 156.649 88.1311 156.443L81.6615 153.426Z" fill="#EB2B2B"/>
<path d="M87.6375 141.946C87.1888 141.687 87.0348 141.113 87.2967 140.666C87.5586 140.218 88.1345 140.072 88.5799 140.337L94.7166 143.983C95.1353 144.232 95.2728 144.773 95.0266 145.193C94.7805 145.614 94.2414 145.758 93.8196 145.515L87.6375 141.946Z" fill="#EB2B2B"/>
<path d="M111.217 111.216C110.85 110.85 110.85 110.256 111.219 109.892C111.587 109.528 112.182 109.535 112.543 109.906L117.527 115.017C117.867 115.366 117.86 115.924 117.513 116.266C117.167 116.608 116.609 116.608 116.264 116.264L111.217 111.216Z" fill="#EB2B2B"/>
<path d="M141.944 87.6372C141.685 87.1885 141.839 86.6145 142.289 86.3582C142.74 86.102 143.311 86.2632 143.565 86.7151L147.056 92.9415C147.294 93.3663 147.143 93.9036 146.72 94.1444C146.296 94.3853 145.757 94.241 145.514 93.8192L141.944 87.6372Z" fill="#EB2B2B"/>
<path d="M153.426 81.6607C153.207 81.1912 153.41 80.6327 153.881 80.4167C154.352 80.2007 154.908 80.4111 155.121 80.8834L158.056 87.3904C158.256 87.8344 158.059 88.3564 157.616 88.5594C157.173 88.7625 156.649 88.5718 156.443 88.1304L153.426 81.6607Z" fill="#EB2B2B"/>
<path d="M165.384 76.7073C165.207 76.2204 165.458 75.6818 165.946 75.5076C166.434 75.3335 166.969 75.5915 167.14 76.0806L169.497 82.8187C169.658 83.2784 169.415 83.7812 168.957 83.9449C168.498 84.1086 167.992 83.8729 167.826 83.4152L165.384 76.7073Z" fill="#EB2B2B"/>
<path d="M177.729 72.8152C177.594 72.3147 177.891 71.8 178.393 71.669C178.894 71.5381 179.405 71.8418 179.532 72.3439L181.293 79.2618C181.413 79.7338 181.128 80.2135 180.657 80.3366C180.186 80.4597 179.702 80.1808 179.576 79.7103L177.729 72.8152Z" fill="#EB2B2B"/>
<path d="M131.028 94.5917C130.731 94.1673 130.834 93.5821 131.26 93.2876C131.687 92.9931 132.271 93.1038 132.562 93.5319L136.583 99.4304C136.857 99.8328 136.753 100.381 136.353 100.658C135.952 100.935 135.402 100.838 135.123 100.439L131.028 94.5917Z" fill="#EB2B2B"/>
<path d="M120.76 102.471C120.427 102.074 120.479 101.482 120.878 101.152C121.277 100.821 121.868 100.881 122.196 101.282L126.716 106.807C127.024 107.184 126.968 107.74 126.593 108.05C126.218 108.361 125.662 108.313 125.349 107.939L120.76 102.471Z" fill="#EB2B2B"/>
<path d="M102.473 120.759C102.076 120.426 102.024 119.834 102.36 119.439C102.695 119.045 103.288 119 103.68 119.338L109.091 123.995C109.46 124.313 109.501 124.87 109.186 125.241C108.87 125.612 108.314 125.661 107.941 125.348L102.473 120.759Z" fill="#EB2B2B"/>
<path d="M94.5926 131.028C94.1682 130.73 94.0648 130.145 94.3646 129.723C94.6645 129.3 95.251 129.205 95.6716 129.507L101.467 133.675C101.863 133.959 101.952 134.51 101.671 134.907C101.389 135.304 100.839 135.401 100.44 135.122L94.5926 131.028Z" fill="#EB2B2B"/>
<path d="M411.092 215.5C411.092 323.523 323.522 411.092 215.5 411.092C107.477 411.092 19.9072 323.523 19.9072 215.5C19.9072 107.477 107.477 19.9076 215.5 19.9076C323.522 19.9076 411.092 107.477 411.092 215.5ZM39.4665 215.5C39.4665 312.72 118.279 391.533 215.5 391.533C312.72 391.533 391.533 312.72 391.533 215.5C391.533 118.28 312.72 39.4668 215.5 39.4668C118.279 39.4668 39.4665 118.28 39.4665 215.5Z" fill="#0F0A0D"/>
<defs>
<linearGradient id="paint0_linear_5_3974" x1="215" y1="123.5" x2="215" y2="284" gradientUnits="userSpaceOnUse">
<stop stop-color="#EB2B2B"/>
<stop offset="1" stop-color="#1A1016" stop-opacity="0"/>
</linearGradient>
<linearGradient id="paint1_linear_5_3974" x1="215" y1="123.5" x2="215" y2="284" gradientUnits="userSpaceOnUse">
<stop stop-color="#EB2B2B"/>
<stop offset="1" stop-color="#1A1016" stop-opacity="0"/>
</linearGradient>
</defs>
</svg>
