<svg width="44" height="53" viewBox="0 0 44 53" fill="none" xmlns="http://www.w3.org/2000/svg">
<path fill-rule="evenodd" clip-rule="evenodd" d="M1.10363 11.4712C0.0402898 20.7727 2.86942 42.0825 22.6926 52.9092C38.0627 43.6291 41.3171 31.4491 41.8327 30.0313C41.6394 29.8057 41.306 29.6088 40.7371 29.3868C40.2413 29.1934 39.6094 29.0646 39.2227 29.0002C38.546 31.4813 36.168 37.4682 32.0693 41.5669C28.0415 38.9569 24.1426 33.9302 28.106 29.3546C31.1993 26.1001 37.4182 27.0668 38.6749 27.1957C37.4891 26.3708 35.2593 25.692 34.2927 25.4557C36.473 25.0368 41.3236 25.2108 43.2827 29.2579C44.2816 26.5835 44.7005 21.4601 35.6782 19.0757C37.6438 16.9168 36.3549 14.2745 29.9104 12.3412C23.4659 10.4078 17.6337 9.50561 13.8314 6.7667C10.0292 4.0278 9.44919 1.19223 9.57808 0C8.64363 1.03112 4.32583 10.4078 18.4392 15.4345C11.2859 14.9512 8.61141 14.2745 6.80695 9.40894C5.2345 9.89872 2.34955 10.9878 1.10363 11.4712ZM27.2037 46.4325L29.1693 44.7247C28.3637 44.2091 26.0824 42.4756 23.4015 39.6658C18.7872 34.4844 20.233 28.5061 21.5326 26.1646C20.2759 27.1527 17.9172 30.2762 18.5359 34.8646C19.2835 40.2522 24.6259 44.8214 27.2037 46.4325ZM9.93252 29.0002C7.43207 34.5682 11.9411 40.2995 14.5081 42.4691C12.2848 39.0535 10.4803 35.1869 12.0592 30.0313C13.3223 25.9068 18.2352 22.2979 20.5337 21.009C18.0418 21.3527 12.433 23.4321 9.93252 29.0002ZM32.6171 18.7534C31.1478 17.3614 26.8493 16.5408 24.8837 16.3045C24.0782 16.1933 27.3326 17.1423 27.7515 17.7545C28.3315 18.7534 28.396 19.4623 29.3304 19.6557C30.2649 19.849 33.0038 19.0757 32.6171 18.7534ZM7.06473 31.1591C4.04871 23.9928 3.91768 16.616 4.22916 13.8234C4.92731 13.469 6.62006 12.7923 7.80585 12.9212C8.80474 16.4334 10.9959 17.1745 13.5737 18.5923C8.70807 21.7501 6.51695 25.1012 7.06473 31.1591Z" fill="url(#paint0_linear_16952_3175)"/>
<path d="M43.7338 21.1057C43.8842 18.689 44.0689 13.4432 43.6049 11.7934C41.156 10.5367 33.2938 6.7667 19.7281 7.60449C26.3659 9.86005 38.0627 11.6001 40.8338 13.8879C41.0143 15.1252 40.909 17.8619 40.8338 19.0757C41.6823 19.5912 43.4503 20.719 43.7338 21.1057Z" fill="url(#paint1_linear_16952_3175)"/>
<defs>
<linearGradient id="paint0_linear_16952_3175" x1="22.3075" y1="-9.69751" x2="22.3075" y2="53.0328" gradientUnits="userSpaceOnUse">
<stop stop-color="#EB2BAC"/>
<stop offset="1" stop-color="#1A1016" stop-opacity="0"/>
</linearGradient>
<linearGradient id="paint1_linear_16952_3175" x1="22.3075" y1="-9.69751" x2="22.3075" y2="53.0328" gradientUnits="userSpaceOnUse">
<stop stop-color="#EB2BAC"/>
<stop offset="1" stop-color="#1A1016" stop-opacity="0"/>
</linearGradient>
</defs>
</svg>
