<svg width="431" height="431" viewBox="0 0 431 431" fill="none" xmlns="http://www.w3.org/2000/svg">
<circle cx="215.5" cy="215.5" r="215.5" fill="#1A1016"/>
<path d="M150.009 308H144.969V300.272H149.865C151.433 300.272 152.233 301.216 152.233 302.256C152.233 303.184 151.641 303.808 150.921 304.016C151.769 304.208 152.393 304.976 152.393 305.904C152.393 307.072 151.561 308 150.009 308ZM149.513 306.336C150.009 306.336 150.313 306.064 150.313 305.616C150.313 305.232 150.025 304.896 149.513 304.896H147.001V306.336H149.513ZM149.449 303.232C149.897 303.232 150.169 302.944 150.169 302.592C150.169 302.208 149.897 301.936 149.449 301.936H147.001V303.232H149.449ZM154.344 300.272H156.376V302.928H159.016C160.808 302.928 161.704 304.096 161.704 305.456C161.704 306.832 160.744 308 159.016 308H154.344V300.272ZM158.712 304.624H156.376V306.288H158.712C159.288 306.288 159.624 305.936 159.624 305.456C159.624 304.976 159.288 304.624 158.712 304.624ZM164.76 308H162.712V300.272H164.76V308ZM170.35 306.384C171.614 306.384 172.334 305.344 172.334 304.096C172.334 302.928 171.614 301.888 170.35 301.888C169.086 301.888 168.382 302.928 168.382 304.096C168.382 305.344 169.086 306.384 170.35 306.384ZM170.35 308.192C167.774 308.192 166.27 306.288 166.27 303.776C166.27 300.016 167.63 298.336 170.286 297.984C171.582 297.792 172.03 297.6 172.03 297.328H174.142C174.142 298.832 172.19 299.248 170.926 299.408C169.102 299.648 168.35 300.448 168.142 301.344C168.766 300.528 169.71 300.08 170.782 300.08C172.99 300.08 174.43 301.968 174.43 304.112C174.43 306.288 172.926 308.192 170.35 308.192ZM179.632 308.192C177.28 308.192 175.504 306.608 175.504 304.128C175.504 301.888 177.152 300.08 179.504 300.08C181.808 300.08 183.376 301.808 183.376 304.336V304.784H177.632C177.76 305.76 178.544 306.576 179.856 306.576C180.512 306.576 181.424 306.288 181.92 305.808L182.816 307.12C182.048 307.824 180.832 308.192 179.632 308.192ZM181.408 303.408C181.36 302.672 180.848 301.696 179.504 301.696C178.24 301.696 177.696 302.64 177.6 303.408H181.408ZM189.26 308.192C188.348 308.192 187.5 307.808 186.876 307.008V310.944H184.844V300.272H186.876V301.248C187.468 300.496 188.316 300.08 189.26 300.08C191.244 300.08 192.684 301.552 192.684 304.128C192.684 306.704 191.244 308.192 189.26 308.192ZM188.62 306.384C189.788 306.384 190.572 305.472 190.572 304.128C190.572 302.8 189.788 301.888 188.62 301.888C187.964 301.888 187.212 302.272 186.876 302.768V305.504C187.212 305.984 187.964 306.384 188.62 306.384ZM196.124 308H194.172V300.272H196.204V304.944L199.388 300.272H201.436V308H199.404V303.152L196.124 308ZM206.925 308H204.877V302.048H202.717V300.272H209.085V302.048H206.925V308ZM213.992 308.192C211.64 308.192 209.864 306.608 209.864 304.128C209.864 301.888 211.512 300.08 213.864 300.08C216.168 300.08 217.736 301.808 217.736 304.336V304.784H211.992C212.12 305.76 212.904 306.576 214.216 306.576C214.872 306.576 215.784 306.288 216.28 305.808L217.176 307.12C216.408 307.824 215.192 308.192 213.992 308.192ZM215.768 303.408C215.72 302.672 215.208 301.696 213.864 301.696C212.6 301.696 212.056 302.64 211.96 303.408H215.768ZM230.561 308H228.529V302.048H225.329V308H223.297V300.272H230.561V308ZM236.994 308.192C236.082 308.192 235.234 307.808 234.61 307.008V310.944H232.578V300.272H234.61V301.248C235.202 300.496 236.05 300.08 236.994 300.08C238.978 300.08 240.418 301.552 240.418 304.128C240.418 306.704 238.978 308.192 236.994 308.192ZM236.354 306.384C237.522 306.384 238.306 305.472 238.306 304.128C238.306 302.8 237.522 301.888 236.354 301.888C235.698 301.888 234.946 302.272 234.61 302.768V305.504C234.946 305.984 235.698 306.384 236.354 306.384ZM245.538 308.192C243.186 308.192 241.41 306.608 241.41 304.128C241.41 301.888 243.058 300.08 245.41 300.08C247.714 300.08 249.282 301.808 249.282 304.336V304.784H243.538C243.666 305.76 244.45 306.576 245.762 306.576C246.418 306.576 247.33 306.288 247.826 305.808L248.722 307.12C247.954 307.824 246.738 308.192 245.538 308.192ZM247.314 303.408C247.266 302.672 246.754 301.696 245.41 301.696C244.146 301.696 243.602 302.64 243.506 303.408H247.314ZM250.03 309.968V306.304C250.654 306.192 251.022 305.888 251.262 304.016L251.758 300.272H258.014V306.224H258.862V309.968H256.83V308H252.078V309.968H250.03ZM253.534 302.048L253.294 304.144C253.182 305.088 252.878 305.776 252.398 306.224H255.982V302.048H253.534ZM269.277 308H267.245V302.976L265.181 308H264.253L262.173 302.976V308H260.141V300.272H262.813L264.717 304.88L266.589 300.272H269.277V308ZM274.929 308.192C272.577 308.192 270.801 306.608 270.801 304.128C270.801 301.888 272.449 300.08 274.801 300.08C277.105 300.08 278.673 301.808 278.673 304.336V304.784H272.929C273.057 305.76 273.841 306.576 275.153 306.576C275.809 306.576 276.721 306.288 277.217 305.808L278.113 307.12C277.345 307.824 276.129 308.192 274.929 308.192ZM276.705 303.408C276.657 302.672 276.145 301.696 274.801 301.696C273.537 301.696 272.993 302.64 272.897 303.408H276.705ZM283.613 308H281.565V302.048H279.405V300.272H285.773V302.048H283.613V308ZM163.936 328.968V325.304C164.56 325.192 164.928 324.888 165.168 323.016L165.664 319.272H171.92V325.224H172.768V328.968H170.736V327H165.984V328.968H163.936ZM167.44 321.048L167.2 323.144C167.088 324.088 166.784 324.776 166.304 325.224H169.888V321.048H167.44ZM173.327 327.192V325.528C173.951 325.528 174.319 324.888 174.559 323.016L175.055 319.272H181.311V327H179.279V321.048H176.831L176.575 323.256C176.255 325.928 175.295 327.192 173.327 327.192ZM185.376 327H183.072L184.864 324.2C183.984 323.976 183.152 323.176 183.152 321.8C183.152 320.44 184.112 319.272 185.824 319.272H190.512V327H188.48V324.344H186.896L185.376 327ZM186.144 322.648H188.48V320.984H186.144C185.584 320.984 185.216 321.32 185.216 321.8C185.216 322.296 185.568 322.648 186.144 322.648ZM203.266 327H201.234V326.2C200.706 326.824 199.794 327.192 198.786 327.192C197.554 327.192 196.098 326.36 196.098 324.632C196.098 322.824 197.554 322.136 198.786 322.136C199.81 322.136 200.722 322.472 201.234 323.08V322.04C201.234 321.256 200.562 320.744 199.538 320.744C198.706 320.744 197.938 321.048 197.282 321.656L196.514 320.296C197.458 319.464 198.674 319.08 199.89 319.08C201.65 319.08 203.266 319.784 203.266 322.008V327ZM199.602 325.816C200.258 325.816 200.898 325.592 201.234 325.144V324.184C200.898 323.736 200.258 323.512 199.602 323.512C198.802 323.512 198.146 323.928 198.146 324.68C198.146 325.4 198.802 325.816 199.602 325.816ZM212.545 327H210.513V321.048H207.313V327H205.281V319.272H212.545V327ZM220.531 319.272V321.048H216.595V327H214.563V319.272H220.531ZM226.244 327.192C225.332 327.192 224.484 326.808 223.86 326.008V329.944H221.828V319.272H223.86V320.248C224.452 319.496 225.3 319.08 226.244 319.08C228.228 319.08 229.668 320.552 229.668 323.128C229.668 325.704 228.228 327.192 226.244 327.192ZM225.604 325.384C226.772 325.384 227.556 324.472 227.556 323.128C227.556 321.8 226.772 320.888 225.604 320.888C224.948 320.888 224.196 321.272 223.86 321.768V324.504C224.196 324.984 224.948 325.384 225.604 325.384ZM234.788 327.192C232.436 327.192 230.66 325.608 230.66 323.128C230.66 320.888 232.308 319.08 234.66 319.08C236.964 319.08 238.532 320.808 238.532 323.336V323.784H232.788C232.916 324.76 233.7 325.576 235.012 325.576C235.668 325.576 236.58 325.288 237.076 324.808L237.972 326.12C237.204 326.824 235.988 327.192 234.788 327.192ZM236.564 322.408C236.516 321.672 236.004 320.696 234.66 320.696C233.396 320.696 232.852 321.64 232.756 322.408H236.564ZM241.952 327H240V319.272H242.032V323.944L245.216 319.272H247.264V327H245.232V322.152L241.952 327ZM246.432 317.096C245.792 317.96 244.784 318.504 243.632 318.504C242.496 318.504 241.472 317.96 240.816 317.096L241.712 316.344C242.144 316.952 242.8 317.336 243.632 317.336C244.432 317.336 245.088 316.968 245.536 316.344L246.432 317.096ZM248.561 328.968V325.304C249.185 325.192 249.553 324.888 249.793 323.016L250.289 319.272H256.545V325.224H257.393V328.968H255.361V327H250.609V328.968H248.561ZM252.065 321.048L251.825 323.144C251.713 324.088 251.409 324.776 250.929 325.224H254.513V321.048H252.065ZM265.344 327H263.312V326.2C262.784 326.824 261.872 327.192 260.864 327.192C259.632 327.192 258.176 326.36 258.176 324.632C258.176 322.824 259.632 322.136 260.864 322.136C261.888 322.136 262.8 322.472 263.312 323.08V322.04C263.312 321.256 262.64 320.744 261.616 320.744C260.784 320.744 260.016 321.048 259.36 321.656L258.592 320.296C259.536 319.464 260.752 319.08 261.968 319.08C263.728 319.08 265.344 319.784 265.344 322.008V327ZM261.68 325.816C262.336 325.816 262.976 325.592 263.312 325.144V324.184C262.976 323.736 262.336 323.512 261.68 323.512C260.88 323.512 260.224 323.928 260.224 324.68C260.224 325.4 260.88 325.816 261.68 325.816Z" fill="#5A5257"/>
<path fill-rule="evenodd" clip-rule="evenodd" d="M160.748 177.661C158.028 201.46 165.266 255.982 215.985 283.683C255.311 259.94 263.637 228.776 264.957 225.149C264.462 224.572 263.609 224.068 262.153 223.5C260.885 223.005 259.268 222.675 258.279 222.51C256.547 228.859 250.463 244.177 239.976 254.663C229.671 247.985 219.695 235.124 229.836 223.417C237.75 215.091 253.662 217.564 256.877 217.894C253.843 215.783 248.138 214.046 245.665 213.442C251.243 212.37 263.654 212.815 268.666 223.17C271.222 216.327 272.294 203.219 249.21 197.118C254.239 191.594 250.941 184.834 234.453 179.887C217.964 174.941 203.042 172.632 193.313 165.625C183.585 158.617 182.101 151.362 182.431 148.312C180.04 150.95 168.993 174.941 205.103 187.802C186.8 186.565 179.958 184.834 175.341 172.385C171.317 173.638 163.936 176.425 160.748 177.661ZM227.527 267.112L232.556 262.743C230.495 261.424 224.658 256.988 217.799 249.799C205.993 236.542 209.692 221.246 213.017 215.255C209.802 217.784 203.767 225.775 205.35 237.515C207.263 251.3 220.932 262.99 227.527 267.112ZM183.338 222.51C176.94 236.757 188.477 251.421 195.045 256.972C189.356 248.233 184.739 238.34 188.779 225.149C192.011 214.596 204.581 205.362 210.462 202.065C204.086 202.944 189.735 208.264 183.338 222.51ZM241.378 196.293C237.618 192.732 226.62 190.632 221.591 190.028C219.53 189.743 227.857 192.171 228.929 193.738C230.413 196.293 230.578 198.107 232.969 198.602C235.359 199.097 242.367 197.118 241.378 196.293ZM176 228.034C168.284 209.699 167.948 190.825 168.745 183.68C170.532 182.773 174.863 181.041 177.896 181.371C180.452 190.358 186.058 192.254 192.654 195.881C180.205 203.961 174.599 212.535 176 228.034Z" fill="#0F0A0D"/>
<path d="M269.821 202.312C270.205 196.129 270.678 182.707 269.491 178.486C263.225 175.27 243.109 165.625 208.4 167.768C225.384 173.539 255.311 177.991 262.401 183.845C262.862 187.01 262.593 194.013 262.401 197.118C264.572 198.437 269.095 201.323 269.821 202.312Z" fill="#0F0A0D"/>
<path d="M254.53 72.8153C254.664 72.3149 255.178 72.0176 255.678 72.1548C256.177 72.292 256.468 72.8105 256.327 73.3092L254.393 80.1806C254.261 80.6494 253.774 80.9222 253.305 80.7932C252.835 80.6642 252.556 80.181 252.682 79.7105L254.53 72.8153Z" fill="#5A5257"/>
<path d="M266.874 76.7074C267.051 76.2205 267.589 75.9692 268.075 76.1494C268.561 76.3297 268.805 76.8714 268.622 77.3561L266.096 84.0328C265.924 84.4883 265.415 84.7176 264.958 84.5482C264.502 84.3787 264.265 83.873 264.432 83.4153L266.874 76.7074Z" fill="#5A5257"/>
<path d="M278.832 81.6611C279.051 81.1915 279.609 80.9881 280.077 81.21C280.546 81.4319 280.742 81.9929 280.517 82.4597L277.419 88.8909C277.207 89.3296 276.681 89.5137 276.24 89.3051C275.8 89.0965 275.609 88.5721 275.815 88.1307L278.832 81.6611Z" fill="#5A5257"/>
<path d="M290.313 87.6379C290.572 87.1892 291.146 87.0352 291.593 87.2971C292.04 87.5589 292.187 88.1348 291.922 88.5802L288.275 94.717C288.027 95.1357 287.486 95.2731 287.065 95.027C286.645 94.7808 286.5 94.2417 286.744 93.8199L290.313 87.6379Z" fill="#5A5257"/>
<path d="M321.042 111.216C321.408 110.85 322.002 110.849 322.366 111.218C322.73 111.587 322.723 112.181 322.352 112.543L317.241 117.526C316.892 117.866 316.334 117.859 315.992 117.513C315.65 117.166 315.65 116.608 315.994 116.264L321.042 111.216Z" fill="#5A5257"/>
<path d="M344.62 141.945C345.069 141.686 345.643 141.839 345.899 142.29C346.156 142.74 345.994 143.312 345.542 143.565L339.316 147.056C338.891 147.295 338.354 147.143 338.113 146.72C337.872 146.297 338.017 145.757 338.438 145.514L344.62 141.945Z" fill="#5A5257"/>
<path d="M350.597 153.426C351.067 153.207 351.625 153.41 351.841 153.881C352.057 154.352 351.847 154.907 351.375 155.12L344.868 158.056C344.424 158.256 343.902 158.058 343.699 157.616C343.496 157.173 343.686 156.648 344.128 156.442L350.597 153.426Z" fill="#5A5257"/>
<path d="M355.551 165.383C356.038 165.206 356.576 165.457 356.75 165.945C356.924 166.433 356.666 166.968 356.177 167.139L349.439 169.496C348.98 169.657 348.477 169.415 348.313 168.956C348.149 168.497 348.385 167.991 348.843 167.825L355.551 165.383Z" fill="#5A5257"/>
<path d="M359.442 177.728C359.943 177.594 360.458 177.891 360.589 178.392C360.72 178.893 360.416 179.404 359.914 179.532L352.996 181.293C352.524 181.413 352.044 181.128 351.921 180.656C351.798 180.185 352.077 179.702 352.547 179.576L359.442 177.728Z" fill="#5A5257"/>
<path d="M337.666 131.028C338.091 130.731 338.676 130.834 338.971 131.26C339.265 131.686 339.154 132.27 338.726 132.562L332.828 136.582C332.425 136.857 331.877 136.753 331.6 136.352C331.323 135.951 331.42 135.402 331.819 135.122L337.666 131.028Z" fill="#5A5257"/>
<path d="M329.787 120.759C330.184 120.426 330.776 120.478 331.107 120.877C331.437 121.276 331.378 121.867 330.977 122.195L325.451 126.714C325.074 127.023 324.519 126.967 324.208 126.592C323.897 126.217 323.946 125.661 324.319 125.348L329.787 120.759Z" fill="#5A5257"/>
<path d="M311.498 102.472C311.831 102.075 312.423 102.023 312.818 102.358C313.213 102.694 313.257 103.286 312.919 103.679L308.262 109.089C307.945 109.458 307.388 109.5 307.017 109.185C306.646 108.869 306.597 108.313 306.91 107.94L311.498 102.472Z" fill="#5A5257"/>
<path d="M301.23 94.5921C301.527 94.1677 302.112 94.0643 302.535 94.3641C302.957 94.664 303.053 95.2504 302.751 95.6711L298.583 101.467C298.299 101.862 297.748 101.952 297.351 101.67C296.953 101.388 296.856 100.839 297.136 100.44L301.23 94.5921Z" fill="#5A5257"/>
<path d="M359.442 254.53C359.943 254.664 360.24 255.178 360.103 255.678C359.966 256.177 359.447 256.468 358.949 256.327L352.077 254.393C351.608 254.261 351.336 253.774 351.465 253.305C351.594 252.835 352.077 252.556 352.547 252.682L359.442 254.53Z" fill="#5A5257"/>
<path d="M355.55 266.874C356.037 267.051 356.289 267.589 356.108 268.075C355.928 268.561 355.386 268.805 354.902 268.622L348.225 266.096C347.77 265.924 347.54 265.415 347.71 264.958C347.879 264.502 348.385 264.265 348.843 264.432L355.55 266.874Z" fill="#5A5257"/>
<path d="M350.597 278.832C351.066 279.051 351.27 279.609 351.048 280.077C350.826 280.546 350.265 280.742 349.798 280.517L343.367 277.419C342.928 277.207 342.744 276.681 342.953 276.24C343.161 275.8 343.686 275.609 344.127 275.815L350.597 278.832Z" fill="#5A5257"/>
<path d="M344.621 290.313C345.07 290.572 345.224 291.146 344.962 291.593C344.7 292.04 344.124 292.187 343.679 291.922L337.542 288.275C337.123 288.027 336.986 287.486 337.232 287.065C337.478 286.645 338.017 286.5 338.439 286.744L344.621 290.313Z" fill="#5A5257"/>
<path d="M321.042 321.042C321.408 321.408 321.408 322.002 321.04 322.366C320.671 322.73 320.077 322.723 319.715 322.352L314.731 317.241C314.391 316.892 314.399 316.334 314.745 315.992C315.092 315.65 315.65 315.65 315.994 315.994L321.042 321.042Z" fill="#5A5257"/>
<path d="M290.314 344.621C290.573 345.07 290.42 345.644 289.969 345.9C289.519 346.157 288.947 345.995 288.694 345.543L285.202 339.317C284.964 338.892 285.116 338.355 285.539 338.114C285.962 337.873 286.501 338.018 286.745 338.439L290.314 344.621Z" fill="#5A5257"/>
<path d="M278.832 350.597C279.051 351.067 278.848 351.625 278.377 351.841C277.906 352.057 277.351 351.847 277.137 351.375L274.202 344.868C274.002 344.424 274.2 343.902 274.642 343.699C275.085 343.496 275.61 343.686 275.815 344.128L278.832 350.597Z" fill="#5A5257"/>
<path d="M266.874 355.552C267.052 356.039 266.801 356.577 266.313 356.751C265.825 356.925 265.289 356.667 265.118 356.178L262.761 349.44C262.601 348.981 262.843 348.478 263.302 348.314C263.76 348.15 264.266 348.386 264.433 348.844L266.874 355.552Z" fill="#5A5257"/>
<path d="M254.53 359.443C254.664 359.944 254.367 360.459 253.866 360.59C253.364 360.72 252.854 360.417 252.726 359.915L250.965 352.997C250.845 352.525 251.13 352.045 251.601 351.922C252.073 351.799 252.556 352.078 252.682 352.548L254.53 359.443Z" fill="#5A5257"/>
<path d="M301.23 337.666C301.527 338.091 301.424 338.676 300.998 338.971C300.572 339.265 299.988 339.154 299.696 338.726L295.675 332.828C295.401 332.425 295.505 331.877 295.906 331.6C296.306 331.323 296.856 331.42 297.135 331.819L301.23 337.666Z" fill="#5A5257"/>
<path d="M311.498 329.786C311.831 330.183 311.779 330.775 311.38 331.106C310.981 331.436 310.39 331.377 310.062 330.976L305.542 325.45C305.234 325.073 305.29 324.518 305.665 324.207C306.04 323.896 306.596 323.945 306.909 324.318L311.498 329.786Z" fill="#5A5257"/>
<path d="M329.785 311.498C330.182 311.831 330.234 312.423 329.899 312.818C329.563 313.213 328.97 313.257 328.578 312.919L323.167 308.262C322.798 307.945 322.757 307.388 323.072 307.017C323.388 306.646 323.944 306.597 324.317 306.91L329.785 311.498Z" fill="#5A5257"/>
<path d="M337.666 301.23C338.09 301.527 338.194 302.112 337.894 302.535C337.594 302.957 337.007 303.053 336.587 302.751L330.791 298.583C330.396 298.299 330.306 297.748 330.588 297.351C330.87 296.953 331.419 296.856 331.818 297.136L337.666 301.23Z" fill="#5A5257"/>
<path d="M177.728 359.443C177.594 359.944 177.08 360.241 176.58 360.104C176.08 359.967 175.79 359.448 175.93 358.95L177.864 352.078C177.996 351.609 178.483 351.337 178.953 351.466C179.423 351.595 179.702 352.078 179.576 352.548L177.728 359.443Z" fill="#5A5257"/>
<path d="M165.384 355.55C165.207 356.037 164.669 356.289 164.183 356.108C163.697 355.928 163.453 355.386 163.636 354.902L166.162 348.225C166.334 347.77 166.843 347.54 167.3 347.71C167.756 347.879 167.992 348.385 167.826 348.843L165.384 355.55Z" fill="#5A5257"/>
<path d="M153.426 350.598C153.207 351.067 152.649 351.271 152.18 351.049C151.712 350.827 151.516 350.266 151.741 349.799L154.839 343.368C155.05 342.929 155.577 342.745 156.017 342.954C156.458 343.162 156.649 343.687 156.443 344.128L153.426 350.598Z" fill="#5A5257"/>
<path d="M141.945 344.622C141.686 345.071 141.112 345.225 140.665 344.963C140.218 344.701 140.071 344.125 140.336 343.679L143.982 337.543C144.231 337.124 144.772 336.987 145.192 337.233C145.613 337.479 145.757 338.018 145.514 338.44L141.945 344.622Z" fill="#5A5257"/>
<path d="M111.216 321.042C110.85 321.408 110.256 321.408 109.892 321.04C109.528 320.671 109.535 320.077 109.906 319.715L115.017 314.731C115.365 314.391 115.924 314.399 116.266 314.745C116.608 315.092 116.608 315.65 116.264 315.994L111.216 321.042Z" fill="#5A5257"/>
<path d="M87.6374 290.315C87.1887 290.574 86.6147 290.421 86.3585 289.97C86.1022 289.52 86.2634 288.948 86.7153 288.695L92.9418 285.203C93.3666 284.965 93.9038 285.117 94.1447 285.54C94.3855 285.963 94.2413 286.502 93.8195 286.746L87.6374 290.315Z" fill="#5A5257"/>
<path d="M81.6605 278.833C81.1909 279.052 80.6325 278.849 80.4165 278.378C80.2004 277.907 80.4109 277.352 80.8832 277.138L87.3902 274.203C87.8341 274.003 88.3561 274.201 88.5592 274.643C88.7622 275.086 88.5715 275.611 88.1301 275.816L81.6605 278.833Z" fill="#5A5257"/>
<path d="M76.7071 266.874C76.2203 267.052 75.6816 266.801 75.5075 266.313C75.3333 265.825 75.5914 265.289 76.0805 265.118L82.8186 262.761C83.2783 262.601 83.781 262.843 83.9447 263.302C84.1084 263.76 83.8727 264.266 83.4151 264.433L76.7071 266.874Z" fill="#5A5257"/>
<path d="M72.8154 254.531C72.3149 254.665 71.8002 254.368 71.6693 253.867C71.5383 253.365 71.842 252.855 72.3442 252.727L79.262 250.966C79.734 250.846 80.2137 251.131 80.3368 251.602C80.4599 252.074 80.181 252.557 79.7106 252.683L72.8154 254.531Z" fill="#5A5257"/>
<path d="M94.5914 301.231C94.167 301.528 93.5817 301.425 93.2872 300.999C92.9927 300.573 93.1034 299.989 93.5316 299.697L99.43 295.676C99.8325 295.402 100.381 295.506 100.658 295.907C100.935 296.307 100.838 296.857 100.439 297.136L94.5914 301.231Z" fill="#5A5257"/>
<path d="M102.471 311.499C102.074 311.832 101.482 311.78 101.151 311.381C100.821 310.982 100.88 310.391 101.281 310.063L106.807 305.543C107.184 305.235 107.739 305.291 108.05 305.666C108.36 306.041 108.312 306.597 107.939 306.91L102.471 311.499Z" fill="#5A5257"/>
<path d="M120.759 329.786C120.426 330.183 119.834 330.235 119.44 329.899C119.045 329.564 119.001 328.971 119.339 328.579L123.996 323.168C124.313 322.799 124.87 322.758 125.241 323.073C125.612 323.389 125.661 323.945 125.348 324.318L120.759 329.786Z" fill="#5A5257"/>
<path d="M131.028 337.667C130.731 338.091 130.145 338.194 129.723 337.895C129.3 337.595 129.205 337.008 129.507 336.588L133.675 330.792C133.959 330.397 134.51 330.307 134.907 330.589C135.304 330.871 135.402 331.42 135.122 331.819L131.028 337.667Z" fill="#5A5257"/>
<path d="M72.8153 177.729C72.3149 177.595 72.0176 177.081 72.1548 176.581C72.2921 176.081 72.8105 175.791 73.3092 175.931L80.1806 177.865C80.6495 177.997 80.9223 178.484 80.7932 178.954C80.6642 179.424 80.181 179.703 79.7105 179.577L72.8153 177.729Z" fill="#5A5257"/>
<path d="M76.7074 165.384C76.2205 165.207 75.9692 164.669 76.1494 164.183C76.3297 163.697 76.8715 163.453 77.3561 163.636L84.0328 166.162C84.4883 166.334 84.7176 166.843 84.5482 167.3C84.3787 167.756 83.873 167.992 83.4153 167.826L76.7074 165.384Z" fill="#5A5257"/>
<path d="M81.6611 153.426C81.1915 153.207 80.9881 152.649 81.21 152.18C81.4319 151.712 81.9929 151.516 82.4597 151.741L88.8909 154.839C89.3296 155.05 89.5137 155.577 89.3051 156.017C89.0965 156.458 88.5721 156.649 88.1307 156.443L81.6611 153.426Z" fill="#5A5257"/>
<path d="M87.6369 141.946C87.1882 141.687 87.0342 141.113 87.2961 140.666C87.558 140.218 88.1339 140.072 88.5793 140.337L94.716 143.983C95.1347 144.232 95.2722 144.773 95.026 145.193C94.7799 145.614 94.2408 145.758 93.819 145.515L87.6369 141.946Z" fill="#5A5257"/>
<path d="M111.216 111.216C110.85 110.85 110.849 110.256 111.218 109.892C111.587 109.528 112.181 109.535 112.543 109.906L117.526 115.017C117.866 115.366 117.859 115.924 117.513 116.266C117.166 116.608 116.608 116.608 116.264 116.264L111.216 111.216Z" fill="#5A5257"/>
<path d="M141.944 87.6365C141.685 87.1877 141.838 86.6137 142.289 86.3575C142.739 86.1013 143.311 86.2625 143.564 86.7144L147.055 92.9408C147.294 93.3656 147.142 93.9028 146.719 94.1437C146.296 94.3846 145.756 94.2403 145.513 93.8185L141.944 87.6365Z" fill="#5A5257"/>
<path d="M153.426 81.6605C153.207 81.1909 153.41 80.6325 153.881 80.4165C154.352 80.2004 154.907 80.4109 155.12 80.8832L158.056 87.3902C158.256 87.8341 158.058 88.3561 157.616 88.5592C157.173 88.7622 156.648 88.5715 156.442 88.1301L153.426 81.6605Z" fill="#5A5257"/>
<path d="M165.383 76.7071C165.206 76.2203 165.457 75.6816 165.945 75.5075C166.433 75.3333 166.968 75.5914 167.139 76.0805L169.496 82.8186C169.657 83.2783 169.415 83.781 168.956 83.9447C168.497 84.1084 167.991 83.8727 167.825 83.4151L165.383 76.7071Z" fill="#5A5257"/>
<path d="M177.728 72.8144C177.594 72.314 177.891 71.7992 178.392 71.6683C178.893 71.5373 179.404 71.8411 179.532 72.3432L181.293 79.2611C181.413 79.733 181.128 80.2128 180.656 80.3359C180.185 80.459 179.702 80.1801 179.576 79.7096L177.728 72.8144Z" fill="#5A5257"/>
<path d="M131.028 94.5914C130.731 94.167 130.834 93.5817 131.26 93.2872C131.686 92.9927 132.27 93.1035 132.562 93.5316L136.582 99.43C136.857 99.8325 136.753 100.381 136.352 100.658C135.951 100.935 135.402 100.838 135.122 100.439L131.028 94.5914Z" fill="#5A5257"/>
<path d="M120.76 102.471C120.427 102.074 120.479 101.482 120.878 101.151C121.277 100.821 121.868 100.88 122.196 101.281L126.715 106.807C127.024 107.184 126.968 107.739 126.593 108.05C126.218 108.36 125.662 108.312 125.349 107.939L120.76 102.471Z" fill="#5A5257"/>
<path d="M102.473 120.758C102.076 120.425 102.024 119.833 102.359 119.439C102.695 119.044 103.287 119 103.68 119.338L109.09 123.995C109.459 124.312 109.501 124.869 109.186 125.24C108.87 125.611 108.314 125.66 107.941 125.347L102.473 120.758Z" fill="#5A5257"/>
<path d="M94.5921 131.028C94.1677 130.731 94.0643 130.145 94.3642 129.723C94.664 129.3 95.2505 129.205 95.6711 129.507L101.467 133.675C101.862 133.959 101.952 134.51 101.67 134.907C101.388 135.304 100.839 135.402 100.44 135.122L94.5921 131.028Z" fill="#5A5257"/>
<path d="M411.092 215.5C411.092 323.522 323.522 411.092 215.5 411.092C107.477 411.092 19.9072 323.522 19.9072 215.5C19.9072 107.477 107.477 19.9072 215.5 19.9072C323.522 19.9072 411.092 107.477 411.092 215.5ZM39.4665 215.5C39.4665 312.72 118.279 391.533 215.5 391.533C312.72 391.533 391.533 312.72 391.533 215.5C391.533 118.279 312.72 39.4665 215.5 39.4665C118.279 39.4665 39.4665 118.279 39.4665 215.5Z" fill="#0F0A0D"/>
</svg>
