<svg width="431" height="431" viewBox="0 0 431 431" fill="none" xmlns="http://www.w3.org/2000/svg">
<circle cx="215.5" cy="215.5" r="215.5" fill="#1A1016"/>
<path d="M140.29 308H135.25V300.272H140.146C141.714 300.272 142.514 301.216 142.514 302.256C142.514 303.184 141.922 303.808 141.202 304.016C142.05 304.208 142.674 304.976 142.674 305.904C142.674 307.072 141.842 308 140.29 308ZM139.794 306.336C140.29 306.336 140.594 306.064 140.594 305.616C140.594 305.232 140.306 304.896 139.794 304.896H137.282V306.336H139.794ZM139.73 303.232C140.178 303.232 140.45 302.944 140.45 302.592C140.45 302.208 140.178 301.936 139.73 301.936H137.282V303.232H139.73ZM144.625 300.272H146.657V302.928H149.297C151.089 302.928 151.985 304.096 151.985 305.456C151.985 306.832 151.025 308 149.297 308H144.625V300.272ZM148.993 304.624H146.657V306.288H148.993C149.569 306.288 149.905 305.936 149.905 305.456C149.905 304.976 149.569 304.624 148.993 304.624ZM155.041 308H152.993V300.272H155.041V308ZM160.631 306.384C161.895 306.384 162.615 305.344 162.615 304.096C162.615 302.928 161.895 301.888 160.631 301.888C159.367 301.888 158.663 302.928 158.663 304.096C158.663 305.344 159.367 306.384 160.631 306.384ZM160.631 308.192C158.055 308.192 156.551 306.288 156.551 303.776C156.551 300.016 157.911 298.336 160.567 297.984C161.863 297.792 162.311 297.6 162.311 297.328H164.423C164.423 298.832 162.471 299.248 161.207 299.408C159.383 299.648 158.631 300.448 158.423 301.344C159.047 300.528 159.991 300.08 161.063 300.08C163.271 300.08 164.711 301.968 164.711 304.112C164.711 306.288 163.207 308.192 160.631 308.192ZM169.913 308.192C167.561 308.192 165.785 306.608 165.785 304.128C165.785 301.888 167.433 300.08 169.785 300.08C172.089 300.08 173.657 301.808 173.657 304.336V304.784H167.913C168.041 305.76 168.825 306.576 170.137 306.576C170.793 306.576 171.705 306.288 172.201 305.808L173.097 307.12C172.329 307.824 171.113 308.192 169.913 308.192ZM171.689 303.408C171.641 302.672 171.129 301.696 169.785 301.696C168.521 301.696 167.977 302.64 167.881 303.408H171.689ZM179.541 308.192C178.629 308.192 177.781 307.808 177.157 307.008V310.944H175.125V300.272H177.157V301.248C177.749 300.496 178.597 300.08 179.541 300.08C181.525 300.08 182.965 301.552 182.965 304.128C182.965 306.704 181.525 308.192 179.541 308.192ZM178.901 306.384C180.069 306.384 180.853 305.472 180.853 304.128C180.853 302.8 180.069 301.888 178.901 301.888C178.245 301.888 177.493 302.272 177.157 302.768V305.504C177.493 305.984 178.245 306.384 178.901 306.384ZM186.405 308H184.453V300.272H186.485V304.944L189.669 300.272H191.717V308H189.685V303.152L186.405 308ZM197.207 308H195.159V302.048H192.999V300.272H199.367V302.048H197.207V308ZM204.273 308.192C201.921 308.192 200.145 306.608 200.145 304.128C200.145 301.888 201.793 300.08 204.145 300.08C206.449 300.08 208.017 301.808 208.017 304.336V304.784H202.273C202.401 305.76 203.185 306.576 204.497 306.576C205.153 306.576 206.065 306.288 206.561 305.808L207.457 307.12C206.689 307.824 205.473 308.192 204.273 308.192ZM206.049 303.408C206.001 302.672 205.489 301.696 204.145 301.696C202.881 301.696 202.337 302.64 202.241 303.408H206.049ZM220.842 308H218.81V302.048H215.61V308H213.578V300.272H220.842V308ZM227.276 308.192C226.364 308.192 225.516 307.808 224.892 307.008V310.944H222.86V300.272H224.892V301.248C225.484 300.496 226.332 300.08 227.276 300.08C229.26 300.08 230.7 301.552 230.7 304.128C230.7 306.704 229.26 308.192 227.276 308.192ZM226.636 306.384C227.804 306.384 228.588 305.472 228.588 304.128C228.588 302.8 227.804 301.888 226.636 301.888C225.98 301.888 225.228 302.272 224.892 302.768V305.504C225.228 305.984 225.98 306.384 226.636 306.384ZM235.82 308.192C233.468 308.192 231.692 306.608 231.692 304.128C231.692 301.888 233.34 300.08 235.692 300.08C237.996 300.08 239.564 301.808 239.564 304.336V304.784H233.82C233.948 305.76 234.732 306.576 236.044 306.576C236.7 306.576 237.612 306.288 238.108 305.808L239.004 307.12C238.236 307.824 237.02 308.192 235.82 308.192ZM237.596 303.408C237.548 302.672 237.036 301.696 235.692 301.696C234.428 301.696 233.884 302.64 233.788 303.408H237.596ZM240.311 309.968V306.304C240.935 306.192 241.303 305.888 241.543 304.016L242.039 300.272H248.295V306.224H249.143V309.968H247.111V308H242.359V309.968H240.311ZM243.815 302.048L243.575 304.144C243.463 305.088 243.159 305.776 242.679 306.224H246.263V302.048H243.815ZM259.558 308H257.526V302.976L255.462 308H254.534L252.454 302.976V308H250.422V300.272H253.094L254.998 304.88L256.87 300.272H259.558V308ZM265.21 308.192C262.858 308.192 261.082 306.608 261.082 304.128C261.082 301.888 262.73 300.08 265.082 300.08C267.386 300.08 268.954 301.808 268.954 304.336V304.784H263.21C263.338 305.76 264.122 306.576 265.434 306.576C266.09 306.576 267.002 306.288 267.498 305.808L268.394 307.12C267.626 307.824 266.41 308.192 265.21 308.192ZM266.986 303.408C266.938 302.672 266.426 301.696 265.082 301.696C263.818 301.696 263.274 302.64 263.178 303.408H266.986ZM273.894 308H271.846V302.048H269.686V300.272H276.054V302.048H273.894V308ZM283.374 308H281.422V300.272H283.454V304.944L286.638 300.272H288.686V308H286.654V303.152L283.374 308ZM293.519 308.192C291.919 308.192 290.671 307.696 289.919 306.96L290.847 305.696C291.567 306.304 292.591 306.576 293.519 306.576C294.559 306.576 295.119 306.24 295.119 305.744C295.119 305.152 294.447 304.88 293.391 304.88H291.807V303.312H293.391C294.447 303.312 294.975 303.024 294.975 302.48C294.975 302.016 294.335 301.696 293.423 301.696C292.415 301.696 291.631 301.984 291.023 302.576L290.031 301.376C290.783 300.624 291.903 300.096 293.311 300.096C295.727 300.08 297.087 300.896 297.087 302.208C297.087 303.2 296.095 303.872 295.071 304.032C296.015 304.096 297.247 304.704 297.247 305.872C297.247 307.232 295.823 308.192 293.519 308.192ZM151.657 327H146.617V319.272H151.513C153.081 319.272 153.881 320.216 153.881 321.256C153.881 322.184 153.289 322.808 152.569 323.016C153.417 323.208 154.041 323.976 154.041 324.904C154.041 326.072 153.209 327 151.657 327ZM151.161 325.336C151.657 325.336 151.961 325.064 151.961 324.616C151.961 324.232 151.673 323.896 151.161 323.896H148.649V325.336H151.161ZM151.097 322.232C151.545 322.232 151.817 321.944 151.817 321.592C151.817 321.208 151.545 320.936 151.097 320.936H148.649V322.232H151.097ZM162.664 327H160.632V326.2C160.104 326.824 159.192 327.192 158.184 327.192C156.952 327.192 155.496 326.36 155.496 324.632C155.496 322.824 156.952 322.136 158.184 322.136C159.208 322.136 160.12 322.472 160.632 323.08V322.04C160.632 321.256 159.96 320.744 158.936 320.744C158.104 320.744 157.336 321.048 156.68 321.656L155.912 320.296C156.856 319.464 158.072 319.08 159.288 319.08C161.048 319.08 162.664 319.784 162.664 322.008V327ZM159 325.816C159.656 325.816 160.296 325.592 160.632 325.144V324.184C160.296 323.736 159.656 323.512 159 323.512C158.2 323.512 157.544 323.928 157.544 324.68C157.544 325.4 158.2 325.816 159 325.816ZM173.784 319.272H175.832V327H164.68V319.272H166.712V325.224H169.24V319.272H171.272V325.224H173.784V319.272ZM181.484 327.192C179.132 327.192 177.356 325.608 177.356 323.128C177.356 320.888 179.004 319.08 181.356 319.08C183.66 319.08 185.228 320.808 185.228 323.336V323.784H179.484C179.612 324.76 180.396 325.576 181.708 325.576C182.364 325.576 183.276 325.288 183.772 324.808L184.668 326.12C183.9 326.824 182.684 327.192 181.484 327.192ZM183.26 322.408C183.212 321.672 182.7 320.696 181.356 320.696C180.092 320.696 179.548 321.64 179.452 322.408H183.26ZM192.664 319.272V321.048H188.728V327H186.696V319.272H192.664ZM197.545 327.192C195.001 327.192 193.465 325.336 193.465 323.128C193.465 320.936 195.001 319.08 197.545 319.08C200.105 319.08 201.641 320.936 201.641 323.128C201.641 325.336 200.105 327.192 197.545 327.192ZM197.545 325.384C198.809 325.384 199.529 324.344 199.529 323.128C199.529 321.928 198.809 320.888 197.545 320.888C196.281 320.888 195.577 321.928 195.577 323.128C195.577 324.344 196.281 325.384 197.545 325.384ZM209.194 327H207.242V319.272H209.274V323.944L212.458 319.272H214.506V327H212.474V322.152L209.194 327ZM218.556 327H216.524V319.272H218.556V322.136H221.756V319.272H223.788V327H221.756V323.912H218.556V327ZM230.845 327H225.805V319.272H230.701C232.269 319.272 233.069 320.216 233.069 321.256C233.069 322.184 232.477 322.808 231.757 323.016C232.605 323.208 233.229 323.976 233.229 324.904C233.229 326.072 232.397 327 230.845 327ZM230.349 325.336C230.845 325.336 231.149 325.064 231.149 324.616C231.149 324.232 230.861 323.896 230.349 323.896H227.837V325.336H230.349ZM230.285 322.232C230.733 322.232 231.005 321.944 231.005 321.592C231.005 321.208 230.733 320.936 230.285 320.936H227.837V322.232H230.285ZM238.812 327.192C236.46 327.192 234.684 325.608 234.684 323.128C234.684 320.888 236.332 319.08 238.684 319.08C240.988 319.08 242.556 320.808 242.556 323.336V323.784H236.812C236.94 324.76 237.724 325.576 239.036 325.576C239.692 325.576 240.604 325.288 241.1 324.808L241.996 326.12C241.228 326.824 240.012 327.192 238.812 327.192ZM240.588 322.408C240.54 321.672 240.028 320.696 238.684 320.696C237.42 320.696 236.876 321.64 236.78 322.408H240.588ZM246.056 327H244.024V319.272H246.056V322.136H249.256V319.272H251.288V327H249.256V323.912H246.056V327ZM256.777 327H254.729V321.048H252.569V319.272H258.937V321.048H256.777V327ZM266.883 327H264.851V326.2C264.323 326.824 263.411 327.192 262.403 327.192C261.171 327.192 259.715 326.36 259.715 324.632C259.715 322.824 261.171 322.136 262.403 322.136C263.427 322.136 264.339 322.472 264.851 323.08V322.04C264.851 321.256 264.179 320.744 263.155 320.744C262.323 320.744 261.555 321.048 260.899 321.656L260.131 320.296C261.075 319.464 262.291 319.08 263.507 319.08C265.267 319.08 266.883 319.784 266.883 322.008V327ZM263.219 325.816C263.875 325.816 264.515 325.592 264.851 325.144V324.184C264.515 323.736 263.875 323.512 263.219 323.512C262.419 323.512 261.763 323.928 261.763 324.68C261.763 325.4 262.419 325.816 263.219 325.816ZM273.315 327.192C272.403 327.192 271.555 326.808 270.931 326.008V329.944H268.899V319.272H270.931V320.248C271.523 319.496 272.371 319.08 273.315 319.08C275.299 319.08 276.739 320.552 276.739 323.128C276.739 325.704 275.299 327.192 273.315 327.192ZM272.675 325.384C273.843 325.384 274.627 324.472 274.627 323.128C274.627 321.8 273.843 320.888 272.675 320.888C272.019 320.888 271.267 321.272 270.931 321.768V324.504C271.267 324.984 272.019 325.384 272.675 325.384ZM280.275 327H277.971L279.763 324.2C278.883 323.976 278.051 323.176 278.051 321.8C278.051 320.44 279.011 319.272 280.723 319.272H285.411V327H283.379V324.344H281.795L280.275 327ZM281.043 322.648H283.379V320.984H281.043C280.483 320.984 280.115 321.32 280.115 321.8C280.115 322.296 280.467 322.648 281.043 322.648Z" fill="#5A5257"/>
<path fill-rule="evenodd" clip-rule="evenodd" d="M160.748 177.661C158.028 201.46 165.266 255.982 215.985 283.683C255.311 259.94 263.637 228.776 264.957 225.149C264.462 224.572 263.609 224.068 262.153 223.5C260.885 223.005 259.268 222.675 258.279 222.51C256.547 228.859 250.463 244.177 239.976 254.663C229.671 247.985 219.695 235.124 229.836 223.417C237.75 215.091 253.662 217.564 256.877 217.894C253.843 215.783 248.138 214.046 245.665 213.442C251.243 212.37 263.654 212.815 268.666 223.17C271.222 216.327 272.294 203.219 249.21 197.118C254.239 191.594 250.941 184.834 234.453 179.887C217.964 174.941 203.042 172.632 193.313 165.625C183.585 158.617 182.101 151.362 182.431 148.312C180.04 150.95 168.993 174.941 205.103 187.802C186.8 186.565 179.958 184.834 175.341 172.385C171.317 173.638 163.936 176.425 160.748 177.661ZM227.527 267.112L232.556 262.743C230.495 261.424 224.658 256.988 217.799 249.799C205.993 236.542 209.692 221.246 213.017 215.255C209.802 217.784 203.767 225.775 205.35 237.515C207.263 251.3 220.932 262.99 227.527 267.112ZM183.338 222.51C176.94 236.757 188.477 251.421 195.045 256.972C189.356 248.233 184.739 238.34 188.779 225.149C192.011 214.596 204.581 205.362 210.462 202.065C204.086 202.944 189.735 208.264 183.338 222.51ZM241.378 196.293C237.618 192.732 226.62 190.632 221.591 190.028C219.53 189.743 227.857 192.171 228.929 193.738C230.413 196.293 230.578 198.107 232.969 198.602C235.359 199.097 242.367 197.118 241.378 196.293ZM176 228.034C168.284 209.699 167.948 190.825 168.745 183.68C170.532 182.773 174.863 181.041 177.896 181.371C180.452 190.358 186.058 192.254 192.654 195.881C180.205 203.961 174.599 212.535 176 228.034Z" fill="#0F0A0D"/>
<path d="M269.821 202.312C270.205 196.129 270.678 182.707 269.491 178.486C263.225 175.27 243.109 165.625 208.4 167.768C225.384 173.539 255.311 177.991 262.401 183.845C262.862 187.01 262.593 194.013 262.401 197.118C264.572 198.437 269.095 201.323 269.821 202.312Z" fill="#0F0A0D"/>
<path d="M254.53 72.8153C254.664 72.3149 255.178 72.0176 255.678 72.1548C256.177 72.292 256.468 72.8105 256.327 73.3092L254.393 80.1806C254.261 80.6494 253.774 80.9222 253.305 80.7932C252.835 80.6642 252.556 80.181 252.682 79.7105L254.53 72.8153Z" fill="#5A5257"/>
<path d="M266.874 76.7074C267.051 76.2205 267.589 75.9692 268.075 76.1494C268.561 76.3297 268.805 76.8714 268.622 77.3561L266.096 84.0328C265.924 84.4883 265.415 84.7176 264.958 84.5482C264.502 84.3787 264.265 83.873 264.432 83.4153L266.874 76.7074Z" fill="#5A5257"/>
<path d="M278.832 81.6611C279.051 81.1915 279.609 80.9881 280.077 81.21C280.546 81.4319 280.742 81.9929 280.517 82.4597L277.419 88.8909C277.207 89.3296 276.681 89.5137 276.24 89.3051C275.8 89.0965 275.609 88.5721 275.815 88.1307L278.832 81.6611Z" fill="#5A5257"/>
<path d="M290.313 87.6379C290.572 87.1892 291.146 87.0352 291.593 87.2971C292.04 87.5589 292.187 88.1348 291.922 88.5802L288.275 94.717C288.027 95.1357 287.486 95.2731 287.065 95.027C286.645 94.7808 286.5 94.2417 286.744 93.8199L290.313 87.6379Z" fill="#5A5257"/>
<path d="M321.042 111.216C321.408 110.85 322.002 110.849 322.366 111.218C322.73 111.587 322.723 112.181 322.352 112.543L317.241 117.526C316.892 117.866 316.334 117.859 315.992 117.513C315.65 117.166 315.65 116.608 315.994 116.264L321.042 111.216Z" fill="#5A5257"/>
<path d="M344.62 141.945C345.069 141.686 345.643 141.839 345.899 142.29C346.156 142.74 345.994 143.312 345.542 143.565L339.316 147.056C338.891 147.295 338.354 147.143 338.113 146.72C337.872 146.297 338.017 145.757 338.438 145.514L344.62 141.945Z" fill="#5A5257"/>
<path d="M350.597 153.426C351.067 153.207 351.625 153.41 351.841 153.881C352.057 154.352 351.847 154.907 351.375 155.12L344.868 158.056C344.424 158.256 343.902 158.058 343.699 157.616C343.496 157.173 343.686 156.648 344.128 156.442L350.597 153.426Z" fill="#5A5257"/>
<path d="M355.551 165.383C356.038 165.206 356.576 165.457 356.75 165.945C356.924 166.433 356.666 166.968 356.177 167.139L349.439 169.496C348.98 169.657 348.477 169.415 348.313 168.956C348.149 168.497 348.385 167.991 348.843 167.825L355.551 165.383Z" fill="#5A5257"/>
<path d="M359.442 177.728C359.943 177.594 360.458 177.891 360.589 178.392C360.72 178.893 360.416 179.404 359.914 179.532L352.996 181.293C352.524 181.413 352.044 181.128 351.921 180.656C351.798 180.185 352.077 179.702 352.547 179.576L359.442 177.728Z" fill="#5A5257"/>
<path d="M337.666 131.028C338.091 130.731 338.676 130.834 338.971 131.26C339.265 131.686 339.154 132.27 338.726 132.562L332.828 136.582C332.425 136.857 331.877 136.753 331.6 136.352C331.323 135.951 331.42 135.402 331.819 135.122L337.666 131.028Z" fill="#5A5257"/>
<path d="M329.787 120.759C330.184 120.426 330.776 120.478 331.107 120.877C331.437 121.276 331.378 121.867 330.977 122.195L325.451 126.714C325.074 127.023 324.519 126.967 324.208 126.592C323.897 126.217 323.946 125.661 324.319 125.348L329.787 120.759Z" fill="#5A5257"/>
<path d="M311.498 102.472C311.831 102.075 312.423 102.023 312.818 102.358C313.213 102.694 313.257 103.286 312.919 103.679L308.262 109.089C307.945 109.458 307.388 109.5 307.017 109.185C306.646 108.869 306.597 108.313 306.91 107.94L311.498 102.472Z" fill="#5A5257"/>
<path d="M301.23 94.5921C301.527 94.1677 302.112 94.0643 302.535 94.3641C302.957 94.664 303.053 95.2504 302.751 95.6711L298.583 101.467C298.299 101.862 297.748 101.952 297.351 101.67C296.953 101.388 296.856 100.839 297.136 100.44L301.23 94.5921Z" fill="#5A5257"/>
<path d="M359.442 254.53C359.943 254.664 360.24 255.178 360.103 255.678C359.966 256.177 359.447 256.468 358.949 256.327L352.077 254.393C351.608 254.261 351.336 253.774 351.465 253.305C351.594 252.835 352.077 252.556 352.547 252.682L359.442 254.53Z" fill="#5A5257"/>
<path d="M355.55 266.874C356.037 267.051 356.289 267.589 356.108 268.075C355.928 268.561 355.386 268.805 354.902 268.622L348.225 266.096C347.77 265.924 347.54 265.415 347.71 264.958C347.879 264.502 348.385 264.265 348.843 264.432L355.55 266.874Z" fill="#5A5257"/>
<path d="M350.597 278.832C351.066 279.051 351.27 279.609 351.048 280.077C350.826 280.546 350.265 280.742 349.798 280.517L343.367 277.419C342.928 277.207 342.744 276.681 342.953 276.24C343.161 275.8 343.686 275.609 344.127 275.815L350.597 278.832Z" fill="#5A5257"/>
<path d="M344.621 290.313C345.07 290.572 345.224 291.146 344.962 291.593C344.7 292.04 344.124 292.187 343.679 291.922L337.542 288.275C337.123 288.027 336.986 287.486 337.232 287.065C337.478 286.645 338.017 286.5 338.439 286.744L344.621 290.313Z" fill="#5A5257"/>
<path d="M321.042 321.042C321.408 321.408 321.408 322.002 321.04 322.366C320.671 322.73 320.077 322.723 319.715 322.352L314.731 317.241C314.391 316.892 314.399 316.334 314.745 315.992C315.092 315.65 315.65 315.65 315.994 315.994L321.042 321.042Z" fill="#5A5257"/>
<path d="M290.314 344.621C290.573 345.07 290.42 345.644 289.969 345.9C289.519 346.157 288.947 345.995 288.694 345.543L285.202 339.317C284.964 338.892 285.116 338.355 285.539 338.114C285.962 337.873 286.501 338.018 286.745 338.439L290.314 344.621Z" fill="#5A5257"/>
<path d="M278.832 350.597C279.051 351.067 278.848 351.625 278.377 351.841C277.906 352.057 277.351 351.847 277.137 351.375L274.202 344.868C274.002 344.424 274.2 343.902 274.642 343.699C275.085 343.496 275.61 343.686 275.815 344.128L278.832 350.597Z" fill="#5A5257"/>
<path d="M266.874 355.552C267.052 356.039 266.801 356.577 266.313 356.751C265.825 356.925 265.289 356.667 265.118 356.178L262.761 349.44C262.601 348.981 262.843 348.478 263.302 348.314C263.76 348.15 264.266 348.386 264.433 348.844L266.874 355.552Z" fill="#5A5257"/>
<path d="M254.53 359.443C254.664 359.944 254.367 360.459 253.866 360.59C253.364 360.72 252.854 360.417 252.726 359.915L250.965 352.997C250.845 352.525 251.13 352.045 251.601 351.922C252.073 351.799 252.556 352.078 252.682 352.548L254.53 359.443Z" fill="#5A5257"/>
<path d="M301.23 337.666C301.527 338.091 301.424 338.676 300.998 338.971C300.572 339.265 299.988 339.154 299.696 338.726L295.675 332.828C295.401 332.425 295.505 331.877 295.906 331.6C296.306 331.323 296.856 331.42 297.135 331.819L301.23 337.666Z" fill="#5A5257"/>
<path d="M311.498 329.786C311.831 330.183 311.779 330.775 311.38 331.106C310.981 331.436 310.39 331.377 310.062 330.976L305.542 325.45C305.234 325.073 305.29 324.518 305.665 324.207C306.04 323.896 306.596 323.945 306.909 324.318L311.498 329.786Z" fill="#5A5257"/>
<path d="M329.785 311.498C330.182 311.831 330.234 312.423 329.899 312.818C329.563 313.213 328.97 313.257 328.578 312.919L323.167 308.262C322.798 307.945 322.757 307.388 323.072 307.017C323.388 306.646 323.944 306.597 324.317 306.91L329.785 311.498Z" fill="#5A5257"/>
<path d="M337.666 301.23C338.09 301.527 338.194 302.112 337.894 302.535C337.594 302.957 337.007 303.053 336.587 302.751L330.791 298.583C330.396 298.299 330.306 297.748 330.588 297.351C330.87 296.953 331.419 296.856 331.818 297.136L337.666 301.23Z" fill="#5A5257"/>
<path d="M177.728 359.443C177.594 359.944 177.08 360.241 176.58 360.104C176.08 359.967 175.79 359.448 175.93 358.95L177.864 352.078C177.996 351.609 178.483 351.337 178.953 351.466C179.423 351.595 179.702 352.078 179.576 352.548L177.728 359.443Z" fill="#5A5257"/>
<path d="M165.384 355.55C165.207 356.037 164.669 356.289 164.183 356.108C163.697 355.928 163.453 355.386 163.636 354.902L166.162 348.225C166.334 347.77 166.843 347.54 167.3 347.71C167.756 347.879 167.992 348.385 167.826 348.843L165.384 355.55Z" fill="#5A5257"/>
<path d="M153.426 350.598C153.207 351.067 152.649 351.271 152.18 351.049C151.712 350.827 151.516 350.266 151.741 349.799L154.839 343.368C155.05 342.929 155.577 342.745 156.017 342.954C156.458 343.162 156.649 343.687 156.443 344.128L153.426 350.598Z" fill="#5A5257"/>
<path d="M141.945 344.622C141.686 345.071 141.112 345.225 140.665 344.963C140.218 344.701 140.071 344.125 140.336 343.679L143.982 337.543C144.231 337.124 144.772 336.987 145.192 337.233C145.613 337.479 145.757 338.018 145.514 338.44L141.945 344.622Z" fill="#5A5257"/>
<path d="M111.216 321.042C110.85 321.408 110.256 321.408 109.892 321.04C109.528 320.671 109.535 320.077 109.906 319.715L115.017 314.731C115.365 314.391 115.924 314.399 116.266 314.745C116.608 315.092 116.608 315.65 116.264 315.994L111.216 321.042Z" fill="#5A5257"/>
<path d="M87.6374 290.315C87.1887 290.574 86.6147 290.421 86.3585 289.97C86.1022 289.52 86.2634 288.948 86.7153 288.695L92.9418 285.203C93.3666 284.965 93.9038 285.117 94.1447 285.54C94.3855 285.963 94.2413 286.502 93.8195 286.746L87.6374 290.315Z" fill="#5A5257"/>
<path d="M81.6605 278.833C81.1909 279.052 80.6325 278.849 80.4165 278.378C80.2004 277.907 80.4109 277.352 80.8832 277.138L87.3902 274.203C87.8341 274.003 88.3561 274.201 88.5592 274.643C88.7622 275.086 88.5715 275.611 88.1301 275.816L81.6605 278.833Z" fill="#5A5257"/>
<path d="M76.7071 266.874C76.2203 267.052 75.6816 266.801 75.5075 266.313C75.3333 265.825 75.5914 265.289 76.0805 265.118L82.8186 262.761C83.2783 262.601 83.781 262.843 83.9447 263.302C84.1084 263.76 83.8727 264.266 83.4151 264.433L76.7071 266.874Z" fill="#5A5257"/>
<path d="M72.8154 254.531C72.3149 254.665 71.8002 254.368 71.6693 253.867C71.5383 253.365 71.842 252.855 72.3442 252.727L79.262 250.966C79.734 250.846 80.2137 251.131 80.3368 251.602C80.4599 252.074 80.181 252.557 79.7106 252.683L72.8154 254.531Z" fill="#5A5257"/>
<path d="M94.5914 301.231C94.167 301.528 93.5817 301.425 93.2872 300.999C92.9927 300.573 93.1034 299.989 93.5316 299.697L99.43 295.676C99.8325 295.402 100.381 295.506 100.658 295.907C100.935 296.307 100.838 296.857 100.439 297.136L94.5914 301.231Z" fill="#5A5257"/>
<path d="M102.471 311.499C102.074 311.832 101.482 311.78 101.151 311.381C100.821 310.982 100.88 310.391 101.281 310.063L106.807 305.543C107.184 305.235 107.739 305.291 108.05 305.666C108.36 306.041 108.312 306.597 107.939 306.91L102.471 311.499Z" fill="#5A5257"/>
<path d="M120.759 329.786C120.426 330.183 119.834 330.235 119.44 329.899C119.045 329.564 119.001 328.971 119.339 328.579L123.996 323.168C124.313 322.799 124.87 322.758 125.241 323.073C125.612 323.389 125.661 323.945 125.348 324.318L120.759 329.786Z" fill="#5A5257"/>
<path d="M131.028 337.667C130.731 338.091 130.145 338.194 129.723 337.895C129.3 337.595 129.205 337.008 129.507 336.588L133.675 330.792C133.959 330.397 134.51 330.307 134.907 330.589C135.304 330.871 135.402 331.42 135.122 331.819L131.028 337.667Z" fill="#5A5257"/>
<path d="M72.8153 177.729C72.3149 177.595 72.0176 177.081 72.1548 176.581C72.2921 176.081 72.8105 175.791 73.3092 175.931L80.1806 177.865C80.6495 177.997 80.9223 178.484 80.7932 178.954C80.6642 179.424 80.181 179.703 79.7105 179.577L72.8153 177.729Z" fill="#5A5257"/>
<path d="M76.7074 165.384C76.2205 165.207 75.9692 164.669 76.1494 164.183C76.3297 163.697 76.8715 163.453 77.3561 163.636L84.0328 166.162C84.4883 166.334 84.7176 166.843 84.5482 167.3C84.3787 167.756 83.873 167.992 83.4153 167.826L76.7074 165.384Z" fill="#5A5257"/>
<path d="M81.6611 153.426C81.1915 153.207 80.9881 152.649 81.21 152.18C81.4319 151.712 81.9929 151.516 82.4597 151.741L88.8909 154.839C89.3296 155.05 89.5137 155.577 89.3051 156.017C89.0965 156.458 88.5721 156.649 88.1307 156.443L81.6611 153.426Z" fill="#5A5257"/>
<path d="M87.6369 141.946C87.1882 141.687 87.0342 141.113 87.2961 140.666C87.558 140.218 88.1339 140.072 88.5793 140.337L94.716 143.983C95.1347 144.232 95.2722 144.773 95.026 145.193C94.7799 145.614 94.2408 145.758 93.819 145.515L87.6369 141.946Z" fill="#5A5257"/>
<path d="M111.216 111.216C110.85 110.85 110.849 110.256 111.218 109.892C111.587 109.528 112.181 109.535 112.543 109.906L117.526 115.017C117.866 115.366 117.859 115.924 117.513 116.266C117.166 116.608 116.608 116.608 116.264 116.264L111.216 111.216Z" fill="#5A5257"/>
<path d="M141.944 87.6365C141.685 87.1877 141.838 86.6137 142.289 86.3575C142.739 86.1013 143.311 86.2625 143.564 86.7144L147.055 92.9408C147.294 93.3656 147.142 93.9028 146.719 94.1437C146.296 94.3846 145.756 94.2403 145.513 93.8185L141.944 87.6365Z" fill="#5A5257"/>
<path d="M153.426 81.6605C153.207 81.1909 153.41 80.6325 153.881 80.4165C154.352 80.2004 154.907 80.4109 155.12 80.8832L158.056 87.3902C158.256 87.8341 158.058 88.3561 157.616 88.5592C157.173 88.7622 156.648 88.5715 156.442 88.1301L153.426 81.6605Z" fill="#5A5257"/>
<path d="M165.383 76.7071C165.206 76.2203 165.457 75.6816 165.945 75.5075C166.433 75.3333 166.968 75.5914 167.139 76.0805L169.496 82.8186C169.657 83.2783 169.415 83.781 168.956 83.9447C168.497 84.1084 167.991 83.8727 167.825 83.4151L165.383 76.7071Z" fill="#5A5257"/>
<path d="M177.728 72.8144C177.594 72.314 177.891 71.7992 178.392 71.6683C178.893 71.5373 179.404 71.8411 179.532 72.3432L181.293 79.2611C181.413 79.733 181.128 80.2128 180.656 80.3359C180.185 80.459 179.702 80.1801 179.576 79.7096L177.728 72.8144Z" fill="#5A5257"/>
<path d="M131.028 94.5914C130.731 94.167 130.834 93.5817 131.26 93.2872C131.686 92.9927 132.27 93.1035 132.562 93.5316L136.582 99.43C136.857 99.8325 136.753 100.381 136.352 100.658C135.951 100.935 135.402 100.838 135.122 100.439L131.028 94.5914Z" fill="#5A5257"/>
<path d="M120.76 102.471C120.427 102.074 120.479 101.482 120.878 101.151C121.277 100.821 121.868 100.88 122.196 101.281L126.715 106.807C127.024 107.184 126.968 107.739 126.593 108.05C126.218 108.36 125.662 108.312 125.349 107.939L120.76 102.471Z" fill="#5A5257"/>
<path d="M102.473 120.758C102.076 120.425 102.024 119.833 102.359 119.439C102.695 119.044 103.287 119 103.68 119.338L109.09 123.995C109.459 124.312 109.501 124.869 109.186 125.24C108.87 125.611 108.314 125.66 107.941 125.347L102.473 120.758Z" fill="#5A5257"/>
<path d="M94.5921 131.028C94.1677 130.731 94.0643 130.145 94.3642 129.723C94.664 129.3 95.2505 129.205 95.6711 129.507L101.467 133.675C101.862 133.959 101.952 134.51 101.67 134.907C101.388 135.304 100.839 135.402 100.44 135.122L94.5921 131.028Z" fill="#5A5257"/>
<path d="M411.092 215.5C411.092 323.522 323.522 411.092 215.5 411.092C107.477 411.092 19.9072 323.522 19.9072 215.5C19.9072 107.477 107.477 19.9072 215.5 19.9072C323.522 19.9072 411.092 107.477 411.092 215.5ZM39.4665 215.5C39.4665 312.72 118.279 391.533 215.5 391.533C312.72 391.533 391.533 312.72 391.533 215.5C391.533 118.279 312.72 39.4665 215.5 39.4665C118.279 39.4665 39.4665 118.279 39.4665 215.5Z" fill="#0F0A0D"/>
</svg>
