<svg width="30" height="30" viewBox="0 0 30 30" fill="none" xmlns="http://www.w3.org/2000/svg">
<circle cx="15" cy="15" r="15" fill="#EB2BAC"/>
<path d="M17.8337 22.0003C18.478 22.0003 19.0003 21.478 19.0003 20.8337C19.0003 20.1893 18.478 19.667 17.8337 19.667C17.1893 19.667 16.667 20.1893 16.667 20.8337C16.667 21.478 17.1893 22.0003 17.8337 22.0003Z" fill="white"/>
<path d="M12.4997 22.0003C13.144 22.0003 13.6663 21.478 13.6663 20.8337C13.6663 20.1893 13.144 19.667 12.4997 19.667C11.8553 19.667 11.333 20.1893 11.333 20.8337C11.333 21.478 11.8553 22.0003 12.4997 22.0003Z" fill="white"/>
<path d="M10.2263 9.62634L10.093 11.2597C10.0663 11.573 10.313 11.833 10.6263 11.833H20.833C21.113 11.833 21.3463 11.6197 21.3663 11.3397C21.453 10.1597 20.553 9.19967 19.373 9.19967H11.1797C11.113 8.90634 10.9797 8.62634 10.773 8.39301C10.4397 8.03967 9.97301 7.83301 9.49301 7.83301H8.33301C8.05967 7.83301 7.83301 8.05967 7.83301 8.33301C7.83301 8.60634 8.05967 8.83301 8.33301 8.83301H9.49301C9.69967 8.83301 9.89301 8.91967 10.033 9.06634C10.173 9.21967 10.2397 9.41967 10.2263 9.62634Z" fill="white"/>
<path d="M20.6737 12.833H10.447C10.167 12.833 9.94036 13.0463 9.91369 13.3197L9.67369 16.2197C9.58036 17.3597 10.4737 18.333 11.6137 18.333H19.027C20.027 18.333 20.907 17.513 20.9804 16.513L21.2004 13.3997C21.227 13.093 20.987 12.833 20.6737 12.833Z" fill="white"/>
</svg>
