<svg width="30" height="30" viewBox="0 0 30 30" fill="none" xmlns="http://www.w3.org/2000/svg">
<circle cx="15" cy="15" r="15" fill="#EB2BAC"/>
<g clip-path="url(#clip0_673_8050)">
<path d="M14.9871 7C10.7772 7 7.3285 10.2378 7.00098 14.3522L11.2962 16.1236C11.6601 15.8751 12.1 15.7303 12.5728 15.7303C12.6155 15.7303 12.6576 15.7315 12.6991 15.7337L14.6095 12.9718V12.9331C14.6095 11.2711 15.9651 9.91866 17.6315 9.91866C19.2979 9.91866 20.6536 11.2711 20.6536 12.9331C20.6536 14.595 19.2979 15.948 17.6315 15.948C17.6084 15.948 17.586 15.9475 17.5629 15.9469L14.8384 17.8853C14.8401 17.9212 14.8413 17.9571 14.8413 17.9924C14.8413 19.2406 13.8235 20.2556 12.5728 20.2556C11.475 20.2556 10.5564 19.4737 10.3488 18.4387L7.2766 17.1717C8.22802 20.5269 11.3187 22.9868 14.9871 22.9868C19.4133 22.9868 23.001 19.4076 23.001 14.9934C23.001 10.5786 19.4133 7 14.9871 7ZM12.023 19.1286L11.0387 18.7228C11.2128 19.0853 11.515 19.3885 11.9157 19.555C12.7818 19.9152 13.7805 19.5054 14.1415 18.6408C14.3162 18.2224 14.3173 17.7608 14.1444 17.3413C13.9714 16.9218 13.6444 16.5947 13.2252 16.4203C12.8083 16.2476 12.362 16.2539 11.9699 16.4015L12.9871 16.821C13.626 17.0866 13.9281 17.8184 13.6617 18.4555C13.3959 19.0927 12.6619 19.3942 12.023 19.1286ZM19.6453 12.9331C19.6453 11.8257 18.7417 10.9241 17.6317 10.9241C16.5212 10.9241 15.6176 11.8257 15.6176 12.9331C15.6176 14.0405 16.5212 14.9416 17.6317 14.9416C18.7417 14.9416 19.6453 14.0405 19.6453 12.9331ZM16.1222 12.9297C16.1222 12.0965 16.7997 11.4211 17.6346 11.4211C18.4701 11.4211 19.1477 12.0965 19.1477 12.9297C19.1477 13.763 18.4701 14.4383 17.6346 14.4383C16.7997 14.4383 16.1222 13.763 16.1222 12.9297Z" fill="white"/>
</g>
<defs>
<clipPath id="clip0_673_8050">
<rect width="16" height="16" fill="white" transform="translate(7.00098 7)"/>
</clipPath>
</defs>
</svg>
